<?xml version="1.0" standalone="no"?>
<!DOCTYPE svg PUBLIC "-//W3C//DTD SVG 1.1//EN" "http://www.w3.org/Graphics/SVG/1.1/DTD/svg11.dtd" >
<svg>
<metadata>
Created by FontForge 20090914 at Mon Nov 13 06:49:22 2017
 By www-data
Copyright &#194;&#169; 1989, 1991, 2002 Adobe Systems Incorporated.  All Rights Reserved.
</metadata>
<defs>
<font id="BauerBodoniStd-Bold" horiz-adv-x="556" >
  <font-face 
    font-family="Bauer Bodoni Std"
    font-weight="700"
    font-stretch="normal"
    units-per-em="1000"
    panose-1="2 7 8 3 8 7 6 2 3 3"
    ascent="735"
    descent="-265"
    x-height="439.997"
    cap-height="704"
    bbox="-166 -265.005 1000 948"
    underline-thickness="50"
    underline-position="-150"
    unicode-range="U+0020-U+FB02"
  />
<missing-glyph horiz-adv-x="500" 
d="M0 0v700h500v-700h-500zM250 395l170 255h-340zM280 350l170 -255v510zM80 50h340l-170 255zM50 605v-510l170 255z" />
    <glyph glyph-name="f_i" unicode="fi" horiz-adv-x="611" 
d="M16 0l0.00292969 17.999h69v404h-69v18h69c1.33301 46.667 9 87.5 23 122.5s30.667 62.167 50 81.5s41.666 35 66.999 47s48.166 19.833 68.499 23.5s40.5 5.5 60.5 5.5c44 0 83.167 -9.5 117.5 -28.5s51.5 -47.167 51.5 -84.5c0 -24 -7.5 -44.5 -22.5 -61.5
s-34.833 -25.5 -59.5 -25.5c-22.667 0 -40.834 7.5 -54.501 22.5s-20.5 33.5 -20.5 55.5c0 18 6.16699 32.833 18.5 44.5s24.833 18.834 37.5 21.501c17.333 4 26 8 26 12c0 7.33301 -9.5 13.5 -28.5 18.5s-40.5 7.5 -64.5 7.5c-32.667 0 -62.834 -10.5 -90.501 -31.5
s-41.5 -56.167 -41.5 -105.5v-125h143c36.667 0 69.334 1.33301 98.001 4c29.333 1.33301 49.333 7.33301 60 18v-444h69v-18h-273v18h66v404h-163v-404h66v-18h-273z" />
    <glyph glyph-name="f_l" unicode="fl" horiz-adv-x="611" 
d="M223 440l162.999 -0.00195312v87c-25.333 12 -38 32.667 -38 62c0 30.667 17 55.334 51 74.001c-17.333 26 -44 39 -80 39c-29.333 0 -52.666 -11.167 -69.999 -33.5s-26 -55.166 -26 -98.499v-130zM15.999 -0.00195312v18h69v404h-69v18h69c0 86.667 24.667 155 74 205
s109.333 75 180 75c44.667 0 80 -12 106 -36l79 36v-702h69v-18h-273v18h66v404h-163v-404h69v-18h-276z" />
    <glyph glyph-name=".notdef" horiz-adv-x="500" 
d="M0 0v700h500v-700h-500zM250 395l170 255h-340zM280 350l170 -255v510zM80 50h340l-170 255zM50 605v-510l170 255z" />
    <glyph glyph-name="space" unicode=" " horiz-adv-x="278" 
 />
    <glyph glyph-name="exclam" unicode="!" horiz-adv-x="334" 
d="M179 181h-24c0 44.667 -2.33301 98.667 -7 162c-6 108 -31.667 190.333 -77 247c53.333 27.333 85.333 68 96 122c10.667 -54 42.667 -94.667 96 -122c-45.333 -56.667 -71 -139 -77 -247c-4.66699 -63.333 -7 -117.333 -7 -162zM86 69
c0 22.667 7.83301 41.834 23.5 57.501s34.834 23.5 57.501 23.5s41.834 -7.83301 57.501 -23.5s23.5 -34.834 23.5 -57.501s-7.83301 -41.834 -23.5 -57.501s-34.834 -23.5 -57.501 -23.5s-41.834 7.83301 -57.501 23.5s-23.5 34.834 -23.5 57.501z" />
    <glyph glyph-name="quotedbl" unicode="&#x22;" horiz-adv-x="500" 
d="M128 437l-15.998 173c0 3.33301 -0.333008 8.16602 -1 14.499s-1.16699 12 -1.5 17s-0.5 9.16699 -0.5 12.5c0 44 17 66 51 66s51 -22 51 -66c0 -3.33301 -0.166992 -7.5 -0.5 -12.5s-0.833008 -10.667 -1.5 -17s-1 -11.166 -1 -14.499l-16 -173
c-2.66699 -20.667 -13.334 -31 -32.001 -31s-29.334 10.333 -32.001 31zM308.002 437l-15.998 173c0 3.33301 -0.333008 8.16602 -1 14.499s-1.16699 12 -1.5 17s-0.5 9.16699 -0.5 12.5c0 44 17 66 51 66s51 -22 51 -66c0 -3.33301 -0.166992 -7.5 -0.5 -12.5
s-0.833008 -10.667 -1.5 -17s-1 -11.166 -1 -14.499l-16 -173c-2.66699 -20.667 -13.334 -31 -32.001 -31s-29.334 10.333 -32.001 31z" />
    <glyph glyph-name="numbersign" unicode="#" 
d="M116 0l29 210h-96v72h107l18 140h-96v72h106l30 210h77l-29 -210h114l29 210h78l-29 -210h96v-72h-107l-18 -140h96v-72h-106l-30 -210h-77l29 210h-114l-29 -210h-78zM347 282l18 140h-113l-18 -140h113z" />
    <glyph glyph-name="dollar" unicode="$" 
d="M259 461v233.002h-5c-38.667 0 -70.667 -11.333 -96 -34s-38 -51.334 -38 -86.001s11.667 -59.834 35 -75.501s58 -28.167 104 -37.5zM289 278.002l-0.000976562 -268c42.667 1.33301 76.834 14 102.501 38s38.5 55.667 38.5 95s-12 68.5 -36 87.5s-59 34.833 -105 47.5z
M32.999 7.00195l-0.000976562 265.999h18c8 -38.667 20.333 -75.667 37 -111s40.167 -67.833 70.5 -97.5s63.833 -47.167 100.5 -52.5v274c-30 7.33301 -53.333 13.333 -70 18s-36.667 12.667 -60 24s-41.166 24 -53.499 38s-23 32.833 -32 56.5s-13.5 51.167 -13.5 82.5
c0 62 20.167 112 60.5 150s93.833 57 160.5 57h8v69h30v-72c25.333 -4 52 -13.5 80 -28.5s48 -22.5 60 -22.5c21.333 0 32 13 32 39h18v-225h-18c-30 128.667 -87.333 201.334 -172 218.001v-237c94 -20.667 157 -46.334 189 -77.001s48 -81.667 48 -153
c0 -65.333 -21 -120.166 -63 -164.499s-97.333 -66.5 -166 -66.5h-8v-106h-30v108c-24.667 4 -56.667 13.333 -96 28s-64.333 22 -75 22c-24.667 0 -37 -12.333 -37 -37h-18z" />
    <glyph glyph-name="percent" unicode="%" horiz-adv-x="1000" 
d="M774 129v93c0 83.333 -18.333 125 -55 125s-55 -41.667 -55 -125v-93c0 -83.333 18.333 -125 55 -125s55 41.667 55 125zM751 720l-463 -736h-45l463 736h45zM336 482v93c0 83.333 -18.333 125 -55 125s-55 -41.667 -55 -125v-93c0 -83.333 18.333 -125 55 -125
s55 41.667 55 125zM574 175c0 54.667 11.833 99 35.5 133s60.167 51 109.5 51s85.833 -17 109.5 -51s35.5 -78.333 35.5 -133s-11.833 -98.834 -35.5 -132.501s-60.167 -50.5 -109.5 -50.5s-85.833 16.833 -109.5 50.5s-35.5 77.834 -35.5 132.501zM136 528
c0 54.667 11.833 99 35.5 133s60.167 51 109.5 51s85.833 -17 109.5 -51s35.5 -78.333 35.5 -133s-11.833 -98.834 -35.5 -132.501s-60.167 -50.5 -109.5 -50.5s-85.833 16.833 -109.5 50.5s-35.5 77.834 -35.5 132.501z" />
    <glyph glyph-name="ampersand" unicode="&#x26;" horiz-adv-x="834" 
d="M287 586c0 -14.667 3.49902 -30.168 10.499 -46.501s18.833 -37.666 35.5 -63.999s25.334 -39.833 26.001 -40.5c58.667 36.667 88 78 88 124c0 31.333 -7.66699 55.5 -23 72.5s-37.333 25.5 -66 25.5c-21.333 0 -38.5 -6.66699 -51.5 -20s-19.5 -30.333 -19.5 -51z
M371.999 419.999l130.996 -174.998c26.667 43.333 51.5 75 74.5 95s51.167 30 84.5 30c20.667 0 38.5 -7.66699 53.5 -23s22.5 -33.666 22.5 -54.999c0 -22 -5.83301 -40.5 -17.5 -55.5s-28.167 -22.5 -49.5 -22.5c-19.333 0 -35 5.83301 -47 17.5s-18 26.167 -18 43.5
c0 4.66699 0.5 10 1.5 16s1.5 10 1.5 12c0 8.66699 -6 13 -18 13c-7.33301 0 -15.666 -5.33301 -24.999 -16s-19.666 -25 -30.999 -43s-17.666 -27.667 -18.999 -29c40 -50 73 -87.167 99 -111.5s48.667 -36.5 68 -36.5c22.667 0 40.334 7.33301 53.001 22
s23.667 34.667 33 60l13 -6c-14 -48.667 -35 -89.5 -63 -122.5s-64 -49.5 -108 -49.5c-28.667 0 -55.167 9 -79.5 27s-56.833 51 -97.5 99c-35.333 -44 -68.5 -76 -99.5 -96s-65.833 -30 -104.5 -30c-44.667 0 -83 18.5 -115 55.5s-48 78.167 -48 123.5
c0 38 14 71.667 42 101s74.333 63.666 139 102.999c-46 63.333 -69 118.333 -69 165c0 44 16.5 79.833 49.5 107.5s72.833 41.5 119.5 41.5c39.333 0 69.666 -9.83301 90.999 -29.5s32 -47.834 32 -84.501c0 -32.667 -8.16699 -59.334 -24.5 -80.001
s-41.166 -43 -74.499 -67zM421.995 126.001l-162.999 224.998l-19.5 -14l-18 -13c-3.66699 -2.66699 -8.16699 -6.5 -13.5 -11.5s-9.33301 -9.5 -12 -13.5s-5.33398 -9.16699 -8.00098 -15.5s-4.5 -13.166 -5.5 -20.499s-1.5 -15.666 -1.5 -24.999
c0 -34 17.167 -70.833 51.5 -110.5s68.5 -59.5 102.5 -59.5c34.667 0 63.667 19.333 87 58z" />
    <glyph glyph-name="quotesingle" unicode="'" horiz-adv-x="278" 
d="M187 610l-15.998 -173c-2.66699 -20.667 -13.334 -31 -32.001 -31s-29.334 10.333 -32.001 31l-16 173c0 3.33301 -0.333008 8.16602 -1 14.499s-1.16699 12 -1.5 17s-0.5 9.16699 -0.5 12.5c0 44 17 66 51 66s51 -22 51 -66c0 -3.33301 -0.166992 -7.5 -0.5 -12.5
s-0.833008 -10.667 -1.5 -17s-1 -11.166 -1 -14.499z" />
    <glyph glyph-name="parenleft" unicode="(" horiz-adv-x="333" 
d="M326 -213l-37 -38.0039c-60.667 64.667 -107.334 140.5 -140.001 227.5s-49 176.5 -49 268.5s16.333 181.5 49 268.5s79.334 162.833 140.001 227.5l37 -38c-51.333 -55.333 -91.833 -123.666 -121.5 -204.999s-44.5 -165.666 -44.5 -252.999
s14.833 -171.666 44.5 -252.999s70.167 -149.666 121.5 -204.999z" />
    <glyph glyph-name="parenright" unicode=")" horiz-adv-x="333" 
d="M7 703l37 38.0039c60.667 -64.667 107.334 -140.5 140.001 -227.5s49 -176.5 49 -268.5s-16.333 -181.5 -49 -268.5s-79.334 -162.833 -140.001 -227.5l-37 38c51.333 55.333 91.833 123.666 121.5 204.999s44.5 165.666 44.5 252.999s-14.833 171.666 -44.5 252.999
s-70.167 149.666 -121.5 204.999z" />
    <glyph glyph-name="asterisk" unicode="*" 
d="M500 517c0 -6.66699 -8.00391 -13.1641 -24.0039 -19.4971s-24 -13.166 -24 -20.499c0 -4.66699 2.33301 -11 7 -19s7 -13.333 7 -16c0 -7.33301 -4 -11 -12 -11c-0.666992 0 -8.33398 4 -23.001 12s-35.167 14.667 -61.5 20s-55.5 5.33301 -87.5 0
c13.333 -22 28.833 -40.833 46.5 -56.5s32.834 -26.5 45.501 -32.5s23.667 -11.5 33 -16.5s14 -9.83301 14 -14.5c0 -5.33301 -6 -9.33301 -18 -12s-18 -6 -18 -10c0 -1.33301 1 -8 3 -20s2.66699 -21.833 2 -29.5s-4 -11.5 -10 -11.5c-8.66699 0 -18.167 6 -28.5 18
s-17.166 18 -20.499 18c-4 0 -9.66699 -3.83301 -17 -11.5s-12.666 -11.5 -15.999 -11.5c-6 0 -9 4 -9 12c0 4 0.833008 13.5 2.5 28.5s2.66699 28.667 3 41s-1.66699 28 -6 47s-11.833 37.167 -22.5 54.5c-34.667 -41.333 -54.334 -85 -59.001 -131
c-1.33301 -24 -5.66602 -36 -12.999 -36c-5.33301 0 -10.5 4.66699 -15.5 14s-9.5 14 -13.5 14c-5.33301 0 -13.833 -3.66699 -25.5 -11s-19.834 -11 -24.501 -11c-6 0 -9.66699 4.33301 -11 13c0 2.66699 3.33301 10.167 10 22.5s10 22.166 10 29.499
c0 4 -5.33301 8 -16 12s-16 8.66699 -16 14c0 8 10.333 12 31 12c21.333 1.33301 44.333 8.66602 69 21.999s45.667 29.333 63 48c-31.333 13.333 -63.666 20 -96.999 20c-14.667 0 -30.334 -1.5 -47.001 -4.5s-26 -4.5 -28 -4.5c-8 0 -12 4.33301 -12 13
c0 2 3.33301 6.33301 10 13s10 12.667 10 18c0 6 -5.83301 13.667 -17.5 23s-17.5 15.666 -17.5 18.999c0 8.66699 6.66699 13 20 13c2 0 7.33301 -1.16699 16 -3.5s15.334 -3.5 20.001 -3.5c7.33301 0 11 8.66699 11 26c0 9.33301 4.66699 14 14 14c2 0 4 -0.833008 6 -2.5
s4 -4.16699 6 -7.5s3.66699 -6.5 5 -9.5l6 -13.5c2.66699 -6 4.66699 -10.667 6 -14c8.66699 -16.667 22 -32.5 40 -47.5s37 -26.167 57 -33.5c3.33301 30.667 1.5 58.667 -5.5 84s-15 45.166 -24 59.499s-13.5 22.833 -13.5 25.5c0 8 3.33301 12 10 12
c3.33301 0 8 -1.66699 14 -5s11 -5 15 -5c6 0 12.667 8.33301 20 25s14 25 20 25s9.83301 -2.83301 11.5 -8.5s3 -13.667 4 -24s3.16699 -18.833 6.5 -25.5c2.66699 -2.66699 5 -3.83398 7 -3.50098s5.5 1.66602 10.5 3.99902s8.83301 3.5 11.5 3.5c8.66699 0 13 -4 13 -12
c0 -2.66699 -3.33301 -7.5 -10 -14.5l-23.5 -24.5c-9 -9.33301 -18.333 -24.666 -28 -45.999s-17.167 -46 -22.5 -74c26.667 7.33301 50.334 16.833 71.001 28.5s35.5 22.334 44.5 32.001l23.5 25c6.66699 7 11.334 10.5 14.001 10.5c7.33301 0 11 -3 11 -9
c0 -1.33301 -0.833008 -5 -2.5 -11s-2.5 -11 -2.5 -15c0 -8.66699 5.33301 -13 16 -13c26 2.66699 40.667 2 44 -2c1.33301 -2 2 -4.66699 2 -8z" />
    <glyph glyph-name="plus" unicode="+" horiz-adv-x="600" 
d="M258 295v211h84v-211h211v-84h-211v-211h-84v211h-211v84h211z" />
    <glyph glyph-name="comma" unicode="," horiz-adv-x="278" 
d="M72 -164l0.000976562 17.001c39.333 8.66699 70.666 28 93.999 58s35.333 65.667 36 107h-2c-16.667 -20 -38.667 -30 -66 -30c-24.667 2 -43.5 10.167 -56.5 24.5s-19.5 33.166 -19.5 56.499c0 22 7.66699 41 23 57s34.333 24 57 24c27.333 0 48.833 -10 64.5 -30
s23.5 -47.333 23.5 -82c0 -53.333 -13.333 -98 -40 -134s-64.667 -58.667 -114 -68z" />
    <glyph glyph-name="hyphen" unicode="-" horiz-adv-x="444" 
d="M390 299l-36.999 -92c-12 0 -37.333 0.666992 -76 2s-68.334 2 -89.001 2c-17.333 0 -41.5 -0.666992 -72.5 -2s-51.5 -2 -61.5 -2l37 92c46 -2.66699 98.333 -4 157 -4c32 0 79.333 1.33301 142 4z" />
    <glyph glyph-name="period" unicode="." horiz-adv-x="278" 
d="M58 69c0 22.667 7.83301 41.834 23.5 57.501s34.834 23.5 57.501 23.5s41.834 -7.83301 57.501 -23.5s23.5 -34.834 23.5 -57.501s-7.83301 -41.834 -23.5 -57.501s-34.834 -23.5 -57.501 -23.5s-41.834 7.83301 -57.501 23.5s-23.5 34.834 -23.5 57.501z" />
    <glyph glyph-name="slash" unicode="/" horiz-adv-x="389" 
d="M14 -16l276 736h85l-276 -736h-85z" />
    <glyph glyph-name="zero" unicode="0" 
d="M519 352c0 -60.667 -7.66699 -115 -23 -163s-35.333 -85.667 -60 -113s-50.5 -48.166 -77.5 -62.499s-53.833 -21.5 -80.5 -21.5s-53.5 7.16699 -80.5 21.5s-52.833 35.166 -77.5 62.499s-44.667 65 -60 113s-23 102.333 -23 163s7.66699 115 23 163
s35.333 85.667 60 113s50.5 48.166 77.5 62.499s53.833 21.5 80.5 21.5s53.5 -7.16699 80.5 -21.5s52.833 -35.166 77.5 -62.499s44.667 -65 60 -113s23 -102.333 23 -163zM181 466v-228c0 -25.333 0.166992 -44.333 0.5 -57s1.33301 -29.667 3 -51s4.5 -37.666 8.5 -48.999
s9.5 -23.333 16.5 -36s16.167 -21.667 27.5 -27s25 -8 41 -8s29.667 2.66699 41 8s20.5 14.333 27.5 27s12.5 24.667 16.5 36s6.83301 27.666 8.5 48.999s2.66699 38.333 3 51s0.5 31.667 0.5 57v228c0 25.333 -0.166992 44.333 -0.5 57s-1.33301 29.667 -3 51
s-4.5 37.666 -8.5 48.999s-9.5 23.333 -16.5 36s-16.167 21.667 -27.5 27s-25 8 -41 8s-29.667 -2.66699 -41 -8s-20.5 -14.333 -27.5 -27s-12.5 -24.667 -16.5 -36s-6.83301 -27.666 -8.5 -48.999s-2.66699 -38.333 -3 -51s-0.5 -31.667 -0.5 -57z" />
    <glyph glyph-name="one" unicode="1" 
d="M133 0l0.000976562 18h101v512c0 16 -2.16699 27 -6.5 33s-12.5 9 -24.5 9c-11.333 0 -29 -6.66699 -53 -20l-82 -44l-9 19c131.333 75.333 214.666 134.333 249.999 177h69v-686h92v-18h-337z" />
    <glyph glyph-name="two" unicode="2" 
d="M28 0l11.0029 24.9951c16.667 38 39 71 67 99c17.333 20.667 43.5 46.667 78.5 78s63.667 58 86 80s42.666 51.833 60.999 89.5s27.5 78.5 27.5 122.5c0 28.667 -1.83301 54 -5.5 76s-10.334 42.833 -20.001 62.5s-24 34.834 -43 45.501s-42.167 16 -69.5 16
c-31.333 0 -62.5 -11 -93.5 -33s-46.5 -48.333 -46.5 -79c0 -8 2 -14 6 -18s8 -6.16699 12 -6.5s10.5 -0.166016 19.5 0.500977s15.167 1 18.5 1c18.667 0 34.167 -6 46.5 -18s18.5 -27.333 18.5 -46c0 -22.667 -7.5 -39.667 -22.5 -51s-33.833 -17 -56.5 -17
c-30.667 0 -53.334 10.333 -68.001 31s-22 46.334 -22 77.001c0 52.667 20.167 95.334 60.5 128.001s89.5 49 147.5 49c71.333 0 132.833 -19.333 184.5 -58s77.5 -92 77.5 -160c0 -43.333 -8 -80.666 -24 -111.999s-38.167 -56.833 -66.5 -76.5s-57.333 -37 -87 -52
s-62.5 -33 -98.5 -54s-65.667 -43.5 -89 -67.5h343l17 97h16c-14.667 -58.667 -23.667 -135 -27 -229h-459z" />
    <glyph glyph-name="three" unicode="3" 
d="M126 381l-0.000976562 18.001h67c56 0 94 12.333 114 37s30 65 30 121c0 46.667 -7.5 81.167 -22.5 103.5s-41.5 33.5 -79.5 33.5c-22 0 -46.167 -5.83301 -72.5 -17.5s-39.5 -24.834 -39.5 -39.501c0 -8 8.33301 -13.333 25 -16c40.667 -4.66699 61 -26.667 61 -66
c0 -22 -6.5 -39.5 -19.5 -52.5s-30.167 -19.5 -51.5 -19.5c-22.667 0 -40.5 8.16699 -53.5 24.5s-19.5 35.833 -19.5 58.5c0 33.333 10 61.333 30 84s43.667 38.667 71 48s56.666 14 87.999 14c54.667 0 105.167 -14.667 151.5 -44s69.5 -68 69.5 -116
c0 -34.667 -11.333 -64 -34 -88s-48.167 -41 -76.5 -51s-58.5 -16 -90.5 -18v-2c66 0 120.5 -17 163.5 -51s64.5 -81 64.5 -141c0 -36.667 -8 -69.167 -24 -97.5s-37.167 -50.166 -63.5 -65.499s-54.5 -26.833 -84.5 -34.5s-61 -11.5 -93 -11.5c-139.333 0 -209 48 -209 144
c0 24 7.33301 44.833 22 62.5s34 26.5 58 26.5c20.667 0 37.834 -7 51.501 -21s20.5 -31 20.5 -51c0 -22 -6.33301 -39.5 -19 -52.5s-29.667 -19.5 -51 -19.5c-14.667 0 -22 -4.66699 -22 -14c0 -18.667 14.167 -32.834 42.5 -42.501s57.833 -14.5 88.5 -14.5
c25.333 0 46.833 3.66699 64.5 11s31.334 16.5 41.001 27.5s17 26 22 45s8.16699 36.5 9.5 52.5s2 36.667 2 62c0 64.667 -10.5 109.667 -31.5 135s-62.167 38 -123.5 38h-77z" />
    <glyph glyph-name="four" unicode="4" 
d="M206 0v18h98v174h-280v44l345 468h67v-405h80v-107h-80v-174h96v-18h-326zM304 300v276h-2l-199 -276h201z" />
    <glyph glyph-name="five" unicode="5" 
d="M92 343l-13.999 3.00098c25.333 80.667 38 156.334 38 227.001c0 32 -3.66699 74.333 -11 127c32 8 74.667 12 128 12c34 0 72.167 -5 114.5 -15s64.5 -15 66.5 -15c18.667 0 31.334 8.33301 38.001 25l12 -5c-2 -46.667 -15.5 -79.667 -40.5 -99s-62.5 -29 -112.5 -29
c-18.667 0 -45.667 3 -81 9s-57 9 -65 9c-8.66699 0 -19 -1.66699 -31 -5c1.33301 -21.333 -0.166992 -50.333 -4.5 -87s-9.5 -65 -15.5 -85l2 -2c12.667 11.333 31 20.666 55 27.999s48.667 11 74 11c71.333 0 133.666 -19.833 186.999 -59.5s80 -93.5 80 -161.5
c0 -73.333 -28.5 -131.5 -85.5 -174.5s-123.5 -64.5 -199.5 -64.5c-54.667 0 -101.5 14 -140.5 42s-58.5 64 -58.5 108c0 24.667 6.66699 46 20 64s31.666 27 54.999 27c22 0 39 -6.33301 51 -19s18 -28.667 18 -48c0 -18.667 -6 -34.167 -18 -46.5s-26.667 -18.5 -44 -18.5
c-14.667 0 -22 -8.66699 -22 -26c0 -12.667 13.333 -26.667 40 -42s56 -23 88 -23c24.667 0 46.167 4.5 64.5 13.5s32.666 20.167 42.999 33.5s18.5 30.166 24.5 50.499s9.83301 39.833 11.5 58.5s2.5 39.667 2.5 63c0 51.333 -11.667 97.333 -35 138
s-58.666 61 -105.999 61c-64.667 0 -107.667 -28.333 -129 -85z" />
    <glyph glyph-name="six" unicode="6" 
d="M377 204c0 78.667 -6.50098 133.5 -19.501 164.5s-37.167 46.5 -72.5 46.5c-30.667 0 -55 -15.667 -73 -47s-27 -74 -27 -128c0 -28.667 0.5 -52.667 1.5 -72s3.33301 -39.833 7 -61.5s8.83398 -39 15.501 -52s16 -23.667 28 -32s26.667 -12.5 44 -12.5
c36 0 61 14.333 75 43s21 79 21 151zM473.999 712l-0.000976562 -18c-64.667 -2 -121.5 -19.5 -170.5 -52.5s-80.5 -80.833 -94.5 -143.5c-8 -35.333 -13.333 -76.333 -16 -123h2c19.333 46.667 62 70 128 70c54 0 99.5 -20.333 136.5 -61s55.5 -91.334 55.5 -152.001
c0 -71.333 -23.667 -129.166 -71 -173.499s-101 -66.5 -161 -66.5c-72.667 0 -131.167 26.333 -175.5 79s-66.5 116 -66.5 190c0 79.333 20.833 154 62.5 224s95.834 125.333 162.501 166s136 61 208 61z" />
    <glyph glyph-name="seven" unicode="7" 
d="M523 704v-30.002c-51.333 -81.333 -107.333 -179.666 -168 -294.999s-91 -194.333 -91 -237c0 -12 10 -18 30 -18c16.667 0 30.167 -5.83301 40.5 -17.5s15.5 -26.834 15.5 -45.501c0 -21.333 -6 -38.166 -18 -50.499s-29 -18.5 -51 -18.5
c-24.667 0 -42.667 7.33301 -54 22s-17 33.334 -17 56.001c0 28 13.667 73.833 41 137.5l84.5 200.5c29 70 45.167 124.667 48.5 164h-313l-20 -75h-18c16 50.667 27.667 119.667 35 207h455z" />
    <glyph glyph-name="eight" unicode="8" 
d="M489 552c0 -46.667 -17.8311 -84.334 -53.498 -113.001s-78.834 -48.667 -129.501 -60v-2c60.667 -11.333 111 -32.333 151 -63s60 -73 60 -127c0 -42.667 -12.5 -79.334 -37.5 -110.001s-55.167 -52.5 -90.5 -65.5s-72.333 -19.5 -111 -19.5s-75.667 6.5 -111 19.5
s-65.5 34.833 -90.5 65.5s-37.5 67.334 -37.5 110.001c0 54 20 96.333 60 127s90.333 51.667 151 63v2c-50.667 11.333 -93.834 31.333 -129.501 60s-53.5 66.334 -53.5 113.001c0 50.667 20.833 90 62.5 118s91.167 42 148.5 42s106.833 -14 148.5 -42
s62.5 -67.333 62.5 -118zM373.002 134v93c0 32.667 -8.16699 62 -24.5 88s-39.833 43.333 -70.5 52c-30.667 -8.66699 -54.167 -26 -70.5 -52s-24.5 -55.333 -24.5 -88v-93c0 -38.667 8 -69 24 -91s39.667 -33 71 -33s55 11 71 33s24 52.333 24 91zM357.002 502v96
c0 64 -26.333 96 -79 96s-79 -32 -79 -96v-96c0 -32 5.83301 -56.5 17.5 -73.5s32.167 -31.5 61.5 -43.5c29.333 12 49.833 26.5 61.5 43.5s17.5 41.5 17.5 73.5z" />
    <glyph glyph-name="nine" unicode="9" 
d="M179 500c0 -78.667 6.50098 -133.5 19.501 -164.5s37.167 -46.5 72.5 -46.5c30.667 0 55 15.667 73 47s27 74 27 128c0 28.667 -0.5 52.667 -1.5 72s-3.33301 39.833 -7 61.5s-8.83398 39 -15.501 52s-16 23.667 -28 32s-26.667 12.5 -44 12.5c-36 0 -61 -14.333 -75 -43
s-21 -79 -21 -151zM82.001 -8l0.000976562 18c64.667 2 121.5 19.5 170.5 52.5s80.5 80.833 94.5 143.5c8 35.333 13.333 76.333 16 123h-2c-19.333 -46.667 -62 -70 -128 -70c-54 0 -99.5 20.333 -136.5 61s-55.5 91.334 -55.5 152.001c0 71.333 23.667 129.166 71 173.499
s101 66.5 161 66.5c72.667 0 131.167 -26.333 175.5 -79s66.5 -116 66.5 -190c0 -79.333 -20.833 -154 -62.5 -224s-95.834 -125.333 -162.501 -166s-136 -61 -208 -61z" />
    <glyph glyph-name="colon" unicode=":" horiz-adv-x="278" 
d="M58 359c0 22.667 7.83301 41.834 23.5 57.501s34.834 23.5 57.501 23.5s41.834 -7.83301 57.501 -23.5s23.5 -34.834 23.5 -57.501s-7.83301 -41.834 -23.5 -57.501s-34.834 -23.5 -57.501 -23.5s-41.834 7.83301 -57.501 23.5s-23.5 34.834 -23.5 57.501zM58 69
c0 22.667 7.83301 41.834 23.5 57.501s34.834 23.5 57.501 23.5s41.834 -7.83301 57.501 -23.5s23.5 -34.834 23.5 -57.501s-7.83301 -41.834 -23.5 -57.501s-34.834 -23.5 -57.501 -23.5s-41.834 7.83301 -57.501 23.5s-23.5 34.834 -23.5 57.501z" />
    <glyph glyph-name="semicolon" unicode=";" horiz-adv-x="278" 
d="M72 -164l0.000976562 17c39.333 8.66699 70.666 28 93.999 58s35.333 65.667 36 107h-2c-16.667 -20 -38.667 -30 -66 -30c-24.667 0 -43.5 7.5 -56.5 22.5s-19.5 34.5 -19.5 58.5c0 22 7.66699 41 23 57s34.333 24 57 24c27.333 0 48.833 -10 64.5 -30
s23.5 -47.333 23.5 -82c0 -53.333 -13.333 -98 -40 -134s-64.667 -58.667 -114 -68zM58.001 359c0 22.667 7.83301 41.834 23.5 57.501s34.834 23.5 57.501 23.5s41.834 -7.83301 57.501 -23.5s23.5 -34.834 23.5 -57.501s-7.83301 -41.834 -23.5 -57.501
s-34.834 -23.5 -57.501 -23.5s-41.834 7.83301 -57.501 23.5s-23.5 34.834 -23.5 57.501z" />
    <glyph glyph-name="less" unicode="&#x3c;" horiz-adv-x="600" 
d="M553 514v-88l-393 -173l393 -173v-88l-506 223v76z" />
    <glyph glyph-name="equal" unicode="=" horiz-adv-x="600" 
d="M553 397v-84h-506v84h506zM553 193v-84h-506v84h506z" />
    <glyph glyph-name="greater" unicode="&#x3e;" horiz-adv-x="600" 
d="M47 -8v88l393 173l-393 173v88l506 -223v-76z" />
    <glyph glyph-name="question" unicode="?" 
d="M215 178l0.000976562 150.001c0 25.333 2.33301 44.666 7 57.999s15 26 31 38c46 34.667 77 63 93 85c18.667 24.667 28 49 28 73c0 32.667 -10.333 59.5 -31 80.5s-46.334 31.5 -77.001 31.5c-24.667 0 -46.667 -4.33301 -66 -13s-29 -20.667 -29 -36
c0 -10 10 -15 30 -15c18 0 33 -6.66699 45 -20s18 -30 18 -50c0 -21.333 -7.5 -38 -22.5 -50s-33.167 -18 -54.5 -18c-24.667 0 -44.5 8.83301 -59.5 26.5s-22.5 39.167 -22.5 64.5c0 41.333 16.833 73.166 50.5 95.499s73.167 33.5 118.5 33.5
c54 0 97.167 -17.167 129.5 -51.5s48.5 -78.5 48.5 -132.5c0 -32 -7.5 -62 -22.5 -90s-33.333 -51.667 -55 -71s-43.167 -37.5 -64.5 -54.5s-39.5 -35.167 -54.5 -54.5s-22.5 -38.666 -22.5 -57.999v-22h-18zM148.001 69.001c0 22.667 7.83301 41.834 23.5 57.501
s34.834 23.5 57.501 23.5s41.834 -7.83301 57.501 -23.5s23.5 -34.834 23.5 -57.501s-7.83301 -41.834 -23.5 -57.501s-34.834 -23.5 -57.501 -23.5s-41.834 7.83301 -57.501 23.5s-23.5 34.834 -23.5 57.501z" />
    <glyph glyph-name="at" unicode="@" horiz-adv-x="800" 
d="M343 295c-0.666992 -27.333 4.66699 -48.666 16 -63.999s25 -23 41 -23c34 0 62.167 24.167 84.5 72.5s33.5 93.833 33.5 136.5c0 44.667 -14 67 -42 67s-57.167 -18.333 -87.5 -55s-45.5 -81.334 -45.5 -134.001zM540.001 486l9.00488 36.002h76l-62 -247
c-4 -16 -6 -28 -6 -36c0 -12.667 3.16699 -23.167 9.5 -31.5s15.166 -12.5 26.499 -12.5c32.667 0 61.5 23.167 86.5 69.5s37.167 94.833 36.5 145.5c0 41.333 -10.167 81 -30.5 119s-52.333 70.333 -96 97s-94.834 40 -153.501 40c-83.333 0 -152.833 -28.333 -208.5 -85
s-83.5 -140 -83.5 -250c0 -80.667 27.5 -148.667 82.5 -204s122.5 -83 202.5 -83s149.333 16.667 208 50l9 -36c-64 -49.333 -145.333 -74 -244 -74c-110.667 0 -199.334 34.5 -266.001 103.5s-100 151.167 -100 246.5c0 114 37 206.833 111 278.5s163 107.5 267 107.5
c100.667 0 184.167 -29.333 250.5 -88s99.5 -132.334 99.5 -221.001c0 -61.333 -18.833 -119.666 -56.5 -174.999s-82.834 -83 -135.501 -83c-26.667 0 -48.334 9.5 -65.001 28.5s-25 34.5 -25 46.5h-2c-6.66699 -12.667 -21.5 -27.667 -44.5 -45s-48.167 -27 -75.5 -29
c-24 -0.666992 -46.833 8.5 -68.5 27.5s-32.5 52.833 -32.5 101.5c0 21.333 4.5 46.166 13.5 74.499s21.5 56.166 37.5 83.499s37 50.333 63 69s54 28 84 28c36 0 63 -17.333 81 -52h2z" />
    <glyph glyph-name="A" unicode="A" horiz-adv-x="667" 
d="M11 0v18h13c32 2.66699 54.667 22.667 68 60l232 642h15l268 -702h49v-18h-298v18h80l-73 208h-194l-48 -141c-4.66699 -12.667 -7 -22.667 -7 -30c0 -24.667 16 -37 48 -37h28v-18h-181zM179 244h178l-87 253h-2z" />
    <glyph glyph-name="B" unicode="B" horiz-adv-x="667" 
d="M36 0v18h67v668h-67v18h319c62.667 0 117.167 -14.167 163.5 -42.5s69.5 -69.5 69.5 -123.5c0 -49.333 -20.333 -87.166 -61 -113.499s-88.667 -41.833 -144 -46.5v-2c71.333 0 130 -16.167 176 -48.5s69 -77.5 69 -135.5c0 -56.667 -24.833 -102.834 -74.5 -138.501
s-119.5 -53.5 -209.5 -53.5h-308zM259 362v-343.999h46c51.333 0 90 13.833 116 41.5s39 71.5 39 131.5c0 53.333 -12.333 95.166 -37 125.499s-59 45.5 -103 45.5h-61zM259 686.001l0.000976562 -305.998h54c34 0 63.333 11.667 88 35s37 58.666 37 105.999
c0 57.333 -10.333 99.166 -31 125.499s-52.334 39.5 -95.001 39.5h-53z" />
    <glyph glyph-name="C" unicode="C" horiz-adv-x="667" 
d="M605 699l-0.00292969 -236.001h-18c-8.66699 57.333 -33.5 111.5 -74.5 162.5s-87.833 76.5 -140.5 76.5s-92.667 -27.5 -120 -82.5s-41 -144.167 -41 -267.5c0 -122.667 12.167 -211.667 36.5 -267s64.833 -83 121.5 -83c30.667 0 59.334 7 86.001 21
s48.834 31.833 66.501 53.5s32 44.167 43 67.5s18.5 45.666 22.5 66.999l6 34h15v-245h-15c-7.33301 27.333 -19.666 41 -36.999 41c-7.33301 0 -19.333 -4.66699 -36 -14s-39 -18.833 -67 -28.5s-59.333 -14.5 -94 -14.5c-63.333 0 -119.5 17.333 -168.5 52
s-85.833 78.834 -110.5 132.501s-37 110.834 -37 171.501s12.833 119.667 38.5 177s64.167 105.5 115.5 144.5s109.666 58.5 174.999 58.5c26.667 0 60.834 -8.5 102.501 -25.5s68.167 -25.5 79.5 -25.5c21.333 0 32.333 10 33 30h18z" />
    <glyph glyph-name="D" unicode="D" horiz-adv-x="778" 
d="M35 0l0.000976562 17.999h81v668h-81v18h345c106 0 191.667 -32.167 257 -96.5s98 -151.166 98 -260.499c0 -27.333 -3.33301 -55.5 -10 -84.5s-18.334 -59.5 -35.001 -91.5s-37.667 -60.5 -63 -85.5s-58.833 -45.5 -100.5 -61.5s-88.5 -24 -140.5 -24h-351z
M272.001 685.999l-0.000976562 -668h83c32 0 60 4 84 12s43.5 20.333 58.5 37s27.333 34.5 37 53.5s16.834 42.5 21.501 70.5s7.66699 54 9 78s2 53 2 87c0 36 -0.666992 66.5 -2 91.5s-4.33301 51.167 -9 78.5s-11.5 49.833 -20.5 67.5s-20.667 34 -35 49
s-32.5 26 -54.5 33s-48 10.5 -78 10.5h-96z" />
    <glyph glyph-name="E" unicode="E" horiz-adv-x="667" 
d="M22 0l-0.000976562 18h81v668h-81v18h559v-199h-18v14c0 47.333 -16.667 87 -50 119s-78.666 48 -135.999 48h-118v-306h69c33.333 0 58.166 10.333 74.499 31s24.5 54.334 24.5 101.001v11h18v-316h-18v23c0 37.333 -8.66699 68.666 -26 93.999s-41.666 38 -72.999 38
h-69v-344h144c31.333 0 58.833 5 82.5 15s42 22.167 55 36.5s23.5 30.833 31.5 49.5s13.167 35.167 15.5 49.5s3.5 28.5 3.5 42.5v14h18v-225h-587z" />
    <glyph glyph-name="F" unicode="F" horiz-adv-x="611" 
d="M27 0l0.000976562 18h81v668h-81v18h570v-199h-18v16c0 46 -18.833 85 -56.5 117s-90.167 48 -157.5 48h-101v-306h57c84.667 0 127 41.667 127 125v18h18v-316h-18v18c0 47.333 -10.833 82 -32.5 104s-56.834 33 -105.501 33h-46v-344h100v-18h-337z" />
    <glyph glyph-name="G" unicode="G" horiz-adv-x="722" 
d="M641 220l-0.00292969 -151c-68.667 -56.667 -156.667 -85 -264 -85c-92.667 0 -171.5 33.667 -236.5 101s-97.5 152.333 -97.5 255c0 110 31.167 200.833 93.5 272.5s138.5 107.5 228.5 107.5c26.667 0 54.167 -4.33301 82.5 -13s52.5 -17.5 72.5 -26.5
s33 -13.5 39 -13.5c20 0 30 10.667 30 32h18v-230h-18c-7.33301 64 -30.166 118.833 -68.499 164.5s-87.833 68.5 -148.5 68.5c-107.333 0 -161 -116.667 -161 -350c0 -60.667 2.66699 -112.5 8 -155.5s12.5 -77 21.5 -102s20.833 -44.5 35.5 -58.5
s29.334 -23.167 44.001 -27.5s32.667 -6.5 54 -6.5c34.667 0 62.834 9 84.501 27s32.5 44.667 32.5 80v111h-74v18h282v-18h-58z" />
    <glyph glyph-name="H" unicode="H" horiz-adv-x="778" 
d="M22 0v18h81v668h-81v18h318v-18h-81v-306h260v306h-81v18h318v-18h-81v-668h81v-18h-318v18h81v344h-260v-344h81v-18h-318z" />
    <glyph glyph-name="I" unicode="I" horiz-adv-x="390" 
d="M36 0v18h81v668h-81v18h318v-18h-81v-668h81v-18h-318z" />
    <glyph glyph-name="J" unicode="J" horiz-adv-x="444" 
d="M71 686l-0.000976562 18.001h337v-18h-81v-601c0 -44.667 -18.167 -84.334 -54.5 -119.001s-80.5 -52 -132.5 -52c-40 0 -72.333 10.333 -97 31s-37 43.334 -37 68.001c0 20.667 6.33301 38.5 19 53.5s29.334 22.5 50.001 22.5c18.667 0 33.834 -5.83301 45.501 -17.5
s17.5 -26.5 17.5 -44.5c0 -17.333 -4.83301 -30.5 -14.5 -39.5s-19.334 -15.5 -29.001 -19.5s-14.5 -8 -14.5 -12c0 -6.66699 5.33301 -12.334 16 -17.001s23 -7 37 -7c46.667 0 70 28.667 70 86c0 20.667 -5.33301 45 -16 73s-16 55.667 -16 83v512h-100z" />
    <glyph glyph-name="K" unicode="K" horiz-adv-x="778" 
d="M36 0l0.000976562 18h81v668h-81v18h328v-18h-91v-311l228 228c30 28.667 45 49 45 61c0 14.667 -17.333 22 -52 22h-18v18h256v-18h-26c-56.667 0 -111.334 -25.667 -164.001 -77l-143 -142l295 -449h72v-18h-335v18h78l-221 343l-15 -14v-329h85v-18h-322z" />
    <glyph glyph-name="L" unicode="L" horiz-adv-x="667" 
d="M27 0v18h81v668h-81v18h327v-18h-90v-668h115c82.667 0 139.5 17.5 170.5 52.5s46.5 84.833 46.5 149.5v20h18v-240h-587z" />
    <glyph glyph-name="M" unicode="M" horiz-adv-x="889" 
d="M22 0l-0.000976562 18h4c30.667 0 51.167 7.83301 61.5 23.5s15.5 36.5 15.5 62.5v582h-76v18h256l166 -483h2l169 483h241v-18h-75v-668h75v-18h-317v18h86v650h-2l-233 -668h-27l-239 680h-2v-567c0 -38.667 5.33301 -64.167 16 -76.5s30.334 -18.5 59.001 -18.5h14
v-18h-194z" />
    <glyph glyph-name="N" unicode="N" horiz-adv-x="722" 
d="M16 0v18h7h11c18.667 0 33.334 5 44.001 15s16 29 16 57v537l-44 59h-31v18h206l377 -485h2v410c0 38 -22.667 57 -68 57h-19v18h189v-18h-14c-20.667 0 -36.5 -5.5 -47.5 -16.5s-16.5 -23.5 -16.5 -37.5v-644h-42l-466 608h-2v-511c0 -27.333 5.66699 -45.333 17 -54
s31.666 -13 60.999 -13h9v-18h-189z" />
    <glyph glyph-name="O" unicode="O" horiz-adv-x="722" 
d="M43 352c0 100.667 29.998 187.167 89.998 259.5s136 108.5 228 108.5s168 -36.167 228 -108.5s90 -158.833 90 -259.5c2 -94.667 -28.667 -179.667 -92 -255s-138.666 -113 -225.999 -113s-162.666 37.667 -225.999 113s-94 160.333 -92 255zM360.998 2
c57.333 0 96.6699 26 118.003 78s32 142.667 32 272c0 61.333 -2.83301 113.833 -8.5 157.5s-12.834 77.834 -21.501 102.501s-20 43.834 -34 57.501s-27.5 22.5 -40.5 26.5s-28.167 6 -45.5 6s-32.5 -2 -45.5 -6s-26.5 -12.833 -40.5 -26.5s-25.333 -32.834 -34 -57.501
s-15.834 -58.834 -21.501 -102.501s-8.5 -96.167 -8.5 -157.5c0 -129.333 10.667 -220 32 -272s60.666 -78 117.999 -78z" />
    <glyph glyph-name="P" unicode="P" horiz-adv-x="667" 
d="M264 686v-347c13.333 -3.33301 27.333 -5 42 -5c58.667 0 101.167 14.333 127.5 43s39.5 73 39.5 133c0 66.667 -8.33301 112.667 -25 138s-51 38 -103 38h-81zM27 0v18h81v668h-81v18h357c171.333 0 257 -62.667 257 -188c0 -59.333 -25.667 -107.5 -77 -144.5
s-115.333 -55.5 -192 -55.5c-45.333 0 -81.333 1.33301 -108 4v-302h99v-18h-336z" />
    <glyph glyph-name="Q" unicode="Q" horiz-adv-x="722" 
d="M427 -6l-0.000976562 -94.002c0 -62.667 25.333 -94 76 -94c29.333 0 57 7.66699 83 23l7 -17c-39.333 -20 -87.666 -30 -144.999 -30c-21.333 0 -43 3 -65 9s-43.167 18.333 -63.5 37s-30.5 42 -30.5 70v96c-71.333 20.667 -130.5 65.334 -177.5 134.001
s-69.833 143.334 -68.5 224.001c0 100.667 30 187.167 90 259.5s136 108.5 228 108.5s168 -36.167 228 -108.5s90 -158.833 90 -259.5c1.33301 -82 -22.167 -157.5 -70.5 -226.5s-108.833 -112.833 -181.5 -131.5zM360.999 1.99805c57.333 0 96.6699 26 118.003 78
s32 142.667 32 272c0 61.333 -2.83301 113.833 -8.5 157.5s-12.834 77.834 -21.501 102.501s-20 43.834 -34 57.501s-27.5 22.5 -40.5 26.5s-28.167 6 -45.5 6s-32.5 -2 -45.5 -6s-26.5 -12.833 -40.5 -26.5s-25.333 -32.834 -34 -57.501s-15.834 -58.834 -21.501 -102.501
s-8.5 -96.167 -8.5 -157.5c0 -129.333 10.667 -220 32 -272s60.666 -78 117.999 -78z" />
    <glyph glyph-name="R" unicode="R" horiz-adv-x="722" 
d="M264 686l-0.000976562 -310.999h56c56.667 2.66699 94.667 16.667 114 42s28.333 69.666 27 132.999c0 30.667 -2.33301 55.167 -7 73.5s-12.667 32 -24 41s-23.666 14.833 -36.999 17.5s-32 4 -56 4h-73zM26.999 0.000976562v17.9971h81v668h-81v18h314
c192 0 288 -55 288 -165c0 -28.667 -7.33301 -54 -22 -76s-34.167 -39.167 -58.5 -51.5s-49.166 -21.666 -74.499 -27.999s-52 -10.5 -80 -12.5v-2c145.333 -12.667 219 -71.667 221 -177c0.666992 -52 3 -90.333 7 -115s9.5 -40.334 16.5 -47.001s17.833 -10 32.5 -10
c10.667 0 22.667 4.33301 36 13l7 -15c-30.667 -22.667 -71.334 -34 -122.001 -34c-50 0 -84.667 15.833 -104 47.5s-29 77.834 -29 138.501c0 53.333 -5 93.333 -15 120s-24.333 44.334 -43 53.001s-46.667 13.334 -84 14.001h-53v-339h84v-18h-321z" />
    <glyph glyph-name="S" unicode="S" horiz-adv-x="611" 
d="M60 -1v266.002h18c6.66699 -30.667 16.167 -60.5 28.5 -89.5s28 -57 47 -84s42.333 -48.667 70 -65s57.5 -24.5 89.5 -24.5c43.333 0 78.166 12.667 104.499 38s39.5 59.666 39.5 102.999c0 29.333 -7.33301 53.5 -22 72.5s-33.667 33.167 -57 42.5
s-49.166 17.333 -77.499 24s-56.833 14.5 -85.5 23.5s-54.667 20.333 -78 34s-42.333 34.5 -57 62.5s-22 62.333 -22 103c0 65.333 20 117.5 60 156.5s93.333 58.5 160 58.5c29.333 0 55.5 -4.5 78.5 -13.5s42.5 -18 58.5 -27s29.667 -13.5 41 -13.5c21.333 0 32 13 32 39
h18v-225h-18c-34.667 148 -103.667 222 -207 222c-38.667 0 -70.5 -11.833 -95.5 -35.5s-37.5 -54.5 -37.5 -92.5c0 -26 7.5 -47.167 22.5 -63.5s34.333 -28.5 58 -36.5s49.834 -14.833 78.501 -20.5s57.5 -12.667 86.5 -21s55.333 -19.333 79 -33s43 -34.334 58 -62.001
s22.5 -61.5 22.5 -101.5c0 -78 -20.5 -139.5 -61.5 -184.5s-96.833 -67.5 -167.5 -67.5c-32.667 0 -73.334 8.66699 -122.001 26s-77.667 26 -87 26c-24.667 0 -37 -12.333 -37 -37h-18z" />
    <glyph glyph-name="T" unicode="T" horiz-adv-x="668" 
d="M163 0l-0.00195312 18h93v668h-41c-59.333 0 -101.666 -17.5 -126.999 -52.5s-42.333 -84.5 -51 -148.5h-18v219h630v-219h-18c-8.66699 64 -25.667 113.5 -51 148.5s-67.666 52.5 -126.999 52.5h-41v-668h93v-18h-342z" />
    <glyph glyph-name="U" unicode="U" horiz-adv-x="722" 
d="M16 686l-0.000976562 17.999h315v-18h-81v-440c0 -72.667 12.333 -128.5 37 -167.5s70.667 -58.5 138 -58.5c51.333 0 94 17.5 128 52.5s51 84.833 51 149.5v380c0 30 -5 51.5 -15 64.5s-27.333 19.5 -52 19.5h-29v18h198v-18h-26c-34.667 0 -52 -28 -52 -84v-374
c0 -76.667 -21.667 -136.5 -65 -179.5s-109.666 -64.5 -198.999 -64.5c-82 0 -147.5 22.333 -196.5 67s-73.5 105.334 -73.5 182.001v453h-78z" />
    <glyph glyph-name="V" unicode="V" horiz-adv-x="722" 
d="M11 686l0.000976562 18h336v-18h-97l186 -500l147 399c8 22.667 12 44 12 64c0 24.667 -16.333 37 -49 37h-26v18h191v-18h-16c-16 0 -30.333 -7.16699 -43 -21.5s-28.334 -46.5 -47.001 -96.5l-220 -584h-40l-263 702h-71z" />
    <glyph glyph-name="W" unicode="W" horiz-adv-x="1000" 
d="M85 686h-66v18h289v-18h-60l156 -470h2l86 269l-65 201h-72v18h310v-18h-78l152 -473h2l114 359c11.333 35.333 17 59.333 17 72c0 28 -22.667 42 -68 42h-7v18h184v-18h-9c-35.333 0 -64 -32.667 -86 -98l-202 -604h-24l-155 468h-2l-155 -468h-25z" />
    <glyph glyph-name="X" unicode="X" horiz-adv-x="778" 
d="M14 0v18h16c20 0 38.833 5.33301 56.5 16s30.667 21.167 39 31.5s21.5 27.833 39.5 52.5l153 216l-220 352h-72v18h334v-18h-78l132 -210l90 130c18 25.333 27 44.666 27 57.999c0 14.667 -17.333 22 -52 22h-15v18h203v-18h-16c-22 0 -42 -6.66699 -60 -20
s-40 -38.333 -66 -75l-97 -139l272 -434h64v-18h-339v18h90l-184 295l-151 -223c-12 -17.333 -18 -31.666 -18 -42.999c0 -19.333 19 -29 57 -29h26v-18h-231z" />
    <glyph glyph-name="Y" unicode="Y" horiz-adv-x="667" 
d="M193 0v18.001h77v227l-194 441h-66v18h308v-18h-72l165 -378l119 270c13.333 32 20 55 20 69c0 13.333 -4.5 23.166 -13.5 29.499s-24.5 9.5 -46.5 9.5h-13v18h180v-18h-7c-18 0 -33.5 -6.66699 -46.5 -20s-26.833 -38 -41.5 -74l-136 -305v-269h77v-18h-310z" />
    <glyph glyph-name="Z" unicode="Z" horiz-adv-x="667" 
d="M20 0l-0.000976562 17.999l407 668h-160c-115.333 -1.33301 -179.666 -67.666 -192.999 -198.999h-19l14 217h536v-18l-405 -668h151c47.333 0.666992 86.833 6.5 118.5 17.5s56 27.167 73 48.5s29.333 43.5 37 66.5s13.5 51.833 17.5 86.5h21l-18 -237h-580z" />
    <glyph glyph-name="bracketleft" unicode="[" horiz-adv-x="333" 
d="M319 -239h-189v968h189v-36h-129v-896h129v-36z" />
    <glyph glyph-name="backslash" unicode="\" horiz-adv-x="389" 
d="M99 720l276 -736h-85l-276 736h85z" />
    <glyph glyph-name="bracketright" unicode="]" horiz-adv-x="333" 
d="M14 729h189v-968h-189v36h129v896h-129v36z" />
    <glyph glyph-name="asciicircum" unicode="^" horiz-adv-x="600" 
d="M185 339h-89l178 365h80l178 -365h-89l-129 275z" />
    <glyph glyph-name="underscore" unicode="_" horiz-adv-x="500" 
d="M500 -125h-500v50h500v-50z" />
    <glyph glyph-name="grave" unicode="`" horiz-adv-x="278" 
d="M108 665l73 -149h-13l-131 139c-16 16.667 -24 30 -24 40c0 16.667 12.667 25 38 25c14.667 0 24.667 -2.83301 30 -8.5s14.333 -21.167 27 -46.5z" />
    <glyph glyph-name="a" unicode="a" 
d="M460 310l-0.000976562 -230.003c0 -33.333 7.66699 -50 23 -50c11.333 0 20 5.66699 26 17s9 24.333 9 39h18c0 -29.333 -9.66699 -53 -29 -71s-45.333 -27 -78 -27c-48.667 0 -82 21 -100 63c-12 -21.333 -31.167 -37.166 -57.5 -47.499s-51.833 -15.5 -76.5 -15.5
c-42.667 0 -79.167 10.167 -109.5 30.5s-45.5 50.833 -45.5 91.5c0 24.667 5.33301 45.834 16 63.501s25.834 31.167 45.501 40.5s39.5 16.333 59.5 21s43 8 69 10l98 8v84c0 34 -5.5 58.667 -16.5 74s-33.833 23 -68.5 23c-21.333 0 -42 -2.5 -62 -7.5
s-29.667 -12.5 -29 -22.5c0 -4 4.33301 -8 13 -12s17.167 -9.83301 25.5 -17.5s12.5 -18.5 12.5 -32.5c0 -18 -5.5 -32.5 -16.5 -43.5s-25.833 -16.5 -44.5 -16.5c-21.333 0 -37.5 6.16699 -48.5 18.5s-16.5 27.833 -16.5 46.5c0 28.667 16.5 53.334 49.5 74.001
s74.167 31 123.5 31c140 0 210 -47.333 210 -142zM327.999 118.997l0.000976562 116.001l-79 -8c-30 -3.33301 -49.333 -12.333 -58 -27s-13 -37.334 -13 -68.001c0 -16.667 0.666992 -30.167 2 -40.5s4 -22 8 -35s11.167 -22.667 21.5 -29s23.5 -9.5 39.5 -9.5
c22.667 0 41.167 9.83301 55.5 29.5s22.166 43.5 23.499 71.5z" />
    <glyph glyph-name="b" unicode="b" horiz-adv-x="611" 
d="M16 0l0.000976562 18h69v668h-69v18h63c30.667 0 53.167 0.333008 67.5 1s29.333 3.33398 45 8.00098s26.167 12 31.5 22v-361h2c27.333 52 70.333 78 129 78c33.333 0 66 -7.83301 98 -23.5s59.833 -42 83.5 -79s35.5 -80.833 35.5 -131.5
c0 -22.667 -4.66699 -46.834 -14 -72.501s-22.5 -50.5 -39.5 -74.5s-39.833 -43.833 -68.5 -59.5s-60.334 -23.5 -95.001 -23.5c-29.333 0 -56.333 7.66699 -81 23s-42.334 37 -53.001 65h-2v-88c-6 4.66699 -20 8 -42 10c-13.333 1.33301 -38.666 2 -75.999 2h-84z
M223.001 302l-0.000976562 -153.998c0 -42 11 -75.167 33 -99.5s47 -36.5 75 -36.5c30 0 52.5 10.167 67.5 30.5s22.5 55.166 22.5 104.499v126c0 60 -7.66699 101.833 -23 125.5s-36.666 35.5 -63.999 35.5c-32 0 -58.5 -14.333 -79.5 -43s-31.5 -58.334 -31.5 -89.001z
" />
    <glyph glyph-name="c" unicode="c" horiz-adv-x="500" 
d="M40 218c0 60 24.833 113.998 74.5 161.998s107.167 72 172.5 72c24.667 0 49.667 -3.83301 75 -11.5s47.833 -20.667 67.5 -39s29.5 -40.5 29.5 -66.5c0 -19.333 -6.33301 -35.666 -19 -48.999s-30.667 -20 -54 -20c-20 0 -35.833 6.5 -47.5 19.5
s-17.5 29.167 -17.5 48.5c0 13.333 3.16699 24.333 9.5 33s12.666 15.667 18.999 21s9.5 10 9.5 14c0 8.66699 -6.5 16.167 -19.5 22.5s-30.5 9.5 -52.5 9.5c-36 0 -61.167 -11.167 -75.5 -33.5s-21.5 -61.166 -21.5 -116.499v-114c0 -63.333 8 -106.5 24 -129.5
s41 -34.5 75 -34.5c42.667 0 79.334 13.5 110.001 40.5s48 59.167 52 96.5h18c-5.33301 -46.667 -25.166 -84.167 -59.499 -112.5s-77.5 -42.5 -129.5 -42.5c-66.667 0 -123.334 21.833 -170.001 65.5s-70 98.5 -70 164.5z" />
    <glyph glyph-name="d" unicode="d" horiz-adv-x="611" 
d="M296 686l-0.000976562 17.998h77c30.667 0 53.167 0.333008 67.5 1s29.333 3.33398 45 8.00098s26.167 12 31.5 22v-717h69v-18h-69c-68.667 0 -114.667 -4 -138 -12v73h-2c-26 -48.667 -68 -73 -126 -73c-54 0 -102.667 20.833 -146 62.5s-65 95.5 -65 161.5
c0 66.667 19.333 123.334 58 170.001s90.334 70 155.001 70c58.667 0 100 -25.667 124 -77h2v311h-83zM378.999 131.998v175.001c0 30.667 -10 58.5 -30 83.5s-46 37.5 -78 37.5c-54 0 -81 -41.333 -81 -124v-144c0 -51.333 6.66699 -88.833 20 -112.5s35 -35.5 65 -35.5
c31.333 0 56.5 12.167 75.5 36.5s28.5 52.166 28.5 83.499z" />
    <glyph glyph-name="e" unicode="e" horiz-adv-x="500" 
d="M466 242l-276 -0.000976562v-84c0 -20 1.16699 -37.333 3.5 -52s6.66602 -29.834 12.999 -45.501s16.833 -27.667 31.5 -36s33 -12.5 55 -12.5c38.667 0 71.834 13.5 99.501 40.5s47.167 63.833 58.5 110.5h18c-26 -116.667 -94.667 -175 -206 -175
c-64 0 -117.167 21.5 -159.5 64.5s-63.5 97.167 -63.5 162.5c0 66.667 21.667 122.834 65 168.501s95 68.5 155 68.5c52 0.666992 99.167 -20.666 141.5 -63.999s63.833 -92 64.5 -146zM190 259.999h126.001v86c0 29.333 -4.83301 51.333 -14.5 66s-25.834 22 -48.501 22
c-42 0 -63 -29.333 -63 -88v-86z" />
    <glyph glyph-name="f" unicode="f" horiz-adv-x="334" 
d="M223 422l-0.000976562 -404.001h69v-18h-276v18h69v404h-69v18h69c0 31.333 3.66699 62.5 11 93.5s18.333 60.833 33 89.5s35 52 61 70s56 27 90 27c30.667 0 56.334 -9.16699 77.001 -27.5s31 -40.833 31 -67.5c0 -21.333 -5.83301 -38.166 -17.5 -50.499
s-26.167 -18.5 -43.5 -18.5c-18.667 0 -33.167 5.33301 -43.5 16s-15.5 24 -15.5 40c0 14 5.16699 27.667 15.5 41s15.5 22.333 15.5 27c0 14.667 -9.66699 22 -29 22c-18 0 -33.167 -7.66699 -45.5 -23s-18.5 -37 -18.5 -65c0 -19.333 2.83301 -48 8.5 -86
s8.5 -67.333 8.5 -88h76v-18h-76z" />
    <glyph glyph-name="g" unicode="g" horiz-adv-x="500" 
d="M137 90l165.997 -0.00488281c97.333 2 146 -44.333 146 -139c0 -62 -21.167 -113.5 -63.5 -154.5s-97.833 -61.5 -166.5 -61.5c-55.333 0 -102.166 12.667 -140.499 38s-57.5 56.333 -57.5 93c0 22.667 8.83301 43.334 26.5 62.001s37.5 31 59.5 37v2
c-43.333 12.667 -65 46 -65 100c0 37.333 10.333 65 31 83s43.667 28.667 69 32v2c-55.333 25.333 -83 66 -83 122c0 43.333 17.833 78.5 53.5 105.5s75.834 40.5 120.501 40.5c50 0 91.667 -12 125 -36c25.333 29.333 51 44 77 44c16.667 0 32.167 -4.83301 46.5 -14.5
s21.5 -22.5 21.5 -38.5c0 -14 -4.5 -26 -13.5 -36s-21.167 -15 -36.5 -15c-14 0 -25.167 4.5 -33.5 13.5s-12.5 19.833 -12.5 32.5c0 20 9 34.667 27 44v2c-9.33301 -1.33301 -17.5 -3.66602 -24.5 -6.99902s-12.333 -6.66602 -16 -9.99902s-8.16699 -8.16602 -13.5 -14.499
s-9.33301 -10.833 -12 -13.5c13.333 -11.333 23.833 -26.666 31.5 -45.999s11.5 -37.666 11.5 -54.999c0 -44.667 -18 -79.834 -54 -105.501s-77.333 -38.5 -124 -38.5c-15.333 0 -29 2 -41 6c-14.667 4 -25.667 6 -33 6c-19.333 0 -37.666 -5.5 -54.999 -16.5
s-26 -22.833 -26 -35.5c0 -18.667 19.667 -28 59 -28zM279.997 -36.0049l-156.999 -0.000976562c-28 -30 -42 -64 -42 -102c1.33301 -26.667 14.666 -51.5 39.999 -74.5s59 -34.5 101 -34.5c50 0 94.333 14.333 133 43s58 61.334 58 98.001c0 29.333 -9 48.333 -27 57
s-53.333 13 -106 13zM233.998 175.994c10.667 0 19.168 1.16797 25.501 3.50098s12.666 7.5 18.999 15.5s11 21 14 39s4.5 42 4.5 72c-0.666992 55.333 -5.16699 90.5 -13.5 105.5s-24.833 22.5 -49.5 22.5s-41 -9.83301 -49 -29.5s-12 -51.5 -12 -95.5
c0 -38.667 2.5 -67.834 7.5 -87.501s11.333 -32.167 19 -37.5s19.167 -8 34.5 -8z" />
    <glyph glyph-name="h" unicode="h" horiz-adv-x="611" 
d="M16 0v17.998h69v668h-69v18h63c30.667 0 53.167 0.333008 67.5 1s29.333 3.33398 45 8.00098s26.167 11.667 31.5 21v-375h2c13.333 28.667 34.833 51.334 64.5 68.001s61.5 25 95.5 25c48 0 83.5 -12.5 106.5 -37.5s34.5 -64.167 34.5 -117.5v-279h69v-18h-264v18h57
v316c0 54.667 -19.667 82 -59 82c-26.667 0 -51 -13.833 -73 -41.5s-33 -55.167 -33 -82.5v-274h59v-18h-266z" />
    <glyph glyph-name="i" unicode="i" horiz-adv-x="334" 
d="M29 0v18h69v404h-69v18h71c76.667 0 122 8.66699 136 26v-448h69v-18h-276zM86 619c0 22.667 7.83301 41.834 23.5 57.501s34.834 23.5 57.501 23.5s41.834 -7.83301 57.501 -23.5s23.5 -34.834 23.5 -57.501s-7.83301 -41.834 -23.5 -57.501
s-34.834 -23.5 -57.501 -23.5s-41.834 7.83301 -57.501 23.5s-23.5 34.834 -23.5 57.501z" />
    <glyph glyph-name="j" unicode="j" horiz-adv-x="334" 
d="M98 422h-68.9961v18h71c76.667 0 122 8.66699 136 26v-525c0 -61.333 -16.833 -111 -50.5 -149s-73.834 -57 -120.501 -57c-28.667 0 -50.667 6.5 -66 19.5s-23 30.167 -23 51.5c0 16 5.66699 29.333 17 40s24.666 16 39.999 16c17.333 0 31.166 -5.83301 41.499 -17.5
s15.5 -26.167 15.5 -43.5c0 -12 -5 -25 -15 -39c3.33301 -2 7.66602 -3 12.999 -3c14 0 24.5 5.83301 31.5 17.5s10.5 23.834 10.5 36.501c0 17.333 -5.33301 45.666 -16 84.999s-16 78 -16 116v408zM86.0039 619c0 22.667 7.83301 41.834 23.5 57.501
s34.834 23.5 57.501 23.5s41.834 -7.83301 57.501 -23.5s23.5 -34.834 23.5 -57.501s-7.83301 -41.834 -23.5 -57.501s-34.834 -23.5 -57.501 -23.5s-41.834 7.83301 -57.501 23.5s-23.5 34.834 -23.5 57.501z" />
    <glyph glyph-name="k" unicode="k" horiz-adv-x="611" 
d="M16 0v17.999h69v668h-69v18h63c30.667 0 53.167 0.333008 67.5 1s29.333 3.33398 45 8.00098s26.167 12 31.5 22v-498l107 85c54.667 43.333 82 71 82 83c0 11.333 -14.333 17 -43 17h-25v18h218v-18h-10c-36.667 0 -75 -14.667 -115 -44l-85 -62l187 -298h60v-18h-279
v18h60l-129 218l-28 -21v-197h52v-18h-259z" />
    <glyph glyph-name="l" unicode="l" horiz-adv-x="334" 
d="M29 0v17.999h69v668h-69v18h63c30.667 0 53.167 0.333008 67.5 1s29.333 3.33398 45 8.00098s26.167 11.667 31.5 21v-716h69v-18h-276z" />
    <glyph glyph-name="m" unicode="m" horiz-adv-x="888" 
d="M85 18l0.00195312 404h-69v18h71c76.667 0 122 8.66699 136 26v-107h2c13.333 28.667 34.833 51.334 64.5 68.001s61.5 25 95.5 25c30 0 56.5 -7.83301 79.5 -23.5s39.167 -38.834 48.5 -69.501c16 30 38.167 53 66.5 69s59.5 24 93.5 24c86.667 0 130 -51.667 130 -155
v-279h69v-18h-260v18h53v309c0 31.333 -3.33301 54 -10 68s-19 21 -37 21c-28.667 0 -53.334 -14.167 -74.001 -42.5s-31 -55.5 -31 -81.5v-274h55v-18h-249v18h56v309c0 31.333 -3.33301 54 -10 68s-19 21 -37 21c-28.667 0 -53.334 -14.167 -74.001 -42.5
s-31 -55.5 -31 -81.5v-274h52v-18h-259v18h69z" />
    <glyph glyph-name="n" unicode="n" horiz-adv-x="611" 
d="M16 0v17.999h69v404h-69v18h71c76.667 0 122 8.66699 136 26v-107h2c13.333 28.667 34.833 51.334 64.5 68.001s61.5 25 95.5 25c48 0 83.5 -12.5 106.5 -37.5s34.5 -64.167 34.5 -117.5v-279h69v-18h-264v18h57v316c0 54.667 -19.667 82 -59 82
c-26.667 0 -51 -13.833 -73 -41.5s-33 -55.167 -33 -82.5v-274h59v-18h-266z" />
    <glyph glyph-name="o" unicode="o" 
d="M40 220c0 67.333 22.833 122.833 68.5 166.5s102.167 65.5 169.5 65.5s123.833 -21.833 169.5 -65.5s68.5 -99.167 68.5 -166.5s-22.833 -122.833 -68.5 -166.5s-102.167 -65.5 -169.5 -65.5s-123.833 21.833 -169.5 65.5s-68.5 99.167 -68.5 166.5zM196 328v-216
c0 -70.667 27.333 -106 82 -106s82 35.333 82 106v216c0 70.667 -27.333 106 -82 106s-82 -35.333 -82 -106z" />
    <glyph glyph-name="p" unicode="p" horiz-adv-x="611" 
d="M16 -265v18.001h69v669h-69v18h63c43.333 0 76.166 1.83301 98.499 5.5s37.5 12.167 45.5 25.5v-96h2c26 51.333 67.333 77 124 77c64.667 0 116.334 -23.333 155.001 -70s58 -103.334 58 -170.001c0 -66 -21.667 -119.833 -65 -161.5s-92 -62.5 -146 -62.5
c-58 0 -100 24.333 -126 73h-2v-308h76v-18h-283zM412 152.001v162c0 35.333 -7 63.166 -21 83.499s-34 30.5 -60 30.5c-32 0 -58 -12.5 -78 -37.5s-30 -52.833 -30 -83.5v-175c0 -31.333 9.5 -59.166 28.5 -83.499s44.167 -36.5 75.5 -36.5c56.667 0 85 46.667 85 140z" />
    <glyph glyph-name="q" unicode="q" horiz-adv-x="611" 
d="M586 -247v-18.001h-283v18h76v308h-2c-26 -48.667 -68 -73 -126 -73c-54 0 -102.667 20.833 -146 62.5s-65 95.5 -65 161.5c0 66.667 19.333 123.334 58 170.001s90.334 70 155.001 70c56.667 0 98 -25.667 124 -77h2v96c8 -13.333 23.167 -21.833 45.5 -25.5
s55.166 -5.5 98.499 -5.5h63v-18h-69v-669h69zM190 313.999v-162c0 -93.333 28.333 -140 85 -140c31.333 0 56.5 12.167 75.5 36.5s28.5 52.166 28.5 83.499v175c0 30.667 -10 58.5 -30 83.5s-46 37.5 -78 37.5c-26 0 -46 -10.167 -60 -30.5s-21 -48.166 -21 -83.499z" />
    <glyph glyph-name="r" unicode="r" horiz-adv-x="444" 
d="M16 0l-0.000976562 17.999h69v404h-69v18h69c76.667 0 122 8.66699 136 26v-102h2c10 26.667 26.833 49 50.5 67s50.834 27 81.501 27c24 0 43.167 -6.83301 57.5 -20.5s21.5 -32.5 21.5 -56.5c0 -20 -6.83301 -37.167 -20.5 -51.5s-32.167 -21.5 -55.5 -21.5
c-20 0 -36.333 6 -49 18s-19 27.667 -19 47c0 22.667 8 42.334 24 59.001h-4c-58 -26 -87 -79 -87 -159v-255h92v-18h-299z" />
    <glyph glyph-name="s" unicode="s" horiz-adv-x="444" 
d="M58 -12l-0.00195312 167.998h18c10 -39.333 29.5 -74.166 58.5 -104.499s61.5 -45.5 97.5 -45.5c28 0 51.333 7.83301 70 23.5s28 36.5 28 62.5c0 21.333 -7.16699 35.833 -21.5 43.5s-41.166 13.834 -80.499 18.501l-34.5 4.5c-7.66699 1 -18.667 3.16699 -33 6.5
s-25.5 7 -33.5 11s-17.333 9.66699 -28 17s-18.834 15.833 -24.501 25.5s-10.5 21.667 -14.5 36s-6 30.5 -6 48.5c0 36.667 13.333 70.667 40 102s63 47 109 47c16.667 0 35.834 -3.66699 57.501 -11s37.167 -11 46.5 -11s16.833 2.16699 22.5 6.5s8.5 9.5 8.5 15.5h15
l6 -142h-16c-32 82.667 -78.667 124 -140 124c-28 0 -50.833 -6.83301 -68.5 -20.5s-26.5 -31.834 -26.5 -54.501c0 -20 7.16699 -34 21.5 -42s37.5 -14.333 69.5 -19c22 -3.33301 37 -5.5 45 -6.5s21 -3.5 39 -7.5s30.333 -7.83301 37 -11.5s15.834 -9.16699 27.501 -16.5
s19.667 -15.5 24 -24.5s8.5 -20.167 12.5 -33.5s6 -28.666 6 -45.999c0 -42.667 -15.167 -80.667 -45.5 -114s-68.5 -50 -114.5 -50c-21.333 0 -44 4 -68 12s-39 12 -45 12c-22 0 -35.667 -8 -41 -24h-18z" />
    <glyph glyph-name="t" unicode="t" horiz-adv-x="334" 
d="M80 422l-53 0.00195312v18c48.667 0 89.667 22 123 66s50 93.667 50 149h18v-215h92v-18h-92v-340c0 -34.667 13 -52 39 -52c16.667 0 34.334 14 53.001 42l13 -7c-30.667 -51.333 -75 -77 -133 -77c-8.66699 0 -18.5 1.66699 -29.5 5s-22.833 8.66602 -35.5 15.999
s-23.334 19.166 -32.001 35.499s-13 35.5 -13 57.5v320z" />
    <glyph glyph-name="u" unicode="u" horiz-adv-x="611" 
d="M319 422l-0.000976562 17.999h71c76.667 0 122 8.66699 136 26v-448h69v-18h-207v84h-2c-13.333 -30 -34.666 -53.5 -63.999 -70.5s-61.333 -25.5 -96 -25.5c-48 0 -83.5 12.5 -106.5 37.5s-34.5 64.167 -34.5 117.5v279h-69v18h71c76.667 0 122 8.66699 136 26v-348
c0 -32 4 -55.667 12 -71s23.333 -23 46 -23c27.333 0 52 14.833 74 44.5s33 60.834 33 93.501v260h-69z" />
    <glyph glyph-name="v" unicode="v" horiz-adv-x="500" 
d="M239 -12l-188 434h-43v18h251v-18h-60l117 -263l68 160c11.333 26.667 17 48.667 17 66c0 24.667 -15.333 37 -46 37h-19v18h156v-18h-9c-21.333 -0.666992 -44.333 -28.667 -69 -84l-148 -350h-27z" />
    <glyph glyph-name="w" unicode="w" horiz-adv-x="778" 
d="M281 440h244v-18h-60l115 -273l67 155c14.667 36.667 22 64 22 82c0 24 -17.667 36 -53 36h-15v18h156v-18h-10c-18 0 -33.667 -15 -47 -45l-170 -389h-27l-121 290l-126 -290h-27l-178 434h-42v18h243v-18h-60l114 -276l67 153l-50 123h-42v18z" />
    <glyph glyph-name="x" unicode="x" 
d="M16 440h260.999v-18h-54l86 -129l33 41c21.333 26 32 46.333 32 61c0 8 -3.5 14.333 -10.5 19s-15.833 7.33398 -26.5 8.00098h-22v18h180v-18h-22c-7.33301 0 -13.833 -0.666992 -19.5 -2s-11.667 -4.5 -18 -9.5l-12.5 -10c-2 -1.66699 -7 -7.16699 -15 -16.5
s-13 -15 -15 -17l-74 -90l173 -259h48v-18h-282v18h72l-100 150l-43 -57c-21.333 -28.667 -32 -50.334 -32 -65.001c0 -20 16.333 -29.333 49 -28h18v-18h-206v18h11c8 0 15.333 0.5 22 1.5s13.334 3.33301 20.001 7s12 6.5 16 8.5s9.5 6.33301 16.5 13
s11.5 11.167 13.5 13.5l15 17.5c8 9.33301 13 15 15 17l73 89l-154 237h-48v18z" />
    <glyph glyph-name="y" unicode="y" horiz-adv-x="500" 
d="M8 422l-0.000976562 17.9971h257v-18h-66l117 -263l58 137c19.333 46 29 76.333 29 91c0 9.33301 -4 17.5 -12 24.5s-19.333 10.5 -34 10.5h-21v18h156v-18h-8c-21.333 0 -42.666 -25 -63.999 -75l-99 -223l-52 -130l-27 -122
c-3.33301 -15.333 -6.66602 -28.333 -9.99902 -39s-9 -24 -17 -40s-18.833 -28.333 -32.5 -37s-29.834 -13 -48.501 -13c-22.667 0 -42 6.66699 -58 20s-24 30 -24 50s5.66699 36.333 17 49s27.666 19 48.999 19c20.667 0 36.834 -5.66699 48.501 -17
s17.5 -25.666 17.5 -42.999c0 -11.333 -1.66699 -22.666 -5 -33.999v-3c14 4 26 23.333 36 58s17 66.334 21 95.001l6 40l-192 445h-42z" />
    <glyph glyph-name="z" unicode="z" horiz-adv-x="500" 
d="M442 200l-0.00195312 -200.001h-410v12l260 410h-57c-29.333 0 -55.166 -5.66699 -77.499 -17s-39.166 -25.333 -50.499 -42s-19.833 -33.167 -25.5 -49.5s-8.5 -31.166 -8.5 -44.499v-13h-18v184h399v-12l-265 -410h66c50 0 90.667 17 122 51s47 71.667 47 113v18h18z
" />
    <glyph glyph-name="braceleft" unicode="{" horiz-adv-x="333" 
d="M124 -87v204c0 36.667 -5.16699 64.334 -15.5 83.001s-30.5 33.667 -60.5 45c30 11.333 50.167 26.333 60.5 45s15.5 46.334 15.5 83.001v204c0 61.333 12.5 102 37.5 122s66.167 30 123.5 30v-18c-38.667 -2.66699 -65.167 -14.334 -79.5 -35.001
s-21.5 -51.667 -21.5 -93v-190c0 -43.333 -5.33301 -76 -16 -98s-32.334 -38.333 -65.001 -49v-2c32.667 -6 54.334 -19.833 65.001 -41.5s16 -55.5 16 -101.5v-194c0 -41.333 7.16699 -72.333 21.5 -93s40.833 -32.334 79.5 -35.001v-18c-57.333 0 -98.5 10 -123.5 30
s-37.5 60.667 -37.5 122z" />
    <glyph glyph-name="bar" unicode="|" horiz-adv-x="222" 
d="M69 -250v1000h84v-1000h-84z" />
    <glyph glyph-name="braceright" unicode="}" horiz-adv-x="333" 
d="M209 577v-204.004c0 -36.667 5.16699 -64.334 15.5 -83.001s30.5 -33.667 60.5 -45c-29.333 -9.33301 -49.333 -23.666 -60 -42.999s-16 -47.666 -16 -84.999v-204c0 -61.333 -12.5 -102 -37.5 -122s-66.167 -30 -123.5 -30v18c38.667 2.66699 65.167 14.334 79.5 35.001
s21.5 51.667 21.5 93v194c0 42 5.33301 73.5 16 94.5s32.334 36.833 65.001 47.5v2c-32.667 6.66699 -54.334 20.834 -65.001 42.501s-16 55.5 -16 101.5v194c0 41.333 -7.16699 72.333 -21.5 93s-40.833 32.334 -79.5 35.001v18c57.333 0 98.5 -10 123.5 -30
s37.5 -60.667 37.5 -122z" />
    <glyph glyph-name="asciitilde" unicode="~" horiz-adv-x="600" 
d="M105 175l-35.998 67.001c14 19.333 25.167 33.833 33.5 43.5s22 19.667 41 30s39.833 15.5 62.5 15.5c30.667 0 66.667 -12 108 -36s73.666 -36 96.999 -36c33.333 0 61.333 24 84 72l36 -69c-10.667 -14.667 -18.834 -25.167 -24.501 -31.5s-14.5 -14.833 -26.5 -25.5
s-25 -18.334 -39 -23.001s-29.667 -7 -47 -7c-28.667 0 -63 12 -103 36s-72 36 -96 36c-37.333 0 -67.333 -24 -90 -72z" />
    <glyph glyph-name="uni00A0" unicode="&#xa0;" horiz-adv-x="278" 
 />
    <glyph glyph-name="exclamdown" unicode="&#xa1;" horiz-adv-x="334" 
d="M155 266h24c0 -45.333 2.33301 -99.333 7 -162c6 -108 31.667 -190.333 77 -247c-53.333 -27.333 -85.333 -68 -96 -122c-10.667 54 -42.667 94.667 -96 122c45.333 56.667 71 139 77 247c4.66699 62.667 7 116.667 7 162zM248 378
c0 -22.667 -7.83301 -41.834 -23.5 -57.501s-34.834 -23.5 -57.501 -23.5s-41.834 7.83301 -57.501 23.5s-23.5 34.834 -23.5 57.501s7.83301 41.834 23.5 57.501s34.834 23.5 57.501 23.5s41.834 -7.83301 57.501 -23.5s23.5 -34.834 23.5 -57.501z" />
    <glyph glyph-name="cent" unicode="&#xa2;" 
d="M293 -83v75.999c-62 4.66699 -113.833 28 -155.5 70s-62.5 93.667 -62.5 155c0 54.667 21.5 105 64.5 151s94.167 72.667 153.5 80v66h30v-63c40.667 0 79.334 -10.167 116.001 -30.5s55 -49.166 55 -86.499c0 -46 -24.333 -69 -73 -69c-20 0 -35.833 6.5 -47.5 19.5
s-17.5 29.167 -17.5 48.5c0 13.333 3.16699 24.333 9.5 33s12.666 15.667 18.999 21s9.5 10 9.5 14c0 8.66699 -6.5 16.167 -19.5 22.5s-30.167 9.5 -51.5 9.5v-425c43.333 0.666992 80.333 14.5 111 41.5s48 59.167 52 96.5h18c-5.33301 -46 -24.333 -83.167 -57 -111.5
s-74 -42.833 -124 -43.5v-75h-30zM293 12.999v418c-23.333 -5.33301 -40.5 -18.333 -51.5 -39s-16.5 -52 -16.5 -94v-137c0 -86.667 22.667 -136 68 -148z" />
    <glyph glyph-name="sterling" unicode="&#xa3;" 
d="M42 298l0.000976562 29.9932h92c-26.667 59.333 -39.667 114.333 -39 165c0.666992 66.667 21.667 119.834 63 159.501s96.333 59.5 165 59.5c49.333 0 91.166 -13.667 125.499 -41s51.5 -62.666 51.5 -105.999c0 -25.333 -6.83301 -45.666 -20.5 -60.999
s-33.167 -23 -58.5 -23c-18.667 0 -33.834 6.16699 -45.501 18.5s-17.5 27.833 -17.5 46.5c0 17.333 5.5 32.833 16.5 46.5s25.5 20.5 43.5 20.5c2.66699 0 6.83398 -0.333008 12.501 -1s9.83398 -1 12.501 -1c10 0 15 4 15 12c0 16 -11.833 30.833 -35.5 44.5
s-50.167 20.5 -79.5 20.5c-35.333 0 -63.5 -12 -84.5 -36s-31.5 -54 -31.5 -90c0 -24 4 -52.667 12 -86s16.833 -64.666 26.5 -93.999s15.167 -47.333 16.5 -54h134v-30h-128c1.33301 -6 2 -18.333 2 -37c0 -33.333 -9.33301 -75 -28 -125
c6.66699 -1.33301 21.667 -4.5 45 -9.5s44.666 -8.66699 63.999 -11s39.666 -3.5 60.999 -3.5c44 0 68.333 25 73 75h18c-1.33301 -24.667 -4.83301 -47.834 -10.5 -69.501s-14 -42.334 -25 -62.001s-26.333 -35.167 -46 -46.5s-42.5 -17 -68.5 -17
c-10 0 -20.333 1.16699 -31 3.5s-19.167 4.33301 -25.5 6s-15.333 5.83398 -27 12.501l-22 12.5c-3 1.66699 -11.5 7.33398 -25.5 17.001s-21.667 14.834 -23 15.501c-1.33301 -1.33301 -5 -5.66602 -11 -12.999l-11 -13.5
c-1.33301 -1.66699 -4.66602 -5.33398 -9.99902 -11.001s-9.33301 -9.16699 -12 -10.5s-6.66699 -3.83301 -12 -7.5s-10.166 -6 -14.499 -7s-9.5 -2 -15.5 -3s-12.333 -1.5 -19 -1.5c-19.333 0 -36.333 6.83301 -51 20.5s-22 29.834 -22 48.501
c0 27.333 8.16699 49.833 24.5 67.5s39.166 26.5 68.499 26.5c12 0 27.833 -1.66699 47.5 -5s31.167 -5.33301 34.5 -6c-3.33301 16 -9 32.833 -17 50.5s-17.667 36.834 -29 57.501s-19.333 36 -24 46h-104zM71.001 58.9932c0 -14 4.00293 -25.666 12.0029 -34.999
s19.333 -14 34 -14c31.333 0 57.666 21.667 78.999 65c-28.667 21.333 -54.334 32 -77.001 32c-12.667 0 -23.834 -4.83301 -33.501 -14.5s-14.5 -20.834 -14.5 -33.501z" />
    <glyph glyph-name="currency" unicode="&#xa4;" 
d="M75 95l-52 53.001l58 58c-32 44 -48 92.667 -48 146s15.667 101.666 47 144.999l-57 57l52 52l57 -57c43.333 34 93 51 149 51c53.333 0 102 -16 146 -48l54 54l52 -52l-54 -54c33.333 -43.333 50 -92.666 50 -147.999c0 -56.667 -17 -106.334 -51 -149.001l54 -54
l-52 -52l-54 55c-42 -32 -90.333 -48 -145 -48c-55.333 0 -104.333 16.667 -147 50zM117 352.001c0 -45.333 16 -84 48 -116s70.667 -48 116 -48s84 16 116 48s48 70.667 48 116s-16 84 -48 116s-70.667 48 -116 48s-84 -16 -116 -48s-48 -70.667 -48 -116z" />
    <glyph glyph-name="yen" unicode="&#xa5;" 
d="M227 18v160h-143v24h143v59l-12 25h-131v24h120l-168 376h-66v18h274v-18h-68l165 -376h2l113 265c13.333 30.667 20 57.667 20 81c0 20 -16.667 30 -50 30h-20v18h180v-18h-14c-18.667 0 -35 -9.16699 -49 -27.5s-28 -43.833 -42 -76.5l-119 -272h140v-24h-143v-84h143
v-24h-143v-160h89v-18h-310v18h89z" />
    <glyph glyph-name="brokenbar" unicode="&#xa6;" horiz-adv-x="222" 
d="M69 -175v350h84v-350h-84zM69 325v350h84v-350h-84z" />
    <glyph glyph-name="section" unicode="&#xa7;" 
d="M485 -53c0 -62.667 -19.167 -113.669 -57.5 -153.002s-89.166 -59 -152.499 -59c-44 0 -82.667 10.5 -116 31.5s-50 51.5 -50 91.5c0 20.667 6.66699 38.5 20 53.5s29.666 22.5 48.999 22.5c20 0 36.167 -6 48.5 -18s18.5 -27 18.5 -45
c0 -16.667 -5.33301 -30.334 -16 -41.001s-23.334 -16 -38.001 -16c-10 0 -19.5 2.16699 -28.5 6.5s-13.833 6.5 -14.5 6.5c-6 0 -9 -3.66699 -9 -11c0 -14.667 14 -28.834 42 -42.501s58 -20.5 90 -20.5c44.667 0 81.5 9.83301 110.5 29.5s43.5 48.5 43.5 86.5
c0 26.667 -12.833 49.334 -38.5 68.001s-56.834 34.5 -93.501 47.5s-73.334 27.5 -110.001 43.5s-67.834 39.5 -93.501 70.5s-38.5 69.167 -38.5 114.5c0 31.333 9.33301 63.166 28 95.499s41.667 58.833 69 79.5c-30.667 26.667 -46 65.334 -46 116.001
c0 58.667 18.5 109.334 55.5 152.001s84.167 64 141.5 64c42.667 0 79.334 -9.83301 110.001 -29.5s46 -47.834 46 -84.501c0 -24 -7.33301 -44.333 -22 -61s-33.334 -25 -56.001 -25c-19.333 0 -35.166 5.83301 -47.499 17.5s-18.5 26.834 -18.5 45.501
s5.5 33.834 16.5 45.501s24.167 17.5 39.5 17.5c12.667 0 24.334 -5.33301 35.001 -16s17.667 -16 21 -16c5.33301 0 8 6.33301 8 19c0 16 -12.167 31.5 -36.5 46.5s-57.166 22.5 -98.499 22.5c-36.667 0 -68.167 -10.167 -94.5 -30.5s-39.5 -48.5 -39.5 -84.5
c0 -31.333 11.833 -57.833 35.5 -79.5s52.334 -39.167 86.001 -52.5l100.5 -41.5c33.333 -14.333 61.833 -34.666 85.5 -60.999s35.5 -58.5 35.5 -96.5c0 -36 -6.5 -67.667 -19.5 -95s-36.5 -58 -70.5 -92c46.667 -27.333 70 -68 70 -122zM463 174.998
c0 28 -15 51.5 -45 70.5s-72.5 39.833 -127.5 62.5s-98.167 45 -129.5 67c-45.333 -28 -68 -61.667 -68 -101c0 -22 11.167 -42.333 33.5 -61s47.666 -33.667 75.999 -45l102 -42c39.667 -16.667 70.834 -32.334 93.501 -47.001c16.667 12 31.667 26.833 45 44.5
s20 34.834 20 51.501z" />
    <glyph glyph-name="dieresis" unicode="&#xa8;" horiz-adv-x="278" 
d="M-11 626c0 17.333 6.16699 32.166 18.5 44.499s27.166 18.5 44.499 18.5s32.166 -6.16699 44.499 -18.5s18.5 -27.166 18.5 -44.499s-6.16699 -32.166 -18.5 -44.499s-27.166 -18.5 -44.499 -18.5s-32.166 6.16699 -44.499 18.5s-18.5 27.166 -18.5 44.499zM163 626
c0 17.333 6.16699 32.166 18.5 44.499s27.166 18.5 44.499 18.5s32.166 -6.16699 44.499 -18.5s18.5 -27.166 18.5 -44.499s-6.16699 -32.166 -18.5 -44.499s-27.166 -18.5 -44.499 -18.5s-32.166 6.16699 -44.499 18.5s-18.5 27.166 -18.5 44.499z" />
    <glyph glyph-name="copyright" unicode="&#xa9;" horiz-adv-x="800" 
d="M551 268h23l-16 -75c0 -1.33301 -0.333008 -2.66602 -1 -3.99902s-1.16699 -2.5 -1.5 -3.5s-1.16602 -2 -2.49902 -3s-2.5 -1.83301 -3.5 -2.5s-2.5 -1.5 -4.5 -2.5s-3.5 -1.66699 -4.5 -2s-2.83301 -1 -5.5 -2s-4.66699 -1.83301 -6 -2.5
c-48 -12.667 -84.333 -19 -109 -19c-67.333 0 -121 17.667 -161 53s-60 87 -60 155c0 23.333 4.16699 46.166 12.5 68.499s21 43.833 38 64.5s40.833 37.334 71.5 50.001s66.334 19 107.001 19c35.333 0 64.666 -4.33301 87.999 -13s36.333 -15.334 39 -20.001
c1.33301 -2 2 -4.66699 2 -8v-73h-24c-12.667 60 -48 90 -106 90c-40.667 0 -71.834 -15.667 -93.501 -47s-32.5 -73.333 -32.5 -126c0 -126 42.667 -189 128 -189c58 0 98.667 30.667 122 92zM116 352c0 -82.667 27.333 -151.667 82 -207s122 -83 202 -83
s147.333 27.667 202 83s82 124.333 82 207s-27.333 151.667 -82 207s-122 83 -202 83s-147.333 -27.667 -202 -83s-82 -124.333 -82 -207zM32 352c0 101.333 36 188 108 260s158.667 108 260 108s188 -36 260 -108s108 -158.667 108 -260s-36 -188 -108 -260
s-158.667 -108 -260 -108s-188 36 -260 108s-108 158.667 -108 260z" />
    <glyph glyph-name="ordfeminine" unicode="&#xaa;" horiz-adv-x="361" 
d="M296 630l-0.00195312 -170.002c0 -14.667 4 -22 12 -22c6 0 10.833 3.66699 14.5 11s5.5 15.333 5.5 24h18c0 -18 -6.16699 -32.333 -18.5 -43s-28.833 -16 -49.5 -16c-36 0 -60 12.667 -72 38c-7.33301 -13.333 -19.666 -23 -36.999 -29s-34 -9 -50 -9
c-31.333 0 -56.5 6 -75.5 18s-28.5 30.333 -28.5 55c0 54 40.333 84.667 121 92l64 6v51c0 20 -3.16699 34.667 -9.5 44s-19.833 14 -40.5 14c-39.333 0 -59 -4.33301 -59 -13c0 -2.66699 2.83301 -4.66699 8.5 -6s11.334 -4.16602 17.001 -8.49902s8.5 -11.166 8.5 -20.499
c0 -10.667 -3.66699 -19.334 -11 -26.001s-17.333 -10 -30 -10c-14 0 -24.667 3.83301 -32 11.5s-11 17.834 -11 30.501c0 40 37.667 60 113 60c94.667 0 142 -27.333 142 -82zM199.998 496.998l-0.000976562 66.999c-36.667 -0.666992 -60.667 -6.66699 -72 -18
s-17 -28.666 -17 -51.999c0 -9.33301 0.333008 -17 1 -23s2.33398 -12.333 5.00098 -19s7 -11.667 13 -15s14 -5 24 -5c12.667 0 23.5 6 32.5 18s13.5 27.667 13.5 47z" />
    <glyph glyph-name="guillemotleft" unicode="&#xab;" horiz-adv-x="500" 
d="M268 394l-116 -141l116 -140l-36 -31l-144 171l144 171zM412 394l-116 -141l116 -140l-36 -31l-144 171l144 171z" />
    <glyph glyph-name="logicalnot" unicode="&#xac;" horiz-adv-x="600" 
d="M469 110v203h-422v84h506v-287h-84z" />
    <glyph glyph-name="uni00AD" unicode="&#xad;" horiz-adv-x="444" 
d="M390 299l-36.999 -92c-12 0 -37.333 0.666992 -76 2s-68.334 2 -89.001 2c-17.333 0 -41.5 -0.666992 -72.5 -2s-51.5 -2 -61.5 -2l37 92c46 -2.66699 98.333 -4 157 -4c32 0 79.333 1.33301 142 4z" />
    <glyph glyph-name="registered" unicode="&#xae;" horiz-adv-x="800" 
d="M230 163v18.001c22 1.33301 35.333 4.5 40 9.5s7 17.167 7 36.5v260c0 19.333 -2.5 31.333 -7.5 36s-18.167 7.66699 -39.5 9v18h162c54.667 0 94.334 -7.83301 119.001 -23.5s37 -40.834 37 -75.501c0 -23.333 -8 -44.833 -24 -64.5s-36.333 -33.5 -61 -41.5l53 -85
c32 -52.667 57.667 -81 77 -85v-12h-84c-10 0 -21.667 11 -35 33l-78 136h-35v-105c0 -20 2.16699 -32.333 6.5 -37s17.166 -7.66699 38.499 -9v-18h-176zM361 526.001v-170h33c42.667 0 64 30.333 64 91c0 52.667 -21 79 -63 79h-34zM116 352.001
c0 -82.667 27.333 -151.667 82 -207s122 -83 202 -83s147.333 27.667 202 83s82 124.333 82 207s-27.333 151.667 -82 207s-122 83 -202 83s-147.333 -27.667 -202 -83s-82 -124.333 -82 -207zM32 352.001c0 101.333 36 188 108 260s158.667 108 260 108s188 -36 260 -108
s108 -158.667 108 -260s-36 -188 -108 -260s-158.667 -108 -260 -108s-188 36 -260 108s-108 158.667 -108 260z" />
    <glyph glyph-name="macron" unicode="&#xaf;" horiz-adv-x="278" 
d="M-21 589v66h320v-66h-320z" />
    <glyph glyph-name="degree" unicode="&#xb0;" horiz-adv-x="400" 
d="M105 569c0 -27.333 9.16699 -50 27.5 -68s40.833 -27 67.5 -27s49.167 9 67.5 27s27.5 40.667 27.5 68s-9.16699 50 -27.5 68s-40.833 27 -67.5 27s-49.167 -9 -67.5 -27s-27.5 -40.667 -27.5 -68zM57 569c0 40 13.833 73.833 41.5 101.5s61.5 41.5 101.5 41.5
s73.833 -13.833 101.5 -41.5s41.5 -61.5 41.5 -101.5s-13.833 -73.833 -41.5 -101.5s-61.5 -41.5 -101.5 -41.5s-73.833 13.833 -101.5 41.5s-41.5 61.5 -41.5 101.5z" />
    <glyph glyph-name="plusminus" unicode="&#xb1;" horiz-adv-x="600" 
d="M258 357v149h84v-149h211v-84h-211v-151h-84v151h-211v84h211zM47 0v84h506v-84h-506z" />
    <glyph glyph-name="two.superior" unicode="&#xb2;" horiz-adv-x="361" 
d="M305 370l10.999 53.002h18c-10 -36.667 -15.667 -82.334 -17 -137.001h-299c23.333 45.333 63.333 92.333 120 141c20.667 18 36.5 32.5 47.5 43.5s21.5 26.667 31.5 47s15 41.833 15 64.5c0 35.333 -6.16699 62.833 -18.5 82.5s-35.5 29.5 -69.5 29.5
c-22.667 0 -42.834 -5.5 -60.501 -16.5s-26.5 -25.167 -26.5 -42.5c0 -4.66699 1 -8.16699 3 -10.5s4.16699 -3.33301 6.5 -3l11 1.5c5 0.666992 8.83301 1 11.5 1c26.667 0 40 -14.333 40 -43c0 -12.667 -4.5 -22.667 -13.5 -30s-20.833 -11 -35.5 -11
c-19.333 0 -34 6.33301 -44 19s-15 28.667 -15 48c0 31.333 12.833 56.666 38.5 75.999s58.167 29 97.5 29c46 0 86 -11.5 120 -34.5s51 -54.833 51 -95.5c0 -32 -8.83301 -59 -26.5 -81s-37.667 -38 -60 -48s-47.166 -22.333 -74.499 -37s-47.666 -30 -60.999 -46h199z" />
    <glyph glyph-name="three.superior" unicode="&#xb3;" horiz-adv-x="361" 
d="M94 510l0.00292969 18h41c34.667 0 58.334 7 71.001 21s19 37.333 19 70c0 50 -20.667 75 -62 75c-18.667 0 -35.334 -2.33301 -50.001 -7s-22 -11.334 -22 -20.001c0 -6 6 -9 18 -9c10.667 0 19.667 -3.33301 27 -10s11 -16.667 11 -30
c0 -12.667 -4.5 -23.167 -13.5 -31.5s-20.167 -12.5 -33.5 -12.5c-16 0 -28.167 5 -36.5 15s-12.5 22 -12.5 36c0 28.667 12.5 50.334 37.5 65.001s53.833 22 86.5 22c38.667 0 73 -8.66699 103 -26s44.333 -40.666 43 -69.999c1.33301 -30 -11.334 -52.5 -38.001 -67.5
s-58.334 -23.833 -95.001 -26.5v-1c42.667 0 78 -10.167 106 -30.5s42 -48.5 42 -84.5c0 -42.667 -16.833 -74.334 -50.5 -95.001s-74.167 -31 -121.5 -31c-92.667 0 -139 29 -139 87c0 16 5.16699 29.5 15.5 40.5s23.5 16.5 39.5 16.5c29.333 0 44 -15.667 44 -47
c0 -13.333 -4 -23.833 -12 -31.5s-18 -11.5 -30 -11.5c-10 0 -15 -3 -15 -9c0 -18 28.333 -27 85 -27c20 0 36.167 2.66699 48.5 8s21.166 13.833 26.499 25.5s8.83301 23 10.5 34s2.5 25.833 2.5 44.5c0 38 -6.83301 64.167 -20.5 78.5s-39.5 21.5 -77.5 21.5h-48z" />
    <glyph glyph-name="acute" unicode="&#xb4;" horiz-adv-x="278" 
d="M97 516l73 149c12.667 25.333 21.667 40.833 27 46.5s15.333 8.5 30 8.5c25.333 0 38 -8.33301 38 -25c0 -10 -8 -23.333 -24 -40l-131 -139h-13z" />
    <glyph glyph-name="mu" unicode="&#xb5;" horiz-adv-x="611" 
d="M595 18l0.00195312 -18.001h-207v84h-2c-12.667 -28.667 -32.834 -51.5 -60.501 -68.5s-58.5 -26.167 -92.5 -27.5c-16.667 0 -31.334 2.33301 -44.001 7c0.666992 -29.333 2.5 -66.666 5.5 -111.999s4.5 -75.666 4.5 -90.999c0 -17.333 -5.33301 -31.166 -16 -41.499
s-25.667 -15.5 -45 -15.5c-20 0 -35.167 5.16699 -45.5 15.5s-15.5 24.166 -15.5 41.499c0 26 1.33301 62.667 4 110s4 78.333 4 93v427h-69v18h71c76.667 0 122 8.66699 136 26v-382c0 -16 5.33301 -30 16 -42s24.667 -18 42 -18c28.667 0 53.667 15.167 75 45.5
s32 61.166 32 92.499v260h-69v18h71c76.667 0 122 8.66699 136 26v-448h69z" />
    <glyph glyph-name="paragraph" unicode="&#xb6;" horiz-adv-x="620" 
d="M247 704l296 -0.000976562v-18h-76v-917h76v-18h-166v935h-72v-935h-167v18h77v517c-61.333 0 -106.833 19.167 -136.5 57.5s-44.5 90.5 -44.5 156.5c0 70.667 16.5 122.334 49.5 155.001s87.5 49 163.5 49zM215 309.999v368.002c-32 -6 -55.167 -23.333 -69.5 -52
s-21.5 -71.334 -21.5 -128.001c0 -106.667 30.333 -169.334 91 -188.001z" />
    <glyph glyph-name="periodcentered" unicode="&#xb7;" horiz-adv-x="278" 
d="M67 299c0 20 7 37 21 51s31 21 51 21s37 -7 51 -21s21 -31 21 -51s-7 -37 -21 -51s-31 -21 -51 -21s-37 7 -51 21s-21 31 -21 51z" />
    <glyph glyph-name="cedilla" unicode="&#xb8;" horiz-adv-x="278" 
d="M39 -194l8 12.999c20.667 -7.33301 43.667 -11 69 -11c44 -2 66 15.333 66 52c0 10.667 -3.33301 20 -10 28s-16 12 -28 12c-13.333 0 -27 -2 -41 -6l-17 7l59 99h24l-51 -84l2 -2c14.667 6.66699 35 10 61 10c19.333 0 37.333 -5.66699 54 -17s25 -26.333 25 -45
c0 -27.333 -11.833 -47.166 -35.5 -59.499s-50.5 -18.5 -80.5 -18.5c-28.667 0 -63.667 7.33301 -105 22z" />
    <glyph glyph-name="one.superior" unicode="&#xb9;" horiz-adv-x="361" 
d="M251 706l0.000976562 -402h55v-18h-220v18h63v296c0 14.667 -4.33301 22 -13 22c-12 0 -23.667 -3 -35 -9l-57 -27l-6 21c32.667 13.333 64.667 29.333 96 48s53.666 35.667 66.999 51h50z" />
    <glyph glyph-name="ordmasculine" unicode="&#xba;" horiz-adv-x="361" 
d="M26 563c0 44.667 14.833 80.667 44.5 108s66.5 41 110.5 41s80.667 -13.667 110 -41s44 -63.333 44 -108s-14.667 -80.667 -44 -108s-66 -41 -110 -41s-80.833 13.667 -110.5 41s-44.5 63.333 -44.5 108zM134 638v-150c0 -18 4.33301 -31.833 13 -41.5s20 -14.5 34 -14.5
c13.333 0 24.333 4.83301 33 14.5s13 23.5 13 41.5v150c0 18 -4.33301 31.833 -13 41.5s-19.667 14.5 -33 14.5c-14 0 -25.333 -4.83301 -34 -14.5s-13 -23.5 -13 -41.5z" />
    <glyph glyph-name="guillemotright" unicode="&#xbb;" horiz-adv-x="500" 
d="M232 112l116 141l-116 140l36 31l144 -171l-144 -171zM88 112l116 141l-116 140l36 31l144 -171l-144 -171z" />
    <glyph glyph-name="onequarter" unicode="&#xbc;" horiz-adv-x="834" 
d="M584 0v18h56v91h-174v45l212 266h64v-239h49v-72h-49v-91h54v-18h-212zM640 181v155h-2l-123 -155h125zM690 720l-463 -736h-45l463 736h45zM65 286l0.000976562 18h63v296c0 14.667 -4.33301 22 -13 22c-12 0 -23.667 -3 -35 -9l-57 -27l-6 21
c32.667 13.333 64.667 29.333 96 48s53.666 35.667 66.999 51h50v-402h55v-18h-220z" />
    <glyph glyph-name="onehalf" unicode="&#xbd;" horiz-adv-x="834" 
d="M650 720l-463 -736h-45l463 736h45zM230 706l0.000976562 -402h55v-18h-220v18h63v296c0 14.667 -4.33301 22 -13 22c-12 0 -23.667 -3 -35 -9l-57 -27l-6 21c32.667 13.333 64.667 29.333 96 48s53.666 35.667 66.999 51h50zM767.001 84l10.999 53h18
c-10 -36.667 -15.667 -82.334 -17 -137.001h-299c14.667 30 39.334 64.333 74.001 103c6 6.66699 18.167 17.5 36.5 32.5s34.333 28.833 48 41.5s26.334 29.834 38.001 51.501s17.5 44.167 17.5 67.5c0 35.333 -6.16699 62.833 -18.5 82.5s-35.5 29.5 -69.5 29.5
c-22.667 0 -42.834 -5.5 -60.501 -16.5s-26.5 -25.167 -26.5 -42.5c0 -4.66699 1 -8.16699 3 -10.5s4.16699 -3.33301 6.5 -3l11 1.5c5 0.666992 8.83301 1 11.5 1c26.667 0 40 -14.333 40 -43c0 -12.667 -4.5 -22.667 -13.5 -30s-20.833 -11 -35.5 -11
c-19.333 0 -34 6.33301 -44 19s-15 28.667 -15 48c0 31.333 12.833 56.666 38.5 75.999s58.167 29 97.5 29c46 0 86 -11.5 120 -34.5s51 -54.833 51 -95.5c0 -31.333 -9 -58.166 -27 -80.499s-38.5 -38.5 -61.5 -48.5s-48.333 -22.333 -76 -37s-48.167 -30 -61.5 -46h203z
" />
    <glyph glyph-name="threequarters" unicode="&#xbe;" horiz-adv-x="834" 
d="M584 0v18h56v91h-174v45l212 266h64v-239h49v-72h-49v-91h54v-18h-212zM640 181v155h-2l-123 -155h125zM701 720l-463 -736h-45l463 736h45zM107 510l0.00292969 18h41c34.667 0 58.334 7 71.001 21s19 37.333 19 70c0 50 -20.667 75 -62 75
c-18.667 0 -35.334 -2.33301 -50.001 -7s-22 -11.334 -22 -20.001c0 -6 6 -9 18 -9c10.667 0 19.667 -3.33301 27 -10s11 -16.667 11 -30c0 -12.667 -4.5 -23.167 -13.5 -31.5s-20.167 -12.5 -33.5 -12.5c-16 0 -28.167 5 -36.5 15s-12.5 22 -12.5 36
c0 28.667 12.5 50.334 37.5 65.001s53.833 22 86.5 22c38.667 0 73 -8.66699 103 -26s44.333 -40.666 43 -69.999c1.33301 -30 -11.334 -52.5 -38.001 -67.5s-58.334 -23.833 -95.001 -26.5v-1c42.667 0 78 -10.167 106 -30.5s42 -48.5 42 -84.5
c0 -42.667 -16.833 -74.334 -50.5 -95.001s-74.167 -31 -121.5 -31c-92.667 0 -139 29 -139 87c0 16 5.16699 29.5 15.5 40.5s23.5 16.5 39.5 16.5c29.333 0 44 -15.667 44 -47c0 -13.333 -4 -23.833 -12 -31.5s-18 -11.5 -30 -11.5c-10 0 -15 -3 -15 -9
c0 -18 28.333 -27 85 -27c20 0 36.167 2.66699 48.5 8s21.166 13.833 26.499 25.5s8.83301 23 10.5 34s2.5 25.833 2.5 44.5c0 38 -6.83301 64.167 -20.5 78.5s-39.5 21.5 -77.5 21.5h-48z" />
    <glyph glyph-name="questiondown" unicode="&#xbf;" 
d="M342 269l-0.000976562 -150c0 -25.333 -2.33301 -44.666 -7 -57.999s-15 -26 -31 -38c-2.66699 -2.66699 -17 -14.834 -43 -36.501s-45.5 -42 -58.5 -61s-19.5 -39.167 -19.5 -60.5c0 -32.667 11.167 -59.5 33.5 -80.5s49.833 -31.5 82.5 -31.5
c20.667 0 40.334 4.5 59.001 13.5s28 20.833 28 35.5c0 10 -10 15 -30 15c-18 0 -33 6.66699 -45 20s-18 30 -18 50c0 21.333 7.5 38 22.5 50s33.167 18 54.5 18c24.667 0 44.5 -8.83301 59.5 -26.5s22.5 -39.167 22.5 -64.5c0 -41.333 -16.833 -73.166 -50.5 -95.499
s-73.167 -33.5 -118.5 -33.5c-54 0 -97.167 17.167 -129.5 51.5s-48.5 78.5 -48.5 132.5c0 32 7.5 62 22.5 90s33.167 51.667 54.5 71s42.833 37.5 64.5 54.5s40 35.167 55 54.5s22.5 38.666 22.5 57.999v22h18zM408.999 378c0 -22.667 -7.83301 -41.834 -23.5 -57.501
s-34.834 -23.5 -57.501 -23.5s-41.834 7.83301 -57.501 23.5s-23.5 34.834 -23.5 57.501s7.83301 41.834 23.5 57.501s34.834 23.5 57.501 23.5s41.834 -7.83301 57.501 -23.5s23.5 -34.834 23.5 -57.501z" />
    <glyph glyph-name="Agrave" unicode="&#xc0;" horiz-adv-x="667" 
d="M11 0v18h13c32 2.66699 54.667 22.667 68 60l232 642h15l268 -702h49v-18h-298v18h80l-73 208h-194l-48 -141c-4.66699 -12.667 -7 -22.667 -7 -30c0 -24.667 16 -37 48 -37h28v-18h-181zM179 244h178l-87 253h-2zM303 884l73 -149h-13l-131 139
c-16 16.667 -24 30 -24 40c0 16.667 12.667 25 38 25c14.667 0 24.667 -2.83301 30 -8.5s14.333 -21.167 27 -46.5z" />
    <glyph glyph-name="Aacute" unicode="&#xc1;" horiz-adv-x="667" 
d="M11 0v18h13c32 2.66699 54.667 22.667 68 60l232 642h15l268 -702h49v-18h-298v18h80l-73 208h-194l-48 -141c-4.66699 -12.667 -7 -22.667 -7 -30c0 -24.667 16 -37 48 -37h28v-18h-181zM179 244h178l-87 253h-2zM292 735l73 148.999
c12.667 25.333 21.667 40.833 27 46.5s15.333 8.5 30 8.5c25.333 0 38 -8.33301 38 -25c0 -9.33301 -8 -22.666 -24 -39.999l-131 -139h-13z" />
    <glyph glyph-name="Acircumflex" unicode="&#xc2;" horiz-adv-x="667" 
d="M11 0v18h13c32 2.66699 54.667 22.667 68 60l232 642h15l268 -702h49v-18h-298v18h80l-73 208h-194l-48 -141c-4.66699 -12.667 -7 -22.667 -7 -30c0 -24.667 16 -37 48 -37h28v-18h-181zM179 244h178l-87 253h-2zM337 835l-128 -130h-14l108 204h68l102 -204h-14z" />
    <glyph glyph-name="Atilde" unicode="&#xc3;" horiz-adv-x="667" 
d="M11 0v18h13c32 2.66699 54.667 22.667 68 60l232 642h15l268 -702h49v-18h-298v18h80l-73 208h-194l-48 -141c-4.66699 -12.667 -7 -22.667 -7 -30c0 -24.667 16 -37 48 -37h28v-18h-181zM179 244h178l-87 253h-2zM194 784h-18.0039c14.667 47.333 28 78.333 40 93
c14.667 16.667 32 25 52 25c12.667 0 40.334 -7.66699 83.001 -23s72.667 -23 90 -23c8.66699 0 19.334 16 32.001 48h19c-4.66699 -16 -8.66699 -28.667 -12 -38s-8.66602 -20.833 -15.999 -34.5s-16.5 -24 -27.5 -31s-23.833 -10.5 -38.5 -10.5
c-19.333 0 -48.166 6.66699 -86.499 20s-65.5 20 -81.5 20c-10 0 -18 -4.66699 -24 -14s-10 -20 -12 -32z" />
    <glyph glyph-name="Adieresis" unicode="&#xc4;" horiz-adv-x="667" 
d="M11 0v18h13c32 2.66699 54.667 22.667 68 60l232 642h15l268 -702h49v-18h-298v18h80l-73 208h-194l-48 -141c-4.66699 -12.667 -7 -22.667 -7 -30c0 -24.667 16 -37 48 -37h28v-18h-181zM179 244h178l-87 253h-2zM358 845c0 17.333 6.16699 32.166 18.5 44.499
s27.166 18.5 44.499 18.5s32.166 -6.16699 44.499 -18.5s18.5 -27.166 18.5 -44.499s-6.16699 -32.166 -18.5 -44.499s-27.166 -18.5 -44.499 -18.5s-32.166 6.16699 -44.499 18.5s-18.5 27.166 -18.5 44.499zM184 845c0 17.333 6.16699 32.166 18.5 44.499
s27.166 18.5 44.499 18.5s32.166 -6.16699 44.499 -18.5s18.5 -27.166 18.5 -44.499s-6.16699 -32.166 -18.5 -44.499s-27.166 -18.5 -44.499 -18.5s-32.166 6.16699 -44.499 18.5s-18.5 27.166 -18.5 44.499z" />
    <glyph glyph-name="Aring" unicode="&#xc5;" horiz-adv-x="667" 
d="M11 0v18h13c32 2.66699 54.667 22.667 68 60l232 642h15l268 -702h49v-18h-298v18h80l-73 208h-194l-48 -141c-4.66699 -12.667 -7 -22.667 -7 -30c0 -24.667 16 -37 48 -37h28v-18h-181zM179 244h178l-87 253h-2zM226 840c0 30 10.5 55.5 31.5 76.5s46.5 31.5 76.5 31.5
s55.5 -10.5 76.5 -31.5s31.5 -46.5 31.5 -76.5s-10.5 -55.5 -31.5 -76.5s-46.5 -31.5 -76.5 -31.5s-55.5 10.5 -76.5 31.5s-31.5 46.5 -31.5 76.5zM274 840c0 -16.667 5.83301 -30.834 17.5 -42.501s25.834 -17.5 42.501 -17.5s30.834 5.83301 42.501 17.5
s17.5 25.834 17.5 42.501s-5.83301 30.834 -17.5 42.501s-25.834 17.5 -42.501 17.5s-30.834 -5.83301 -42.501 -17.5s-17.5 -25.834 -17.5 -42.501z" />
    <glyph glyph-name="AE" unicode="&#xc6;" horiz-adv-x="1000" 
d="M11 0l0.000976562 17.999h8c21.333 0 40.666 10.833 57.999 32.5s39.666 56.834 66.999 105.501l299 530h-87v18h558v-199h-18v14c0 47.333 -16.667 87 -50 119s-78.666 48 -135.999 48h-117v-306h68c66 0 99 44 99 132v11h18v-316h-18v8c0 98 -46.333 147 -139 147h-28
v-344h143c31.333 0 58.833 5 82.5 15s42 22.167 55 36.5s23.5 30.833 31.5 49.5s13.167 35.167 15.5 49.5s3.5 28.5 3.5 42.5v14h18v-225h-586v18h87v208h-236l-53 -98c-18 -36 -27 -61 -27 -75c0 -23.333 21 -35 63 -35h7v-18h-186zM443.001 243.999v406h-2l-226 -406h228z
" />
    <glyph glyph-name="Ccedilla" unicode="&#xc7;" horiz-adv-x="667" 
d="M382 -14l-42.002 -70l2 -2c14.667 6.66699 35 10 61 10c19.333 0 37.333 -5.66699 54 -17s25 -26.333 25 -45c0 -27.333 -11.833 -47.166 -35.5 -59.499s-50.5 -18.5 -80.5 -18.5c-28.667 0 -63.667 7.33301 -105 22l8 13c20.667 -7.33301 43.667 -11 69 -11
c44 -2 66 15.333 66 52c0 10.667 -3.33301 20 -10 28s-16 12 -28 12c-13.333 0 -27 -2 -41 -6l-17 7l50 83c-94 0 -170 35.667 -228 107s-87 154.333 -87 249c0 60.667 12.833 119.667 38.5 177s64.167 105.5 115.5 144.5s109.666 58.5 174.999 58.5
c26.667 0 60.834 -8.5 102.501 -25.5s68.167 -25.5 79.5 -25.5c21.333 0 32.333 10 33 30h18v-236h-18c-8.66699 57.333 -33.5 111.5 -74.5 162.5s-87.833 76.5 -140.5 76.5s-92.667 -27.5 -120 -82.5s-41 -144.167 -41 -267.5c0 -122.667 12.167 -211.667 36.5 -267
s64.833 -83 121.5 -83c30.667 0 59.334 7 86.001 21s48.834 31.833 66.501 53.5s32 44.167 43 67.5s18.5 45.666 22.5 66.999l6 34h15v-245h-15c-7.33301 27.333 -19.666 41 -36.999 41c-7.33301 0 -18.333 -4.16699 -33 -12.5s-34.334 -17 -59.001 -26s-52 -14.5 -82 -16.5
z" />
    <glyph glyph-name="Egrave" unicode="&#xc8;" horiz-adv-x="667" 
d="M22 0l-0.000976562 18h81v668h-81v18h559v-199h-18v14c0 47.333 -16.667 87 -50 119s-78.666 48 -135.999 48h-118v-306h69c33.333 0 58.166 10.333 74.499 31s24.5 54.334 24.5 101.001v11h18v-316h-18v23c0 37.333 -8.66699 68.666 -26 93.999s-41.666 38 -72.999 38
h-69v-344h144c31.333 0 58.833 5 82.5 15s42 22.167 55 36.5s23.5 30.833 31.5 49.5s13.167 35.167 15.5 49.5s3.5 28.5 3.5 42.5v14h18v-225h-587zM302.999 884l73 -149h-13l-131 139c-16 16.667 -24 30 -24 40c0 16.667 12.667 25 38 25c14.667 0 24.667 -2.83301 30 -8.5
s14.333 -21.167 27 -46.5z" />
    <glyph glyph-name="Eacute" unicode="&#xc9;" horiz-adv-x="667" 
d="M22 0l-0.000976562 18h81v668h-81v18h559v-199h-18v14c0 47.333 -16.667 87 -50 119s-78.666 48 -135.999 48h-118v-306h69c33.333 0 58.166 10.333 74.499 31s24.5 54.334 24.5 101.001v11h18v-316h-18v23c0 37.333 -8.66699 68.666 -26 93.999s-41.666 38 -72.999 38
h-69v-344h144c31.333 0 58.833 5 82.5 15s42 22.167 55 36.5s23.5 30.833 31.5 49.5s13.167 35.167 15.5 49.5s3.5 28.5 3.5 42.5v14h18v-225h-587zM291.999 735l73 148.999c12.667 25.333 21.667 40.833 27 46.5s15.333 8.5 30 8.5c25.333 0 38 -8.33301 38 -25
c0 -9.33301 -8 -22.666 -24 -39.999l-131 -139h-13z" />
    <glyph glyph-name="Ecircumflex" unicode="&#xca;" horiz-adv-x="667" 
d="M22 0l-0.000976562 18h81v668h-81v18h559v-199h-18v14c0 47.333 -16.667 87 -50 119s-78.666 48 -135.999 48h-118v-306h69c33.333 0 58.166 10.333 74.499 31s24.5 54.334 24.5 101.001v11h18v-316h-18v23c0 37.333 -8.66699 68.666 -26 93.999s-41.666 38 -72.999 38
h-69v-344h144c31.333 0 58.833 5 82.5 15s42 22.167 55 36.5s23.5 30.833 31.5 49.5s13.167 35.167 15.5 49.5s3.5 28.5 3.5 42.5v14h18v-225h-587zM336.999 865l-128 -130h-14l108 204h68l102 -204h-14z" />
    <glyph glyph-name="Edieresis" unicode="&#xcb;" horiz-adv-x="667" 
d="M22 0l-0.000976562 18h81v668h-81v18h559v-199h-18v14c0 47.333 -16.667 87 -50 119s-78.666 48 -135.999 48h-118v-306h69c33.333 0 58.166 10.333 74.499 31s24.5 54.334 24.5 101.001v11h18v-316h-18v23c0 37.333 -8.66699 68.666 -26 93.999s-41.666 38 -72.999 38
h-69v-344h144c31.333 0 58.833 5 82.5 15s42 22.167 55 36.5s23.5 30.833 31.5 49.5s13.167 35.167 15.5 49.5s3.5 28.5 3.5 42.5v14h18v-225h-587zM183.999 845c0 17.333 6.16699 32.166 18.5 44.499s27.166 18.5 44.499 18.5s32.166 -6.16699 44.499 -18.5
s18.5 -27.166 18.5 -44.499s-6.16699 -32.166 -18.5 -44.499s-27.166 -18.5 -44.499 -18.5s-32.166 6.16699 -44.499 18.5s-18.5 27.166 -18.5 44.499zM357.999 845c0 17.333 6.16699 32.166 18.5 44.499s27.166 18.5 44.499 18.5s32.166 -6.16699 44.499 -18.5
s18.5 -27.166 18.5 -44.499s-6.16699 -32.166 -18.5 -44.499s-27.166 -18.5 -44.499 -18.5s-32.166 6.16699 -44.499 18.5s-18.5 27.166 -18.5 44.499z" />
    <glyph glyph-name="Igrave" unicode="&#xcc;" horiz-adv-x="390" 
d="M36 0v18h81v668h-81v18h318v-18h-81v-668h81v-18h-318zM164 884l73 -148.999h-13l-131 139c-16 17.333 -24 30.666 -24 39.999c0 16.667 12.667 25 38 25c14.667 0 24.667 -2.83301 30 -8.5s14.333 -21.167 27 -46.5z" />
    <glyph glyph-name="Iacute" unicode="&#xcd;" horiz-adv-x="390" 
d="M36 0v18h81v668h-81v18h318v-18h-81v-668h81v-18h-318zM153 735l73 148.999c12.667 25.333 21.667 40.833 27 46.5s15.333 8.5 30 8.5c25.333 0 38 -8.33301 38 -25c0 -9.33301 -8 -22.666 -24 -39.999l-131 -139h-13z" />
    <glyph glyph-name="Icircumflex" unicode="&#xce;" horiz-adv-x="390" 
d="M36 0v18h81v668h-81v18h318v-18h-81v-668h81v-18h-318zM198 865l-128 -130h-14l108 204h68l102 -204h-14z" />
    <glyph glyph-name="Idieresis" unicode="&#xcf;" horiz-adv-x="390" 
d="M36 0v18h81v668h-81v18h318v-18h-81v-668h81v-18h-318zM45 845c0 17.333 6.16699 32.166 18.5 44.499s27.166 18.5 44.499 18.5s32.166 -6.16699 44.499 -18.5s18.5 -27.166 18.5 -44.499s-6.16699 -32.166 -18.5 -44.499s-27.166 -18.5 -44.499 -18.5
s-32.166 6.16699 -44.499 18.5s-18.5 27.166 -18.5 44.499zM219 845c0 17.333 6.16699 32.166 18.5 44.499s27.166 18.5 44.499 18.5s32.166 -6.16699 44.499 -18.5s18.5 -27.166 18.5 -44.499s-6.16699 -32.166 -18.5 -44.499s-27.166 -18.5 -44.499 -18.5
s-32.166 6.16699 -44.499 18.5s-18.5 27.166 -18.5 44.499z" />
    <glyph glyph-name="Eth" unicode="&#xd0;" horiz-adv-x="778" 
d="M35 0l0.000976562 17.999h81v361h-70v30h70v277h-81v18h345c106 0 191.667 -32.167 257 -96.5s98 -151.166 98 -260.499c0 -27.333 -3.33301 -55.5 -10 -84.5s-18.334 -59.5 -35.001 -91.5s-37.667 -60.5 -63 -85.5s-58.833 -45.5 -100.5 -61.5s-88.5 -24 -140.5 -24
h-351zM272.001 685.999l-0.000976562 -277h151v-30h-151v-361h83c32 0 60 4 84 12s43.5 20.333 58.5 37s27.333 34.5 37 53.5s16.834 42.5 21.501 70.5s7.66699 54 9 78s2 53 2 87c0 36 -0.666992 66.5 -2 91.5s-4.33301 51.167 -9 78.5s-11.5 49.833 -20.5 67.5
s-20.667 34 -35 49s-32.5 26 -54.5 33s-48 10.5 -78 10.5h-96z" />
    <glyph glyph-name="Ntilde" unicode="&#xd1;" horiz-adv-x="722" 
d="M16 0v18h7h11c18.667 0 33.334 5 44.001 15s16 29 16 57v537l-44 59h-31v18h206l377 -485h2v410c0 38 -22.667 57 -68 57h-19v18h189v-18h-14c-20.667 0 -36.5 -5.5 -47.5 -16.5s-16.5 -23.5 -16.5 -37.5v-644h-42l-466 608h-2v-511c0 -27.333 5.66699 -45.333 17 -54
s31.666 -13 60.999 -13h9v-18h-189zM221 784h-18.0039c14.667 47.333 28 78.333 40 93c14.667 16.667 32 25 52 25c12.667 0 40.334 -7.66699 83.001 -23s72.667 -23 90 -23c8.66699 0 19.334 16 32.001 48h19c-4.66699 -16 -8.66699 -28.667 -12 -38
s-8.66602 -20.833 -15.999 -34.5s-16.5 -24 -27.5 -31s-23.833 -10.5 -38.5 -10.5c-19.333 0 -48.166 6.66699 -86.499 20s-65.5 20 -81.5 20c-10 0 -18 -4.66699 -24 -14s-10 -20 -12 -32z" />
    <glyph glyph-name="Ograve" unicode="&#xd2;" horiz-adv-x="722" 
d="M43 352c0 100.667 29.998 187.167 89.998 259.5s136 108.5 228 108.5s168 -36.167 228 -108.5s90 -158.833 90 -259.5c2 -94.667 -28.667 -179.667 -92 -255s-138.666 -113 -225.999 -113s-162.666 37.667 -225.999 113s-94 160.333 -92 255zM360.998 2
c57.333 0 96.6699 26 118.003 78s32 142.667 32 272c0 61.333 -2.83301 113.833 -8.5 157.5s-12.834 77.834 -21.501 102.501s-20 43.834 -34 57.501s-27.5 22.5 -40.5 26.5s-28.167 6 -45.5 6s-32.5 -2 -45.5 -6s-26.5 -12.833 -40.5 -26.5s-25.333 -32.834 -34 -57.501
s-15.834 -58.834 -21.501 -102.501s-8.5 -96.167 -8.5 -157.5c0 -129.333 10.667 -220 32 -272s60.666 -78 117.999 -78zM330.002 884l73 -149h-13l-131 139c-16 16.667 -24 30 -24 40c0 16.667 12.667 25 38 25c14.667 0 24.667 -2.83301 30 -8.5s14.333 -21.167 27 -46.5z
" />
    <glyph glyph-name="Oacute" unicode="&#xd3;" horiz-adv-x="722" 
d="M43 352c0 100.667 29.998 187.167 89.998 259.5s136 108.5 228 108.5s168 -36.167 228 -108.5s90 -158.833 90 -259.5c2 -94.667 -28.667 -179.667 -92 -255s-138.666 -113 -225.999 -113s-162.666 37.667 -225.999 113s-94 160.333 -92 255zM360.998 2
c57.333 0 96.6699 26 118.003 78s32 142.667 32 272c0 61.333 -2.83301 113.833 -8.5 157.5s-12.834 77.834 -21.501 102.501s-20 43.834 -34 57.501s-27.5 22.5 -40.5 26.5s-28.167 6 -45.5 6s-32.5 -2 -45.5 -6s-26.5 -12.833 -40.5 -26.5s-25.333 -32.834 -34 -57.501
s-15.834 -58.834 -21.501 -102.501s-8.5 -96.167 -8.5 -157.5c0 -129.333 10.667 -220 32 -272s60.666 -78 117.999 -78zM319.002 735l73 148.999c12.667 25.333 21.667 40.833 27 46.5s15.333 8.5 30 8.5c25.333 0 38 -8.33301 38 -25c0 -9.33301 -8 -22.666 -24 -39.999
l-131 -139h-13z" />
    <glyph glyph-name="Ocircumflex" unicode="&#xd4;" horiz-adv-x="722" 
d="M43 352c0 100.667 29.998 187.167 89.998 259.5s136 108.5 228 108.5s168 -36.167 228 -108.5s90 -158.833 90 -259.5c2 -94.667 -28.667 -179.667 -92 -255s-138.666 -113 -225.999 -113s-162.666 37.667 -225.999 113s-94 160.333 -92 255zM360.998 2
c57.333 0 96.6699 26 118.003 78s32 142.667 32 272c0 61.333 -2.83301 113.833 -8.5 157.5s-12.834 77.834 -21.501 102.501s-20 43.834 -34 57.501s-27.5 22.5 -40.5 26.5s-28.167 6 -45.5 6s-32.5 -2 -45.5 -6s-26.5 -12.833 -40.5 -26.5s-25.333 -32.834 -34 -57.501
s-15.834 -58.834 -21.501 -102.501s-8.5 -96.167 -8.5 -157.5c0 -129.333 10.667 -220 32 -272s60.666 -78 117.999 -78zM364.002 865l-128 -130h-14l108 204h68l102 -204h-14z" />
    <glyph glyph-name="Otilde" unicode="&#xd5;" horiz-adv-x="722" 
d="M43 352c0 100.667 29.998 187.167 89.998 259.5s136 108.5 228 108.5s168 -36.167 228 -108.5s90 -158.833 90 -259.5c2 -94.667 -28.667 -179.667 -92 -255s-138.666 -113 -225.999 -113s-162.666 37.667 -225.999 113s-94 160.333 -92 255zM360.998 2
c57.333 0 96.6699 26 118.003 78s32 142.667 32 272c0 61.333 -2.83301 113.833 -8.5 157.5s-12.834 77.834 -21.501 102.501s-20 43.834 -34 57.501s-27.5 22.5 -40.5 26.5s-28.167 6 -45.5 6s-32.5 -2 -45.5 -6s-26.5 -12.833 -40.5 -26.5s-25.333 -32.834 -34 -57.501
s-15.834 -58.834 -21.501 -102.501s-8.5 -96.167 -8.5 -157.5c0 -129.333 10.667 -220 32 -272s60.666 -78 117.999 -78zM221.002 784h-18.0039c14.667 47.333 28 78.333 40 93c14.667 16.667 32 25 52 25c12.667 0 40.334 -7.66699 83.001 -23s72.667 -23 90 -23
c8.66699 0 19.334 16 32.001 48h19c-4.66699 -16 -8.66699 -28.667 -12 -38s-8.66602 -20.833 -15.999 -34.5s-16.5 -24 -27.5 -31s-23.833 -10.5 -38.5 -10.5c-19.333 0 -48.166 6.66699 -86.499 20s-65.5 20 -81.5 20c-10 0 -18 -4.66699 -24 -14s-10 -20 -12 -32z" />
    <glyph glyph-name="Odieresis" unicode="&#xd6;" horiz-adv-x="722" 
d="M43 352c0 100.667 29.998 187.167 89.998 259.5s136 108.5 228 108.5s168 -36.167 228 -108.5s90 -158.833 90 -259.5c2 -94.667 -28.667 -179.667 -92 -255s-138.666 -113 -225.999 -113s-162.666 37.667 -225.999 113s-94 160.333 -92 255zM360.998 2
c57.333 0 96.6699 26 118.003 78s32 142.667 32 272c0 61.333 -2.83301 113.833 -8.5 157.5s-12.834 77.834 -21.501 102.501s-20 43.834 -34 57.501s-27.5 22.5 -40.5 26.5s-28.167 6 -45.5 6s-32.5 -2 -45.5 -6s-26.5 -12.833 -40.5 -26.5s-25.333 -32.834 -34 -57.501
s-15.834 -58.834 -21.501 -102.501s-8.5 -96.167 -8.5 -157.5c0 -129.333 10.667 -220 32 -272s60.666 -78 117.999 -78zM211.002 845c0 17.333 6.16699 32.166 18.5 44.499s27.166 18.5 44.499 18.5s32.166 -6.16699 44.499 -18.5s18.5 -27.166 18.5 -44.499
s-6.16699 -32.166 -18.5 -44.499s-27.166 -18.5 -44.499 -18.5s-32.166 6.16699 -44.499 18.5s-18.5 27.166 -18.5 44.499zM385.002 845c0 17.333 6.16699 32.166 18.5 44.499s27.166 18.5 44.499 18.5s32.166 -6.16699 44.499 -18.5s18.5 -27.166 18.5 -44.499
s-6.16699 -32.166 -18.5 -44.499s-27.166 -18.5 -44.499 -18.5s-32.166 6.16699 -44.499 18.5s-18.5 27.166 -18.5 44.499z" />
    <glyph glyph-name="multiply" unicode="&#xd7;" horiz-adv-x="600" 
d="M238 253l-170 170l62 62l170 -170l170 170l62 -62l-170 -170l170 -170l-62 -62l-170 170l-170 -170l-62 62z" />
    <glyph glyph-name="Oslash" unicode="&#xd8;" horiz-adv-x="722" 
d="M490 574l-248.999 -489c20.667 -55.333 60.667 -83 120 -83c57.333 0 96.666 26 117.999 78s32 142.667 32 272c0 98.667 -7 172.667 -21 222zM230.001 124l249 489.002c-13.333 35.333 -29.666 59 -48.999 71s-42.333 18 -69 18c-17.333 0 -32.5 -2 -45.5 -6
s-26.5 -12.833 -40.5 -26.5s-25.333 -32.834 -34 -57.501s-15.834 -58.834 -21.501 -102.501s-8.5 -96.167 -8.5 -157.5c0 -104 6.33301 -180 19 -228zM160.001 -13.998l29.998 59.999c-45.333 34.667 -81.5 79.5 -108.5 134.5s-39.833 112.167 -38.5 171.5
c0 100.667 30 187.167 90 259.5s136 108.5 228 108.5c54.667 0 104.667 -14.333 150 -43l27 53l25 -12l-28 -56c44.667 -32.667 79.834 -76.667 105.501 -132s38.5 -114.666 38.5 -177.999c2 -94.667 -28.667 -179.667 -92 -255s-138.666 -113 -225.999 -113
c-52.667 0 -102 15 -148 45l-28 -55z" />
    <glyph glyph-name="Ugrave" unicode="&#xd9;" horiz-adv-x="722" 
d="M16 686l-0.000976562 17.999h315v-18h-81v-440c0 -72.667 12.333 -128.5 37 -167.5s70.667 -58.5 138 -58.5c51.333 0 94 17.5 128 52.5s51 84.833 51 149.5v380c0 30 -5 51.5 -15 64.5s-27.333 19.5 -52 19.5h-29v18h198v-18h-26c-34.667 0 -52 -28 -52 -84v-374
c0 -76.667 -21.667 -136.5 -65 -179.5s-109.666 -64.5 -198.999 -64.5c-82 0 -147.5 22.333 -196.5 67s-73.5 105.334 -73.5 182.001v453h-78zM374.999 883.999l73 -149h-13l-131 139c-16 16.667 -24 30 -24 40c0 16.667 12.667 25 38 25c14.667 0 24.667 -2.83301 30 -8.5
s14.333 -21.167 27 -46.5z" />
    <glyph glyph-name="Uacute" unicode="&#xda;" horiz-adv-x="722" 
d="M16 686l-0.000976562 17.999h315v-18h-81v-440c0 -72.667 12.333 -128.5 37 -167.5s70.667 -58.5 138 -58.5c51.333 0 94 17.5 128 52.5s51 84.833 51 149.5v380c0 30 -5 51.5 -15 64.5s-27.333 19.5 -52 19.5h-29v18h198v-18h-26c-34.667 0 -52 -28 -52 -84v-374
c0 -76.667 -21.667 -136.5 -65 -179.5s-109.666 -64.5 -198.999 -64.5c-82 0 -147.5 22.333 -196.5 67s-73.5 105.334 -73.5 182.001v453h-78zM363.999 734.999l73 148.999c12.667 25.333 21.667 40.833 27 46.5s15.333 8.5 30 8.5c25.333 0 38 -8.33301 38 -25
c0 -9.33301 -8 -22.666 -24 -39.999l-131 -139h-13z" />
    <glyph glyph-name="Ucircumflex" unicode="&#xdb;" horiz-adv-x="722" 
d="M16 686l-0.000976562 17.999h315v-18h-81v-440c0 -72.667 12.333 -128.5 37 -167.5s70.667 -58.5 138 -58.5c51.333 0 94 17.5 128 52.5s51 84.833 51 149.5v380c0 30 -5 51.5 -15 64.5s-27.333 19.5 -52 19.5h-29v18h198v-18h-26c-34.667 0 -52 -28 -52 -84v-374
c0 -76.667 -21.667 -136.5 -65 -179.5s-109.666 -64.5 -198.999 -64.5c-82 0 -147.5 22.333 -196.5 67s-73.5 105.334 -73.5 182.001v453h-78zM408.999 864.999l-128 -130h-14l108 204h68l102 -204h-14z" />
    <glyph glyph-name="Udieresis" unicode="&#xdc;" horiz-adv-x="722" 
d="M16 686l-0.000976562 17.999h315v-18h-81v-440c0 -72.667 12.333 -128.5 37 -167.5s70.667 -58.5 138 -58.5c51.333 0 94 17.5 128 52.5s51 84.833 51 149.5v380c0 30 -5 51.5 -15 64.5s-27.333 19.5 -52 19.5h-29v18h198v-18h-26c-34.667 0 -52 -28 -52 -84v-374
c0 -76.667 -21.667 -136.5 -65 -179.5s-109.666 -64.5 -198.999 -64.5c-82 0 -147.5 22.333 -196.5 67s-73.5 105.334 -73.5 182.001v453h-78zM255.999 814.999c0 17.333 6.16699 32.166 18.5 44.499s27.166 18.5 44.499 18.5s32.166 -6.16699 44.499 -18.5
s18.5 -27.166 18.5 -44.499s-6.16699 -32.166 -18.5 -44.499s-27.166 -18.5 -44.499 -18.5s-32.166 6.16699 -44.499 18.5s-18.5 27.166 -18.5 44.499zM429.999 814.999c0 17.333 6.16699 32.166 18.5 44.499s27.166 18.5 44.499 18.5s32.166 -6.16699 44.499 -18.5
s18.5 -27.166 18.5 -44.499s-6.16699 -32.166 -18.5 -44.499s-27.166 -18.5 -44.499 -18.5s-32.166 6.16699 -44.499 18.5s-18.5 27.166 -18.5 44.499z" />
    <glyph glyph-name="Yacute" unicode="&#xdd;" horiz-adv-x="667" 
d="M193 0v18.001h77v227l-194 441h-66v18h308v-18h-72l165 -378l119 270c13.333 32 20 55 20 69c0 13.333 -4.5 23.166 -13.5 29.499s-24.5 9.5 -46.5 9.5h-13v18h180v-18h-7c-18 0 -33.5 -6.66699 -46.5 -20s-26.833 -38 -41.5 -74l-136 -305v-269h77v-18h-310z
M337 735.001l73 148.999c12.667 25.333 21.667 40.833 27 46.5s15.333 8.5 30 8.5c25.333 0 38 -8.33301 38 -25c0 -9.33301 -8 -22.666 -24 -39.999l-131 -139h-13z" />
    <glyph glyph-name="Thorn" unicode="&#xde;" horiz-adv-x="667" 
d="M27 0v18h81v668h-81v18h315v-18h-78v-96c8.66699 0.666992 20.834 1.5 36.501 2.5s30.167 1.83301 43.5 2.5s26.666 1 39.999 1c68 0 126.167 -16 174.5 -48s72.5 -78.667 72.5 -140c0 -68.667 -24.833 -120.167 -74.5 -154.5s-114.5 -51.5 -194.5 -51.5
c-15.333 0 -48 1.66699 -98 5v-189h99v-18h-336zM264 567v-336c13.333 -3.33301 35.333 -5 66 -5c53.333 0 88.833 14.667 106.5 44s26.5 74.333 26.5 135c0 58.667 -8.83301 101.167 -26.5 127.5s-53.167 39.5 -106.5 39.5c-22 0 -44 -1.66699 -66 -5z" />
    <glyph glyph-name="germandbls" unicode="&#xdf;" horiz-adv-x="611" 
d="M98 18l0.00292969 415.999c0 81.333 20.333 149.333 61 204s100 82 178 82c51.333 0 93.333 -11.5 126 -34.5s49 -58.833 49 -107.5c0 -24 -6.66699 -48 -20 -72s-27.833 -43.667 -43.5 -59l-43.5 -42.5c-13.333 -13 -20 -21.833 -20 -26.5
c-0.666992 -6 9.16602 -12.833 29.499 -20.5l67 -24.5c24.333 -8.66699 46.666 -24.834 66.999 -48.501s30.5 -52.834 30.5 -87.501c0 -40.667 -4.5 -75.167 -13.5 -103.5s-21.5 -49.333 -37.5 -63s-31.833 -23.167 -47.5 -28.5s-32.834 -8 -51.501 -8
c-39.333 -0.666992 -72.833 9.5 -100.5 30.5s-41.167 48.5 -40.5 82.5c0 18.667 5.5 34.5 16.5 47.5s25.167 19.5 42.5 19.5c21.333 0 37.833 -5.16699 49.5 -15.5s17.5 -25.166 17.5 -44.499c0 -16 -4.66699 -29 -14 -39s-18.5 -18.167 -27.5 -24.5
s-13.5 -12.5 -13.5 -18.5c0 -6.66699 7.5 -12.667 22.5 -18s30.5 -8 46.5 -8c24.667 0 49 8.33301 73 25s36 40.667 36 72c0 20.667 -7.5 38.334 -22.5 53.001s-33.167 26.5 -54.5 35.5l-64 27c-21.333 9 -39.5 20.833 -54.5 35.5s-22.5 32.334 -22.5 53.001
c0 18 7 36 21 54s29.167 34.167 45.5 48.5s31.5 35.5 45.5 63.5s21 59.667 21 95c0 44 -7.33301 77.333 -22 100s-42 34 -82 34c-74.667 0 -112 -41.333 -112 -124v-560h56v-18h-263v18h69z" />
    <glyph glyph-name="agrave" unicode="&#xe0;" 
d="M460 310l-0.000976562 -230.003c0 -33.333 7.66699 -50 23 -50c11.333 0 20 5.66699 26 17s9 24.333 9 39h18c0 -29.333 -9.66699 -53 -29 -71s-45.333 -27 -78 -27c-48.667 0 -82 21 -100 63c-12 -21.333 -31.167 -37.166 -57.5 -47.499s-51.833 -15.5 -76.5 -15.5
c-42.667 0 -79.167 10.167 -109.5 30.5s-45.5 50.833 -45.5 91.5c0 24.667 5.33301 45.834 16 63.501s25.834 31.167 45.501 40.5s39.5 16.333 59.5 21s43 8 69 10l98 8v84c0 34 -5.5 58.667 -16.5 74s-33.833 23 -68.5 23c-21.333 0 -42 -2.5 -62 -7.5
s-29.667 -12.5 -29 -22.5c0 -4 4.33301 -8 13 -12s17.167 -9.83301 25.5 -17.5s12.5 -18.5 12.5 -32.5c0 -18 -5.5 -32.5 -16.5 -43.5s-25.833 -16.5 -44.5 -16.5c-21.333 0 -37.5 6.16699 -48.5 18.5s-16.5 27.833 -16.5 46.5c0 28.667 16.5 53.334 49.5 74.001
s74.167 31 123.5 31c140 0 210 -47.333 210 -142zM327.999 118.997l0.000976562 116.001l-79 -8c-30 -3.33301 -49.333 -12.333 -58 -27s-13 -37.334 -13 -68.001c0 -16.667 0.666992 -30.167 2 -40.5s4 -22 8 -35s11.167 -22.667 21.5 -29s23.5 -9.5 39.5 -9.5
c22.667 0 41.167 9.83301 55.5 29.5s22.166 43.5 23.499 71.5zM247 664.998l73 -149h-13l-131 139c-16 16.667 -24 30 -24 40c0 16.667 12.667 25 38 25c14.667 0 24.667 -2.83301 30 -8.5s14.333 -21.167 27 -46.5z" />
    <glyph glyph-name="aacute" unicode="&#xe1;" 
d="M460 310l-0.000976562 -230.003c0 -33.333 7.66699 -50 23 -50c11.333 0 20 5.66699 26 17s9 24.333 9 39h18c0 -29.333 -9.66699 -53 -29 -71s-45.333 -27 -78 -27c-48.667 0 -82 21 -100 63c-12 -21.333 -31.167 -37.166 -57.5 -47.499s-51.833 -15.5 -76.5 -15.5
c-42.667 0 -79.167 10.167 -109.5 30.5s-45.5 50.833 -45.5 91.5c0 24.667 5.33301 45.834 16 63.501s25.834 31.167 45.501 40.5s39.5 16.333 59.5 21s43 8 69 10l98 8v84c0 34 -5.5 58.667 -16.5 74s-33.833 23 -68.5 23c-21.333 0 -42 -2.5 -62 -7.5
s-29.667 -12.5 -29 -22.5c0 -4 4.33301 -8 13 -12s17.167 -9.83301 25.5 -17.5s12.5 -18.5 12.5 -32.5c0 -18 -5.5 -32.5 -16.5 -43.5s-25.833 -16.5 -44.5 -16.5c-21.333 0 -37.5 6.16699 -48.5 18.5s-16.5 27.833 -16.5 46.5c0 28.667 16.5 53.334 49.5 74.001
s74.167 31 123.5 31c140 0 210 -47.333 210 -142zM327.999 118.997l0.000976562 116.001l-79 -8c-30 -3.33301 -49.333 -12.333 -58 -27s-13 -37.334 -13 -68.001c0 -16.667 0.666992 -30.167 2 -40.5s4 -22 8 -35s11.167 -22.667 21.5 -29s23.5 -9.5 39.5 -9.5
c22.667 0 41.167 9.83301 55.5 29.5s22.166 43.5 23.499 71.5zM236 515.998l73 149c12.667 25.333 21.667 40.833 27 46.5s15.333 8.5 30 8.5c25.333 0 38 -8.33301 38 -25c0 -10 -8 -23.333 -24 -40l-131 -139h-13z" />
    <glyph glyph-name="acircumflex" unicode="&#xe2;" 
d="M460 310l-0.000976562 -230.003c0 -33.333 7.66699 -50 23 -50c11.333 0 20 5.66699 26 17s9 24.333 9 39h18c0 -29.333 -9.66699 -53 -29 -71s-45.333 -27 -78 -27c-48.667 0 -82 21 -100 63c-12 -21.333 -31.167 -37.166 -57.5 -47.499s-51.833 -15.5 -76.5 -15.5
c-42.667 0 -79.167 10.167 -109.5 30.5s-45.5 50.833 -45.5 91.5c0 24.667 5.33301 45.834 16 63.501s25.834 31.167 45.501 40.5s39.5 16.333 59.5 21s43 8 69 10l98 8v84c0 34 -5.5 58.667 -16.5 74s-33.833 23 -68.5 23c-21.333 0 -42 -2.5 -62 -7.5
s-29.667 -12.5 -29 -22.5c0 -4 4.33301 -8 13 -12s17.167 -9.83301 25.5 -17.5s12.5 -18.5 12.5 -32.5c0 -18 -5.5 -32.5 -16.5 -43.5s-25.833 -16.5 -44.5 -16.5c-21.333 0 -37.5 6.16699 -48.5 18.5s-16.5 27.833 -16.5 46.5c0 28.667 16.5 53.334 49.5 74.001
s74.167 31 123.5 31c140 0 210 -47.333 210 -142zM327.999 118.997l0.000976562 116.001l-79 -8c-30 -3.33301 -49.333 -12.333 -58 -27s-13 -37.334 -13 -68.001c0 -16.667 0.666992 -30.167 2 -40.5s4 -22 8 -35s11.167 -22.667 21.5 -29s23.5 -9.5 39.5 -9.5
c22.667 0 41.167 9.83301 55.5 29.5s22.166 43.5 23.499 71.5zM281 645.998l-128 -130h-14l108 204h68l102 -204h-14z" />
    <glyph glyph-name="atilde" unicode="&#xe3;" 
d="M460 310l-0.000976562 -230.003c0 -33.333 7.66699 -50 23 -50c11.333 0 20 5.66699 26 17s9 24.333 9 39h18c0 -29.333 -9.66699 -53 -29 -71s-45.333 -27 -78 -27c-48.667 0 -82 21 -100 63c-12 -21.333 -31.167 -37.166 -57.5 -47.499s-51.833 -15.5 -76.5 -15.5
c-42.667 0 -79.167 10.167 -109.5 30.5s-45.5 50.833 -45.5 91.5c0 24.667 5.33301 45.834 16 63.501s25.834 31.167 45.501 40.5s39.5 16.333 59.5 21s43 8 69 10l98 8v84c0 34 -5.5 58.667 -16.5 74s-33.833 23 -68.5 23c-21.333 0 -42 -2.5 -62 -7.5
s-29.667 -12.5 -29 -22.5c0 -4 4.33301 -8 13 -12s17.167 -9.83301 25.5 -17.5s12.5 -18.5 12.5 -32.5c0 -18 -5.5 -32.5 -16.5 -43.5s-25.833 -16.5 -44.5 -16.5c-21.333 0 -37.5 6.16699 -48.5 18.5s-16.5 27.833 -16.5 46.5c0 28.667 16.5 53.334 49.5 74.001
s74.167 31 123.5 31c140 0 210 -47.333 210 -142zM327.999 118.997l0.000976562 116.001l-79 -8c-30 -3.33301 -49.333 -12.333 -58 -27s-13 -37.334 -13 -68.001c0 -16.667 0.666992 -30.167 2 -40.5s4 -22 8 -35s11.167 -22.667 21.5 -29s23.5 -9.5 39.5 -9.5
c22.667 0 41.167 9.83301 55.5 29.5s22.166 43.5 23.499 71.5zM138 564.998h-18.0039c14.667 47.333 28 78.333 40 93c14.667 16.667 32 25 52 25c12.667 0 40.334 -7.66699 83.001 -23s72.667 -23 90 -23c8.66699 0 19.334 16 32.001 48h19
c-4.66699 -16 -8.66699 -28.667 -12 -38s-8.66602 -20.833 -15.999 -34.5s-16.5 -24 -27.5 -31s-23.833 -10.5 -38.5 -10.5c-19.333 0 -48.166 6.66699 -86.499 20s-65.5 20 -81.5 20c-10 0 -18 -4.66699 -24 -14s-10 -20 -12 -32z" />
    <glyph glyph-name="adieresis" unicode="&#xe4;" 
d="M460 310l-0.000976562 -230.003c0 -33.333 7.66699 -50 23 -50c11.333 0 20 5.66699 26 17s9 24.333 9 39h18c0 -29.333 -9.66699 -53 -29 -71s-45.333 -27 -78 -27c-48.667 0 -82 21 -100 63c-12 -21.333 -31.167 -37.166 -57.5 -47.499s-51.833 -15.5 -76.5 -15.5
c-42.667 0 -79.167 10.167 -109.5 30.5s-45.5 50.833 -45.5 91.5c0 24.667 5.33301 45.834 16 63.501s25.834 31.167 45.501 40.5s39.5 16.333 59.5 21s43 8 69 10l98 8v84c0 34 -5.5 58.667 -16.5 74s-33.833 23 -68.5 23c-21.333 0 -42 -2.5 -62 -7.5
s-29.667 -12.5 -29 -22.5c0 -4 4.33301 -8 13 -12s17.167 -9.83301 25.5 -17.5s12.5 -18.5 12.5 -32.5c0 -18 -5.5 -32.5 -16.5 -43.5s-25.833 -16.5 -44.5 -16.5c-21.333 0 -37.5 6.16699 -48.5 18.5s-16.5 27.833 -16.5 46.5c0 28.667 16.5 53.334 49.5 74.001
s74.167 31 123.5 31c140 0 210 -47.333 210 -142zM327.999 118.997l0.000976562 116.001l-79 -8c-30 -3.33301 -49.333 -12.333 -58 -27s-13 -37.334 -13 -68.001c0 -16.667 0.666992 -30.167 2 -40.5s4 -22 8 -35s11.167 -22.667 21.5 -29s23.5 -9.5 39.5 -9.5
c22.667 0 41.167 9.83301 55.5 29.5s22.166 43.5 23.499 71.5zM128 625.998c0 17.333 6.16699 32.166 18.5 44.499s27.166 18.5 44.499 18.5s32.166 -6.16699 44.499 -18.5s18.5 -27.166 18.5 -44.499s-6.16699 -32.166 -18.5 -44.499s-27.166 -18.5 -44.499 -18.5
s-32.166 6.16699 -44.499 18.5s-18.5 27.166 -18.5 44.499zM302 625.998c0 17.333 6.16699 32.166 18.5 44.499s27.166 18.5 44.499 18.5s32.166 -6.16699 44.499 -18.5s18.5 -27.166 18.5 -44.499s-6.16699 -32.166 -18.5 -44.499s-27.166 -18.5 -44.499 -18.5
s-32.166 6.16699 -44.499 18.5s-18.5 27.166 -18.5 44.499z" />
    <glyph glyph-name="aring" unicode="&#xe5;" 
d="M460 310l-0.000976562 -230.003c0 -33.333 7.66699 -50 23 -50c11.333 0 20 5.66699 26 17s9 24.333 9 39h18c0 -29.333 -9.66699 -53 -29 -71s-45.333 -27 -78 -27c-48.667 0 -82 21 -100 63c-12 -21.333 -31.167 -37.166 -57.5 -47.499s-51.833 -15.5 -76.5 -15.5
c-42.667 0 -79.167 10.167 -109.5 30.5s-45.5 50.833 -45.5 91.5c0 24.667 5.33301 45.834 16 63.501s25.834 31.167 45.501 40.5s39.5 16.333 59.5 21s43 8 69 10l98 8v84c0 34 -5.5 58.667 -16.5 74s-33.833 23 -68.5 23c-21.333 0 -42 -2.5 -62 -7.5
s-29.667 -12.5 -29 -22.5c0 -4 4.33301 -8 13 -12s17.167 -9.83301 25.5 -17.5s12.5 -18.5 12.5 -32.5c0 -18 -5.5 -32.5 -16.5 -43.5s-25.833 -16.5 -44.5 -16.5c-21.333 0 -37.5 6.16699 -48.5 18.5s-16.5 27.833 -16.5 46.5c0 28.667 16.5 53.334 49.5 74.001
s74.167 31 123.5 31c140 0 210 -47.333 210 -142zM327.999 118.997l0.000976562 116.001l-79 -8c-30 -3.33301 -49.333 -12.333 -58 -27s-13 -37.334 -13 -68.001c0 -16.667 0.666992 -30.167 2 -40.5s4 -22 8 -35s11.167 -22.667 21.5 -29s23.5 -9.5 39.5 -9.5
c22.667 0 41.167 9.83301 55.5 29.5s22.166 43.5 23.499 71.5zM162 599.998c0 30 10.5 55.5 31.5 76.5s46.5 31.5 76.5 31.5s55.5 -10.5 76.5 -31.5s31.5 -46.5 31.5 -76.5s-10.5 -55.5 -31.5 -76.5s-46.5 -31.5 -76.5 -31.5s-55.5 10.5 -76.5 31.5s-31.5 46.5 -31.5 76.5z
M210 599.998c0 -16.667 5.83301 -30.834 17.5 -42.501s25.834 -17.5 42.501 -17.5s30.834 5.83301 42.501 17.5s17.5 25.834 17.5 42.501s-5.83301 30.834 -17.5 42.501s-25.834 17.5 -42.501 17.5s-30.834 -5.83301 -42.501 -17.5s-17.5 -25.834 -17.5 -42.501z" />
    <glyph glyph-name="ae" unicode="&#xe6;" horiz-adv-x="777" 
d="M442 260h143v96c0 51.333 -24 77 -72 77c-47.333 0 -71 -32.333 -71 -97v-76zM316 108l-0.000976562 127.004l-65 -8c-25.333 -3.33301 -43.833 -11.833 -55.5 -25.5s-17.5 -36.834 -17.5 -69.501c0 -16.667 0.5 -30.334 1.5 -41.001s3.33301 -22.334 7 -35.001
s9.83398 -22.167 18.501 -28.5s20 -9.5 34 -9.5c18.667 0 36.167 9.16699 52.5 27.5s24.5 39.166 24.5 62.499zM441.999 242.004l-0.000976562 -84.001c0 -97.333 39.667 -146 119 -146c38.667 0 71.834 13.5 99.501 40.5s47.167 63.833 58.5 110.5h18
c-26 -116.667 -94.667 -175 -206 -175c-41.333 0 -80.333 9 -117 27s-62.667 44 -78 78h-2c-6 -21.333 -14.833 -39.333 -26.5 -54s-24.5 -25.5 -38.5 -32.5s-27 -11.833 -39 -14.5s-23.667 -4 -35 -4c-42.667 0 -79.167 10.167 -109.5 30.5s-45.5 50.833 -45.5 91.5
c0 45.333 17.167 78 51.5 98s85.166 32.667 152.499 38l72 6v85c0 33.333 -4.83301 57.833 -14.5 73.5s-29.167 23.5 -58.5 23.5c-60.667 0 -91 -10 -91 -30c0 -4 4.33301 -7.66699 13 -11s17.167 -8.83301 25.5 -16.5s12.5 -19.167 12.5 -34.5
c0 -18 -5.5 -32.5 -16.5 -43.5s-25.833 -16.5 -44.5 -16.5c-21.333 0 -37.5 6.33301 -48.5 19s-16.5 29.667 -16.5 51c0 30.667 16 55 48 73s73.667 27 125 27c66.667 0 117.334 -14.333 152.001 -43c32 28.667 74 43 126 43c57.333 0 106 -21.167 146 -63.5
s60.333 -91.166 61 -146.499h-293z" />
    <glyph glyph-name="ccedilla" unicode="&#xe7;" horiz-adv-x="500" 
d="M273 -11l-44.001 -73.002l2 -2c15.333 6.66699 35.666 10 60.999 10c19.333 0 37.333 -5.66699 54 -17s25 -26.333 25 -45c0 -27.333 -11.833 -47.166 -35.5 -59.499s-50.5 -18.5 -80.5 -18.5c-28.667 0 -63.667 7.33301 -105 22l8 13c20.667 -7.33301 43.667 -11 69 -11
c44 -2 66 15.333 66 52c0 10.667 -3.33301 20 -10 28s-16 12 -28 12c-13.333 0 -27 -2 -41 -6l-17 7l54 91c-60 5.33301 -110.167 29.166 -150.5 71.499s-60.5 93.833 -60.5 154.5c0 60 24.833 114 74.5 162s107.167 72 172.5 72c24.667 0 49.667 -3.83301 75 -11.5
s47.833 -20.667 67.5 -39s29.5 -40.5 29.5 -66.5c0 -19.333 -6.33301 -35.666 -19 -48.999s-30.667 -20 -54 -20c-20 0 -35.833 6.5 -47.5 19.5s-17.5 29.167 -17.5 48.5c0 13.333 3.16699 24.333 9.5 33s12.666 15.667 18.999 21s9.5 10 9.5 14
c0 8.66699 -6.5 16.167 -19.5 22.5s-30.5 9.5 -52.5 9.5c-36 0 -61.167 -11.167 -75.5 -33.5s-21.5 -61.166 -21.5 -116.499v-114c0 -63.333 8 -106.5 24 -129.5s41 -34.5 75 -34.5c42.667 0 79.334 13.5 110.001 40.5s48 59.167 52 96.5h18
c-5.33301 -46.667 -25.166 -84.167 -59.499 -112.5s-77.5 -42.5 -129.5 -42.5c-3.33301 0 -5.66602 0.333008 -6.99902 1z" />
    <glyph glyph-name="egrave" unicode="&#xe8;" horiz-adv-x="500" 
d="M466 242l-276 -0.000976562v-84c0 -20 1.16699 -37.333 3.5 -52s6.66602 -29.834 12.999 -45.501s16.833 -27.667 31.5 -36s33 -12.5 55 -12.5c38.667 0 71.834 13.5 99.501 40.5s47.167 63.833 58.5 110.5h18c-26 -116.667 -94.667 -175 -206 -175
c-64 0 -117.167 21.5 -159.5 64.5s-63.5 97.167 -63.5 162.5c0 66.667 21.667 122.834 65 168.501s95 68.5 155 68.5c52 0.666992 99.167 -20.666 141.5 -63.999s63.833 -92 64.5 -146zM190 259.999h126.001v86c0 29.333 -4.83301 51.333 -14.5 66s-25.834 22 -48.501 22
c-42 0 -63 -29.333 -63 -88v-86zM219.001 664.999l73 -149h-13l-131 139c-16 16.667 -24 30 -24 40c0 16.667 12.667 25 38 25c14.667 0 24.667 -2.83301 30 -8.5s14.333 -21.167 27 -46.5z" />
    <glyph glyph-name="eacute" unicode="&#xe9;" horiz-adv-x="500" 
d="M466 242l-276 -0.000976562v-84c0 -20 1.16699 -37.333 3.5 -52s6.66602 -29.834 12.999 -45.501s16.833 -27.667 31.5 -36s33 -12.5 55 -12.5c38.667 0 71.834 13.5 99.501 40.5s47.167 63.833 58.5 110.5h18c-26 -116.667 -94.667 -175 -206 -175
c-64 0 -117.167 21.5 -159.5 64.5s-63.5 97.167 -63.5 162.5c0 66.667 21.667 122.834 65 168.501s95 68.5 155 68.5c52 0.666992 99.167 -20.666 141.5 -63.999s63.833 -92 64.5 -146zM190 259.999h126.001v86c0 29.333 -4.83301 51.333 -14.5 66s-25.834 22 -48.501 22
c-42 0 -63 -29.333 -63 -88v-86zM208.001 515.999l73 149c12.667 25.333 21.667 40.833 27 46.5s15.333 8.5 30 8.5c25.333 0 38 -8.33301 38 -25c0 -10 -8 -23.333 -24 -40l-131 -139h-13z" />
    <glyph glyph-name="ecircumflex" unicode="&#xea;" horiz-adv-x="500" 
d="M466 242l-276 -0.000976562v-84c0 -20 1.16699 -37.333 3.5 -52s6.66602 -29.834 12.999 -45.501s16.833 -27.667 31.5 -36s33 -12.5 55 -12.5c38.667 0 71.834 13.5 99.501 40.5s47.167 63.833 58.5 110.5h18c-26 -116.667 -94.667 -175 -206 -175
c-64 0 -117.167 21.5 -159.5 64.5s-63.5 97.167 -63.5 162.5c0 66.667 21.667 122.834 65 168.501s95 68.5 155 68.5c52 0.666992 99.167 -20.666 141.5 -63.999s63.833 -92 64.5 -146zM190 259.999h126.001v86c0 29.333 -4.83301 51.333 -14.5 66s-25.834 22 -48.501 22
c-42 0 -63 -29.333 -63 -88v-86zM253.001 645.999l-128 -130h-14l108 204h68l102 -204h-14z" />
    <glyph glyph-name="edieresis" unicode="&#xeb;" horiz-adv-x="500" 
d="M466 242l-276 -0.000976562v-84c0 -20 1.16699 -37.333 3.5 -52s6.66602 -29.834 12.999 -45.501s16.833 -27.667 31.5 -36s33 -12.5 55 -12.5c38.667 0 71.834 13.5 99.501 40.5s47.167 63.833 58.5 110.5h18c-26 -116.667 -94.667 -175 -206 -175
c-64 0 -117.167 21.5 -159.5 64.5s-63.5 97.167 -63.5 162.5c0 66.667 21.667 122.834 65 168.501s95 68.5 155 68.5c52 0.666992 99.167 -20.666 141.5 -63.999s63.833 -92 64.5 -146zM190 259.999h126.001v86c0 29.333 -4.83301 51.333 -14.5 66s-25.834 22 -48.501 22
c-42 0 -63 -29.333 -63 -88v-86zM100.001 625.999c0 17.333 6.16699 32.166 18.5 44.499s27.166 18.5 44.499 18.5s32.166 -6.16699 44.499 -18.5s18.5 -27.166 18.5 -44.499s-6.16699 -32.166 -18.5 -44.499s-27.166 -18.5 -44.499 -18.5s-32.166 6.16699 -44.499 18.5
s-18.5 27.166 -18.5 44.499zM274.001 625.999c0 17.333 6.16699 32.166 18.5 44.499s27.166 18.5 44.499 18.5s32.166 -6.16699 44.499 -18.5s18.5 -27.166 18.5 -44.499s-6.16699 -32.166 -18.5 -44.499s-27.166 -18.5 -44.499 -18.5s-32.166 6.16699 -44.499 18.5
s-18.5 27.166 -18.5 44.499z" />
    <glyph glyph-name="igrave" unicode="&#xec;" horiz-adv-x="334" 
d="M29 0v18h69v404h-69v18h71c76.667 0 122 8.66699 136 26v-448h69v-18h-276zM136 665l73 -149h-13l-131 139c-16 16.667 -24 30 -24 40c0 16.667 12.667 25 38 25c14.667 0 24.667 -2.83301 30 -8.5s14.333 -21.167 27 -46.5z" />
    <glyph glyph-name="iacute" unicode="&#xed;" horiz-adv-x="334" 
d="M29 0v18h69v404h-69v18h71c76.667 0 122 8.66699 136 26v-448h69v-18h-276zM125 516l73 149c12.667 25.333 21.667 40.833 27 46.5s15.333 8.5 30 8.5c25.333 0 38 -8.33301 38 -25c0 -10 -8 -23.333 -24 -40l-131 -139h-13z" />
    <glyph glyph-name="icircumflex" unicode="&#xee;" horiz-adv-x="334" 
d="M29 0v18h69v404h-69v18h71c76.667 0 122 8.66699 136 26v-448h69v-18h-276zM170 646l-128 -130h-14l108 204h68l102 -204h-14z" />
    <glyph glyph-name="idieresis" unicode="&#xef;" horiz-adv-x="334" 
d="M29 0v18h69v404h-69v18h71c76.667 0 122 8.66699 136 26v-448h69v-18h-276zM17 626c0 17.333 6.16699 32.166 18.5 44.499s27.166 18.5 44.499 18.5s32.166 -6.16699 44.499 -18.5s18.5 -27.166 18.5 -44.499s-6.16699 -32.166 -18.5 -44.499
s-27.166 -18.5 -44.499 -18.5s-32.166 6.16699 -44.499 18.5s-18.5 27.166 -18.5 44.499zM191 626c0 17.333 6.16699 32.166 18.5 44.499s27.166 18.5 44.499 18.5s32.166 -6.16699 44.499 -18.5s18.5 -27.166 18.5 -44.499s-6.16699 -32.166 -18.5 -44.499
s-27.166 -18.5 -44.499 -18.5s-32.166 6.16699 -44.499 18.5s-18.5 27.166 -18.5 44.499z" />
    <glyph glyph-name="eth" unicode="&#xf0;" 
d="M196 340v-240c0 -62.667 27.333 -94 82 -94s82 31.333 82 94v240c0 62.667 -27.333 94 -82 94s-82 -31.333 -82 -94zM141 567l97.999 57c-38.667 38.667 -78 64.667 -118 78l8 18c66 -7.33301 123.667 -27 173 -59l102 59l22 -20l-97 -56
c58.667 -42 104.5 -97 137.5 -165s49.5 -141 49.5 -219c0 -85.333 -22.5 -152 -67.5 -200s-101.833 -72 -170.5 -72c-67.333 0 -123.833 21.833 -169.5 65.5s-68.5 99.167 -68.5 166.5s22.833 122.833 68.5 166.5s102.167 65.5 169.5 65.5c32.667 0 57.334 -10 74.001 -30
l2 1c-10.667 62.667 -42 123 -94 181l-98 -57z" />
    <glyph glyph-name="ntilde" unicode="&#xf1;" horiz-adv-x="611" 
d="M16 0v17.999h69v404h-69v18h71c76.667 0 122 8.66699 136 26v-107h2c13.333 28.667 34.833 51.334 64.5 68.001s61.5 25 95.5 25c48 0 83.5 -12.5 106.5 -37.5s34.5 -64.167 34.5 -117.5v-279h69v-18h-264v18h57v316c0 54.667 -19.667 82 -59 82
c-26.667 0 -51 -13.833 -73 -41.5s-33 -55.167 -33 -82.5v-274h59v-18h-266zM166 564.999h-18.0039c14.667 47.333 28 78.333 40 93c14.667 16.667 32 25 52 25c12.667 0 40.334 -7.66699 83.001 -23s72.667 -23 90 -23c8.66699 0 19.334 16 32.001 48h19
c-4.66699 -16 -8.66699 -28.667 -12 -38s-8.66602 -20.833 -15.999 -34.5s-16.5 -24 -27.5 -31s-23.833 -10.5 -38.5 -10.5c-19.333 0 -48.166 6.66699 -86.499 20s-65.5 20 -81.5 20c-10 0 -18 -4.66699 -24 -14s-10 -20 -12 -32z" />
    <glyph glyph-name="ograve" unicode="&#xf2;" 
d="M40 220c0 67.333 22.833 122.833 68.5 166.5s102.167 65.5 169.5 65.5s123.833 -21.833 169.5 -65.5s68.5 -99.167 68.5 -166.5s-22.833 -122.833 -68.5 -166.5s-102.167 -65.5 -169.5 -65.5s-123.833 21.833 -169.5 65.5s-68.5 99.167 -68.5 166.5zM196 328v-216
c0 -70.667 27.333 -106 82 -106s82 35.333 82 106v216c0 70.667 -27.333 106 -82 106s-82 -35.333 -82 -106zM247 665l73 -149h-13l-131 139c-16 16.667 -24 30 -24 40c0 16.667 12.667 25 38 25c14.667 0 24.667 -2.83301 30 -8.5s14.333 -21.167 27 -46.5z" />
    <glyph glyph-name="oacute" unicode="&#xf3;" 
d="M40 220c0 67.333 22.833 122.833 68.5 166.5s102.167 65.5 169.5 65.5s123.833 -21.833 169.5 -65.5s68.5 -99.167 68.5 -166.5s-22.833 -122.833 -68.5 -166.5s-102.167 -65.5 -169.5 -65.5s-123.833 21.833 -169.5 65.5s-68.5 99.167 -68.5 166.5zM196 328v-216
c0 -70.667 27.333 -106 82 -106s82 35.333 82 106v216c0 70.667 -27.333 106 -82 106s-82 -35.333 -82 -106zM236 516l73 149c12.667 25.333 21.667 40.833 27 46.5s15.333 8.5 30 8.5c25.333 0 38 -8.33301 38 -25c0 -10 -8 -23.333 -24 -40l-131 -139h-13z" />
    <glyph glyph-name="ocircumflex" unicode="&#xf4;" 
d="M40 220c0 67.333 22.833 122.833 68.5 166.5s102.167 65.5 169.5 65.5s123.833 -21.833 169.5 -65.5s68.5 -99.167 68.5 -166.5s-22.833 -122.833 -68.5 -166.5s-102.167 -65.5 -169.5 -65.5s-123.833 21.833 -169.5 65.5s-68.5 99.167 -68.5 166.5zM196 328v-216
c0 -70.667 27.333 -106 82 -106s82 35.333 82 106v216c0 70.667 -27.333 106 -82 106s-82 -35.333 -82 -106zM281 646l-128 -130h-14l108 204h68l102 -204h-14z" />
    <glyph glyph-name="otilde" unicode="&#xf5;" 
d="M40 220c0 67.333 22.833 122.833 68.5 166.5s102.167 65.5 169.5 65.5s123.833 -21.833 169.5 -65.5s68.5 -99.167 68.5 -166.5s-22.833 -122.833 -68.5 -166.5s-102.167 -65.5 -169.5 -65.5s-123.833 21.833 -169.5 65.5s-68.5 99.167 -68.5 166.5zM196 328v-216
c0 -70.667 27.333 -106 82 -106s82 35.333 82 106v216c0 70.667 -27.333 106 -82 106s-82 -35.333 -82 -106zM138 565h-18.0039c14.667 47.333 28 78.333 40 93c14.667 16.667 32 25 52 25c12.667 0 40.334 -7.66699 83.001 -23s72.667 -23 90 -23
c8.66699 0 19.334 16 32.001 48h19c-4.66699 -16 -8.66699 -28.667 -12 -38s-8.66602 -20.833 -15.999 -34.5s-16.5 -24 -27.5 -31s-23.833 -10.5 -38.5 -10.5c-19.333 0 -48.166 6.66699 -86.499 20s-65.5 20 -81.5 20c-10 0 -18 -4.66699 -24 -14s-10 -20 -12 -32z" />
    <glyph glyph-name="odieresis" unicode="&#xf6;" 
d="M40 220c0 67.333 22.833 122.833 68.5 166.5s102.167 65.5 169.5 65.5s123.833 -21.833 169.5 -65.5s68.5 -99.167 68.5 -166.5s-22.833 -122.833 -68.5 -166.5s-102.167 -65.5 -169.5 -65.5s-123.833 21.833 -169.5 65.5s-68.5 99.167 -68.5 166.5zM196 328v-216
c0 -70.667 27.333 -106 82 -106s82 35.333 82 106v216c0 70.667 -27.333 106 -82 106s-82 -35.333 -82 -106zM128 626c0 17.333 6.16699 32.166 18.5 44.499s27.166 18.5 44.499 18.5s32.166 -6.16699 44.499 -18.5s18.5 -27.166 18.5 -44.499
s-6.16699 -32.166 -18.5 -44.499s-27.166 -18.5 -44.499 -18.5s-32.166 6.16699 -44.499 18.5s-18.5 27.166 -18.5 44.499zM302 626c0 17.333 6.16699 32.166 18.5 44.499s27.166 18.5 44.499 18.5s32.166 -6.16699 44.499 -18.5s18.5 -27.166 18.5 -44.499
s-6.16699 -32.166 -18.5 -44.499s-27.166 -18.5 -44.499 -18.5s-32.166 6.16699 -44.499 18.5s-18.5 27.166 -18.5 44.499z" />
    <glyph glyph-name="divide" unicode="&#xf7;" horiz-adv-x="600" 
d="M47 211v84h506v-84h-506zM224 460c0 18.667 7.33301 35.334 22 50.001s31.334 22 50.001 22s35.334 -7.33301 50.001 -22s22 -31.334 22 -50.001s-7.33301 -35.334 -22 -50.001s-31.334 -22 -50.001 -22s-35.334 7.33301 -50.001 22s-22 31.334 -22 50.001zM224 46
c0 18.667 7.33301 35.334 22 50.001s31.334 22 50.001 22s35.334 -7.33301 50.001 -22s22 -31.334 22 -50.001s-7.33301 -35.334 -22 -50.001s-31.334 -22 -50.001 -22s-35.334 7.33301 -50.001 22s-22 31.334 -22 50.001z" />
    <glyph glyph-name="oslash" unicode="&#xf8;" 
d="M196 328l-0.000976562 -224h2l150 292c-13.333 25.333 -36.666 38 -69.999 38c-54.667 0 -82 -35.333 -82 -106zM359.999 112v249h-2l-157 -301c7.33301 -36 33 -54 77 -54c54.667 0 82 35.333 82 106zM130.999 -21l22 43.001c-35.333 20 -63 47.167 -83 81.5
s-30 73.166 -30 116.499c0 67.333 22.833 122.833 68.5 166.5s102.167 65.5 169.5 65.5c33.333 0 63.666 -5.33301 90.999 -16l19 37l23 -11l-19 -37c38 -18.667 68.167 -46 90.5 -82s33.5 -77 33.5 -123c0 -67.333 -22.833 -122.833 -68.5 -166.5
s-102.167 -65.5 -169.5 -65.5c-37.333 0 -71.666 7.33301 -102.999 22l-22 -43z" />
    <glyph glyph-name="ugrave" unicode="&#xf9;" horiz-adv-x="611" 
d="M319 422l-0.000976562 17.999h71c76.667 0 122 8.66699 136 26v-448h69v-18h-207v84h-2c-13.333 -30 -34.666 -53.5 -63.999 -70.5s-61.333 -25.5 -96 -25.5c-48 0 -83.5 12.5 -106.5 37.5s-34.5 64.167 -34.5 117.5v279h-69v18h71c76.667 0 122 8.66699 136 26v-348
c0 -32 4 -55.667 12 -71s23.333 -23 46 -23c27.333 0 52 14.833 74 44.5s33 60.834 33 93.501v260h-69zM274.999 664.999l73 -149h-13l-131 139c-16 16.667 -24 30 -24 40c0 16.667 12.667 25 38 25c14.667 0 24.667 -2.83301 30 -8.5s14.333 -21.167 27 -46.5z" />
    <glyph glyph-name="uacute" unicode="&#xfa;" horiz-adv-x="611" 
d="M319 422l-0.000976562 17.999h71c76.667 0 122 8.66699 136 26v-448h69v-18h-207v84h-2c-13.333 -30 -34.666 -53.5 -63.999 -70.5s-61.333 -25.5 -96 -25.5c-48 0 -83.5 12.5 -106.5 37.5s-34.5 64.167 -34.5 117.5v279h-69v18h71c76.667 0 122 8.66699 136 26v-348
c0 -32 4 -55.667 12 -71s23.333 -23 46 -23c27.333 0 52 14.833 74 44.5s33 60.834 33 93.501v260h-69zM263.999 515.999l73 149c12.667 25.333 21.667 40.833 27 46.5s15.333 8.5 30 8.5c25.333 0 38 -8.33301 38 -25c0 -10 -8 -23.333 -24 -40l-131 -139h-13z" />
    <glyph glyph-name="ucircumflex" unicode="&#xfb;" horiz-adv-x="611" 
d="M319 422l-0.000976562 17.999h71c76.667 0 122 8.66699 136 26v-448h69v-18h-207v84h-2c-13.333 -30 -34.666 -53.5 -63.999 -70.5s-61.333 -25.5 -96 -25.5c-48 0 -83.5 12.5 -106.5 37.5s-34.5 64.167 -34.5 117.5v279h-69v18h71c76.667 0 122 8.66699 136 26v-348
c0 -32 4 -55.667 12 -71s23.333 -23 46 -23c27.333 0 52 14.833 74 44.5s33 60.834 33 93.501v260h-69zM308.999 645.999l-128 -130h-14l108 204h68l102 -204h-14z" />
    <glyph glyph-name="udieresis" unicode="&#xfc;" horiz-adv-x="611" 
d="M319 422l-0.000976562 17.999h71c76.667 0 122 8.66699 136 26v-448h69v-18h-207v84h-2c-13.333 -30 -34.666 -53.5 -63.999 -70.5s-61.333 -25.5 -96 -25.5c-48 0 -83.5 12.5 -106.5 37.5s-34.5 64.167 -34.5 117.5v279h-69v18h71c76.667 0 122 8.66699 136 26v-348
c0 -32 4 -55.667 12 -71s23.333 -23 46 -23c27.333 0 52 14.833 74 44.5s33 60.834 33 93.501v260h-69zM155.999 625.999c0 17.333 6.16699 32.166 18.5 44.499s27.166 18.5 44.499 18.5s32.166 -6.16699 44.499 -18.5s18.5 -27.166 18.5 -44.499
s-6.16699 -32.166 -18.5 -44.499s-27.166 -18.5 -44.499 -18.5s-32.166 6.16699 -44.499 18.5s-18.5 27.166 -18.5 44.499zM329.999 625.999c0 17.333 6.16699 32.166 18.5 44.499s27.166 18.5 44.499 18.5s32.166 -6.16699 44.499 -18.5s18.5 -27.166 18.5 -44.499
s-6.16699 -32.166 -18.5 -44.499s-27.166 -18.5 -44.499 -18.5s-32.166 6.16699 -44.499 18.5s-18.5 27.166 -18.5 44.499z" />
    <glyph glyph-name="yacute" unicode="&#xfd;" horiz-adv-x="500" 
d="M8 422l-0.000976562 17.9971h257v-18h-66l117 -263l58 137c19.333 46 29 76.333 29 91c0 9.33301 -4 17.5 -12 24.5s-19.333 10.5 -34 10.5h-21v18h156v-18h-8c-21.333 0 -42.666 -25 -63.999 -75l-99 -223l-52 -130l-27 -122
c-3.33301 -15.333 -6.66602 -28.333 -9.99902 -39s-9 -24 -17 -40s-18.833 -28.333 -32.5 -37s-29.834 -13 -48.501 -13c-22.667 0 -42 6.66699 -58 20s-24 30 -24 50s5.66699 36.333 17 49s27.666 19 48.999 19c20.667 0 36.834 -5.66699 48.501 -17
s17.5 -25.666 17.5 -42.999c0 -11.333 -1.66699 -22.666 -5 -33.999v-3c14 4 26 23.333 36 58s17 66.334 21 95.001l6 40l-192 445h-42zM207.999 515.997l73 149c12.667 25.333 21.667 40.833 27 46.5s15.333 8.5 30 8.5c25.333 0 38 -8.33301 38 -25
c0 -10 -8 -23.333 -24 -40l-131 -139h-13z" />
    <glyph glyph-name="thorn" unicode="&#xfe;" horiz-adv-x="611" 
d="M16 -265l-0.000976562 18h69v933h-69v18h63c30.667 0 53.167 0.333008 67.5 1s29.333 3.33398 45 8.00098s26.167 12 31.5 22v-353l2 -7c26 51.333 67.333 77 124 77c64.667 0 116.334 -23.333 155.001 -70s58 -103.334 58 -170.001c0 -66 -21.667 -119.833 -65 -161.5
s-92 -62.5 -146 -62.5c-58 0 -100 24.333 -126 73h-2v-308h76v-18h-283zM222.999 307v-175.001c0 -31.333 9.5 -59.166 28.5 -83.499s44.167 -36.5 75.5 -36.5c56.667 0 85 42.667 85 128v186c0 30 -7 54.5 -21 73.5s-34 28.5 -60 28.5c-32 0 -58 -12.5 -78 -37.5
s-30 -52.833 -30 -83.5z" />
    <glyph glyph-name="ydieresis" unicode="&#xff;" horiz-adv-x="500" 
d="M8 422l-0.000976562 17.9971h257v-18h-66l117 -263l58 137c19.333 46 29 76.333 29 91c0 9.33301 -4 17.5 -12 24.5s-19.333 10.5 -34 10.5h-21v18h156v-18h-8c-21.333 0 -42.666 -25 -63.999 -75l-99 -223l-52 -130l-27 -122
c-3.33301 -15.333 -6.66602 -28.333 -9.99902 -39s-9 -24 -17 -40s-18.833 -28.333 -32.5 -37s-29.834 -13 -48.501 -13c-22.667 0 -42 6.66699 -58 20s-24 30 -24 50s5.66699 36.333 17 49s27.666 19 48.999 19c20.667 0 36.834 -5.66699 48.501 -17
s17.5 -25.666 17.5 -42.999c0 -11.333 -1.66699 -22.666 -5 -33.999v-3c14 4 26 23.333 36 58s17 66.334 21 95.001l6 40l-192 445h-42zM99.999 625.997c0 17.333 6.16699 32.166 18.5 44.499s27.166 18.5 44.499 18.5s32.166 -6.16699 44.499 -18.5
s18.5 -27.166 18.5 -44.499s-6.16699 -32.166 -18.5 -44.499s-27.166 -18.5 -44.499 -18.5s-32.166 6.16699 -44.499 18.5s-18.5 27.166 -18.5 44.499zM273.999 625.997c0 17.333 6.16699 32.166 18.5 44.499s27.166 18.5 44.499 18.5s32.166 -6.16699 44.499 -18.5
s18.5 -27.166 18.5 -44.499s-6.16699 -32.166 -18.5 -44.499s-27.166 -18.5 -44.499 -18.5s-32.166 6.16699 -44.499 18.5s-18.5 27.166 -18.5 44.499z" />
    <glyph glyph-name="dotlessi" unicode="&#x131;" horiz-adv-x="334" 
d="M29 0v18h69v404h-69v18h71c76.667 0 122 8.66699 136 26v-448h69v-18h-276z" />
    <glyph glyph-name="Lslash" unicode="&#x141;" horiz-adv-x="667" 
d="M27 0v18h81v282l-78 -52v34l78 52v352h-81v18h327v-18h-90v-248l162 108v-34l-162 -108v-386h115c82.667 0 139.5 17.5 170.5 52.5s46.5 84.833 46.5 149.5v20h18v-240h-587z" />
    <glyph glyph-name="lslash" unicode="&#x142;" horiz-adv-x="334" 
d="M29 0v17.999h69v315l-67 -45v34l67 45v319h-69v18h63c30.667 0 53.167 0.333008 67.5 1s29.333 3.33398 45 8.00098s26.167 11.667 31.5 21v-275l69 46v-34l-69 -46v-407h69v-18h-276z" />
    <glyph glyph-name="OE" unicode="&#x152;" horiz-adv-x="1000" 
d="M475 142l0.00195312 439c0.666992 43.333 -9.33301 74.333 -30 93s-47.334 28 -80.001 28c-24.667 0 -45.334 -3.66699 -62.001 -11s-32.5 -21.333 -47.5 -42s-26.167 -52 -33.5 -94s-11 -95 -11 -159v-95c0 -199.333 50.333 -299 151 -299c43.333 0 73 11 89 33
s24 57.667 24 107zM947.002 225l-0.00390625 -225h-395c-21.333 -0 -54.666 -2.66699 -99.999 -8s-75.333 -8 -90 -8c-90 0 -165.667 35.333 -227 106s-92 158 -92 262c0 63.333 12.333 122.666 37 177.999s61.334 100.833 110.001 136.5s104.667 53.5 168 53.5
c14 0 26 -0.5 36 -1.5s19.667 -2.5 29 -4.5s15 -3.33301 17 -4c33.333 -4 60 -6 80 -6h399v-199h-18v26c0 103.333 -63 155 -189 155h-87v-306h56c63.333 0 95 41.667 95 125v18h18v-316h-18v24c0 13.333 -1.66699 27 -5 41s-9 28 -17 42s-19.833 25.5 -35.5 34.5
s-34.167 13.5 -55.5 13.5h-38v-344h101c36.667 0.666992 68.334 5.33398 95.001 14.001s46.834 18.667 60.501 30s24.167 26.333 31.5 45s11.833 35 13.5 49s2.5 31 2.5 51v18h18z" />
    <glyph glyph-name="oe" unicode="&#x153;" horiz-adv-x="833" 
d="M490 260h143v96c0 51.333 -24 77 -72 77c-47.333 0 -71 -32.333 -71 -97v-76zM490 242l-0.000976562 -84.001c0 -97.333 39.667 -146 119 -146c38.667 0 71.834 13.5 99.501 40.5s47.167 63.833 58.5 110.5h18c-26 -116.667 -94.667 -175 -206 -175
c-26 0 -52.833 5 -80.5 15s-51.167 23.333 -70.5 40c-48.667 -36.667 -98.667 -55 -150 -55c-67.333 0 -123.833 21.833 -169.5 65.5s-68.5 99.167 -68.5 166.5s22.833 122.833 68.5 166.5s102.167 65.5 169.5 65.5c56 0 105.333 -19.667 148 -59h2
c42.667 39.333 92 59 148 59c57.333 0 106 -21.167 146 -63.5s60.333 -91.166 61 -146.499h-293zM195.999 339.999v-240c0 -62.667 27 -94 81 -94c58 0 87 31.333 87 94v219c0 76.667 -29 115 -87 115c-54 0 -81 -31.333 -81 -94z" />
    <glyph glyph-name="Scaron" unicode="&#x160;" horiz-adv-x="611" 
d="M60 -1v266.002h18c6.66699 -30.667 16.167 -60.5 28.5 -89.5s28 -57 47 -84s42.333 -48.667 70 -65s57.5 -24.5 89.5 -24.5c43.333 0 78.166 12.667 104.499 38s39.5 59.666 39.5 102.999c0 29.333 -7.33301 53.5 -22 72.5s-33.667 33.167 -57 42.5
s-49.166 17.333 -77.499 24s-56.833 14.5 -85.5 23.5s-54.667 20.333 -78 34s-42.333 34.5 -57 62.5s-22 62.333 -22 103c0 65.333 20 117.5 60 156.5s93.333 58.5 160 58.5c29.333 0 55.5 -4.5 78.5 -13.5s42.5 -18 58.5 -27s29.667 -13.5 41 -13.5c21.333 0 32 13 32 39
h18v-225h-18c-34.667 148 -103.667 222 -207 222c-38.667 0 -70.5 -11.833 -95.5 -35.5s-37.5 -54.5 -37.5 -92.5c0 -26 7.5 -47.167 22.5 -63.5s34.333 -28.5 58 -36.5s49.834 -14.833 78.501 -20.5s57.5 -12.667 86.5 -21s55.333 -19.333 79 -33s43 -34.334 58 -62.001
s22.5 -61.5 22.5 -101.5c0 -78 -20.5 -139.5 -61.5 -184.5s-96.833 -67.5 -167.5 -67.5c-32.667 0 -73.334 8.66699 -122.001 26s-77.667 26 -87 26c-24.667 0 -37 -12.333 -37 -37h-18zM303 809.002l128 130h14l-108 -204h-68l-102 204h14z" />
    <glyph glyph-name="scaron" unicode="&#x161;" horiz-adv-x="444" 
d="M58 -12l-0.00195312 167.998h18c10 -39.333 29.5 -74.166 58.5 -104.499s61.5 -45.5 97.5 -45.5c28 0 51.333 7.83301 70 23.5s28 36.5 28 62.5c0 21.333 -7.16699 35.833 -21.5 43.5s-41.166 13.834 -80.499 18.501l-34.5 4.5c-7.66699 1 -18.667 3.16699 -33 6.5
s-25.5 7 -33.5 11s-17.333 9.66699 -28 17s-18.834 15.833 -24.501 25.5s-10.5 21.667 -14.5 36s-6 30.5 -6 48.5c0 36.667 13.333 70.667 40 102s63 47 109 47c16.667 0 35.834 -3.66699 57.501 -11s37.167 -11 46.5 -11s16.833 2.16699 22.5 6.5s8.5 9.5 8.5 15.5h15
l6 -142h-16c-32 82.667 -78.667 124 -140 124c-28 0 -50.833 -6.83301 -68.5 -20.5s-26.5 -31.834 -26.5 -54.501c0 -20 7.16699 -34 21.5 -42s37.5 -14.333 69.5 -19c22 -3.33301 37 -5.5 45 -6.5s21 -3.5 39 -7.5s30.333 -7.83301 37 -11.5s15.834 -9.16699 27.501 -16.5
s19.667 -15.5 24 -24.5s8.5 -20.167 12.5 -33.5s6 -28.666 6 -45.999c0 -42.667 -15.167 -80.667 -45.5 -114s-68.5 -50 -114.5 -50c-21.333 0 -44 4 -68 12s-39 12 -45 12c-22 0 -35.667 -8 -41 -24h-18zM218.998 589.998l128 130h14l-108 -204h-68l-102 204h14z" />
    <glyph glyph-name="Ydieresis" unicode="&#x178;" horiz-adv-x="667" 
d="M193 0v18.001h77v227l-194 441h-66v18h308v-18h-72l165 -378l119 270c13.333 32 20 55 20 69c0 13.333 -4.5 23.166 -13.5 29.499s-24.5 9.5 -46.5 9.5h-13v18h180v-18h-7c-18 0 -33.5 -6.66699 -46.5 -20s-26.833 -38 -41.5 -74l-136 -305v-269h77v-18h-310z
M229 825.001c0 17.333 6.16699 32.166 18.5 44.499s27.166 18.5 44.499 18.5s32.166 -6.16699 44.499 -18.5s18.5 -27.166 18.5 -44.499s-6.16699 -32.166 -18.5 -44.499s-27.166 -18.5 -44.499 -18.5s-32.166 6.16699 -44.499 18.5s-18.5 27.166 -18.5 44.499zM403 825.001
c0 17.333 6.16699 32.166 18.5 44.499s27.166 18.5 44.499 18.5s32.166 -6.16699 44.499 -18.5s18.5 -27.166 18.5 -44.499s-6.16699 -32.166 -18.5 -44.499s-27.166 -18.5 -44.499 -18.5s-32.166 6.16699 -44.499 18.5s-18.5 27.166 -18.5 44.499z" />
    <glyph glyph-name="Zcaron" unicode="&#x17d;" horiz-adv-x="667" 
d="M20 0l-0.000976562 17.999l407 668h-160c-115.333 -1.33301 -179.666 -67.666 -192.999 -198.999h-19l14 217h536v-18l-405 -668h151c47.333 0.666992 86.833 6.5 118.5 17.5s56 27.167 73 48.5s29.333 43.5 37 66.5s13.5 51.833 17.5 86.5h21l-18 -237h-580z
M330.999 808.999l128 130h14l-108 -204h-68l-102 204h14z" />
    <glyph glyph-name="zcaron" unicode="&#x17e;" horiz-adv-x="500" 
d="M442 200l-0.00195312 -200.001h-410v12l260 410h-57c-29.333 0 -55.166 -5.66699 -77.499 -17s-39.166 -25.333 -50.499 -42s-19.833 -33.167 -25.5 -49.5s-8.5 -31.166 -8.5 -44.499v-13h-18v184h399v-12l-265 -410h66c50 0 90.667 17 122 51s47 71.667 47 113v18h18z
M246.998 589.999l128 130h14l-108 -204h-68l-102 204h14z" />
    <glyph glyph-name="florin" unicode="&#x192;" 
d="M466 357v-29.999h-118c0 -2 -0.833008 -16.833 -2.5 -44.5s-2.66699 -44.834 -3 -51.501s-1.66602 -23 -3.99902 -49s-4.33301 -44.5 -6 -55.5s-4 -27.833 -7 -50.5s-6.33301 -41 -10 -55s-8.16699 -30 -13.5 -48s-11 -34.667 -17 -50
c-16.667 -40 -41.5 -75.667 -74.5 -107s-68.833 -47 -107.5 -47c-23.333 0 -42.833 6.83301 -58.5 20.5s-23.5 30.167 -23.5 49.5c0 18 5 32.5 15 43.5s23.667 16.5 41 16.5c14.667 0 27 -4.16699 37 -12.5s15 -19.833 15 -34.5c0 -11.333 -4.5 -22 -13.5 -32
s-13.5 -16.333 -13.5 -19c0 -9.33301 4.66699 -14 14 -14c20 0 35.5 12 46.5 36s16.833 48.667 17.5 74c10.667 259.333 16.667 402.666 18 429.999h-119v30h119c0 25.333 2.66699 53 8 83s14.333 61.167 27 93.5s28 61.666 46 87.999s41 48 69 65s58.667 25.5 92 25.5
c25.333 0 47.5 -7.5 66.5 -22.5s28.5 -34.5 28.5 -58.5c0 -18 -5.5 -33.333 -16.5 -46s-25.167 -19 -42.5 -19c-14.667 0 -27.5 5.16699 -38.5 15.5s-16.5 22.5 -16.5 36.5c0 8.66699 2 16.667 6 24s8.5 12.833 13.5 16.5s9.5 7.16699 13.5 10.5s6 6 6 8
c0 11.333 -7.66699 17 -23 17c-44.667 0 -71.334 -60 -80.001 -180c-0.666992 -5.33301 -1 -9 -1 -11c-0.666992 -13.333 -2 -36.166 -4 -68.499s-3.33301 -58.166 -4 -77.499h118z" />
    <glyph glyph-name="circumflex" unicode="&#x2c6;" horiz-adv-x="278" 
d="M142 646l-128 -130h-14l108 204h68l102 -204h-14z" />
    <glyph glyph-name="caron" unicode="&#x2c7;" horiz-adv-x="278" 
d="M136 590l128 130h14l-108 -204h-68l-102 204h14z" />
    <glyph glyph-name="uni02C9" unicode="&#x2c9;" horiz-adv-x="278" 
d="M-21 589v66h320v-66h-320z" />
    <glyph glyph-name="breve" unicode="&#x2d8;" horiz-adv-x="278" 
d="M-3 707h12c5.33301 -32 20.333 -55 45 -69s53 -21 85 -21s60.333 7 85 21s39.667 37 45 69h12c0 -48.667 -12.5 -86.834 -37.5 -114.501s-59.833 -41.5 -104.5 -41.5s-79.5 13.833 -104.5 41.5s-37.5 65.834 -37.5 114.501z" />
    <glyph glyph-name="dotaccent" unicode="&#x2d9;" horiz-adv-x="278" 
d="M76 626c0 17.333 6.16699 32.166 18.5 44.499s27.166 18.5 44.499 18.5s32.166 -6.16699 44.499 -18.5s18.5 -27.166 18.5 -44.499s-6.16699 -32.166 -18.5 -44.499s-27.166 -18.5 -44.499 -18.5s-32.166 6.16699 -44.499 18.5s-18.5 27.166 -18.5 44.499z" />
    <glyph glyph-name="ring" unicode="&#x2da;" horiz-adv-x="278" 
d="M31 648c0 30 10.5 55.5 31.5 76.5s46.5 31.5 76.5 31.5s55.5 -10.5 76.5 -31.5s31.5 -46.5 31.5 -76.5s-10.5 -55.5 -31.5 -76.5s-46.5 -31.5 -76.5 -31.5s-55.5 10.5 -76.5 31.5s-31.5 46.5 -31.5 76.5zM79 648c0 -16.667 5.83301 -30.834 17.5 -42.501
s25.834 -17.5 42.501 -17.5s30.834 5.83301 42.501 17.5s17.5 25.834 17.5 42.501s-5.83301 30.834 -17.5 42.501s-25.834 17.5 -42.501 17.5s-30.834 -5.83301 -42.501 -17.5s-17.5 -25.834 -17.5 -42.501z" />
    <glyph glyph-name="ogonek" unicode="&#x2db;" horiz-adv-x="278" 
d="M273 -137l5 -12.002c-31.333 -32.667 -63.666 -49 -96.999 -49c-24.667 0 -44 6.66699 -58 20s-21 32.333 -21 57c0 26 14.5 51 43.5 75s54.5 39.333 76.5 46h14l-9.5 -9.5c-5.66699 -5.66699 -9.66699 -9.5 -12 -11.5s-6 -5.83301 -11 -11.5s-8.66699 -10.167 -11 -13.5
l-9.5 -13.5c-4 -5.66699 -6.83301 -10.667 -8.5 -15s-3.16699 -9.16602 -4.5 -14.499s-2 -10.666 -2 -15.999c0 -15.333 4.33301 -27.666 13 -36.999s21 -14 37 -14c5.33301 0 10.666 0.666992 15.999 2s9.5 2.66602 12.5 3.99902s7.5 3.5 13.5 6.5z" />
    <glyph glyph-name="tilde" unicode="&#x2dc;" horiz-adv-x="278" 
d="M-1 565h-18.0039c14.667 47.333 28 78.333 40 93c14.667 16.667 32 25 52 25c12.667 0 40.334 -7.66699 83.001 -23s72.667 -23 90 -23c8.66699 0 19.334 16 32.001 48h19c-4.66699 -16 -8.66699 -28.667 -12 -38s-8.66602 -20.833 -15.999 -34.5s-16.5 -24 -27.5 -31
s-23.833 -10.5 -38.5 -10.5c-19.333 0 -48.166 6.66699 -86.499 20s-65.5 20 -81.5 20c-10 0 -18 -4.66699 -24 -14s-10 -20 -12 -32z" />
    <glyph glyph-name="hungarumlaut" unicode="&#x2dd;" horiz-adv-x="278" 
d="M37 516l73 149c12.667 25.333 21.667 40.833 27 46.5s15.333 8.5 30 8.5c25.333 0 38 -8.33301 38 -25c0 -10 -8 -23.333 -24 -40l-131 -139h-13zM157 516l73 149c12.667 25.333 21.667 40.833 27 46.5s15.333 8.5 30 8.5c25.333 0 38 -8.33301 38 -25
c0 -10 -8 -23.333 -24 -40l-131 -139h-13z" />
    <glyph glyph-name="uni03A9" unicode="&#x3a9;" horiz-adv-x="727" 
d="M694 167l-27.0029 -167h-250l-9 22c2 4 10.5 23.667 25.5 59s25.5 60.833 31.5 76.5s14.167 38.834 24.5 69.501s17.5 58.834 21.5 84.501s6 50.834 6 75.501c0 97.333 -14.167 168.166 -42.5 212.499s-65.833 66.5 -112.5 66.5c-48.667 0 -86.334 -21.5 -113.001 -64.5
s-40 -115.833 -40 -218.5c0 -38.667 6.5 -82.334 19.5 -131.001s25 -86.334 36 -113.001s28.167 -65.667 51.5 -117l-9 -22h-250l-24 167l32 1c10 -29.333 20.333 -48.5 31 -57.5s26.667 -13.5 48 -13.5h94c-23.333 18.667 -42.666 35.167 -57.999 49.5
s-33.166 34 -53.499 59s-35.666 53.167 -45.999 84.5s-15.5 65.333 -15.5 102c0 94 28.333 169.5 85 226.5s128.334 85.5 215.001 85.5c87.333 0 158.5 -27.667 213.5 -83s82.5 -129.666 82.5 -222.999c0 -33.333 -5 -64.833 -15 -94.5s-25.5 -57.834 -46.5 -84.501
s-39 -47.667 -54 -63s-36.167 -35 -63.5 -59h105c20 0 34.833 4.33301 44.5 13s19.5 28 29.5 58z" />
    <glyph glyph-name="uni03BC" unicode="&#x3bc;" horiz-adv-x="611" 
d="M595 18l0.00195312 -18.001h-207v84h-2c-12.667 -28.667 -32.834 -51.5 -60.501 -68.5s-58.5 -26.167 -92.5 -27.5c-16.667 0 -31.334 2.33301 -44.001 7c0.666992 -29.333 2.5 -66.666 5.5 -111.999s4.5 -75.666 4.5 -90.999c0 -17.333 -5.33301 -31.166 -16 -41.499
s-25.667 -15.5 -45 -15.5c-20 0 -35.167 5.16699 -45.5 15.5s-15.5 24.166 -15.5 41.499c0 26 1.33301 62.667 4 110s4 78.333 4 93v427h-69v18h71c76.667 0 122 8.66699 136 26v-382c0 -16 5.33301 -30 16 -42s24.667 -18 42 -18c28.667 0 53.667 15.167 75 45.5
s32 61.166 32 92.499v260h-69v18h71c76.667 0 122 8.66699 136 26v-448h69z" />
    <glyph glyph-name="pi" unicode="&#x3c0;" horiz-adv-x="582" 
d="M528 481l29 -7.99805c-2.66699 -20 -7.83398 -41.833 -15.501 -65.5s-14.834 -40.5 -21.501 -50.5c-13.333 -4 -34.666 -6 -63.999 -6c-4 -50 -5.33301 -116.333 -4 -199c0 -58.667 13 -88 39 -88c13.333 0 28.333 7.33301 45 22l13 -27
c-12.667 -20.667 -30 -37.834 -52 -51.501s-44 -20.5 -66 -20.5c-68 0 -102 45.667 -102 137c0 39.333 3 116 9 230c-17.333 0 -40 0.333008 -68 1s-47.667 1 -59 1v-12c0 -70.667 -4.83301 -132.667 -14.5 -186s-18.5 -89.166 -26.5 -107.499s-16.333 -33.166 -25 -44.499
c-22 -10 -45.333 -16.333 -70 -19l-8 22c32.667 45.333 56.5 100.166 71.5 164.499s22.5 125.5 22.5 183.5c-28 0.666992 -50.167 -1.83301 -66.5 -7.5s-36.166 -15.834 -59.499 -30.501l-17 30c1.33301 1.33301 5.33301 6.5 12 15.5s11.334 15 14.001 18
s7.83398 8.5 15.501 16.5s14.167 13.667 19.5 17l22 13.5c9.33301 5.66699 18.5 9.66699 27.5 12s19.667 4.5 32 6.5s25.166 3 38.499 3c24.667 0 67.667 -0.666992 129 -2c15.333 0 38.666 -0.166992 69.999 -0.5s55 -0.5 71 -0.5s28 2.16699 36 6.5
s15.667 13.166 23 26.499z" />
    <glyph glyph-name="endash" unicode="&#x2013;" horiz-adv-x="500" 
d="M0 214v78h500v-78h-500z" />
    <glyph glyph-name="emdash" unicode="&#x2014;" horiz-adv-x="1000" 
d="M0 214v78h1000v-78h-1000z" />
    <glyph glyph-name="quoteleft" unicode="&#x2018;" horiz-adv-x="278" 
d="M209 720l-0.000976562 -17c-39.333 -8.66699 -70.666 -28 -93.999 -58s-35.333 -65.667 -36 -107h2c16.667 20 38.667 30 66 30c24.667 0 43.5 -7.5 56.5 -22.5s19.5 -34.5 19.5 -58.5c0 -22 -7.66699 -41 -23 -57s-34.333 -24 -57 -24c-27.333 0 -48.833 10 -64.5 30
s-23.5 47.333 -23.5 82c0 53.333 13.333 98 40 134s64.667 58.667 114 68z" />
    <glyph glyph-name="quoteright" unicode="&#x2019;" horiz-adv-x="278" 
d="M69 406l0.000976562 17c39.333 8.66699 70.666 28 93.999 58s35.333 65.667 36 107h-2c-16.667 -20 -38.667 -30 -66 -30c-24.667 0 -43.5 7.5 -56.5 22.5s-19.5 34.5 -19.5 58.5c0 22 7.66699 41 23 57s34.333 24 57 24c27.333 0 48.833 -10 64.5 -30
s23.5 -47.333 23.5 -82c0 -53.333 -13.333 -98 -40 -134s-64.667 -58.667 -114 -68z" />
    <glyph glyph-name="quotesinglbase" unicode="&#x201a;" horiz-adv-x="278" 
d="M69 -164l0.000976562 17c39.333 8.66699 70.666 28 93.999 58s35.333 65.667 36 107h-2c-16.667 -20 -38.667 -30 -66 -30c-24.667 0 -43.5 7.5 -56.5 22.5s-19.5 34.5 -19.5 58.5c0 22 7.66699 41 23 57s34.333 24 57 24c27.333 0 48.833 -10 64.5 -30
s23.5 -47.333 23.5 -82c0 -53.333 -13.333 -98 -40 -134s-64.667 -58.667 -114 -68z" />
    <glyph glyph-name="quotedblleft" unicode="&#x201c;" horiz-adv-x="500" 
d="M209 720l-0.000976562 -17c-39.333 -8.66699 -70.666 -28 -93.999 -58s-35.333 -65.667 -36 -107h2c16.667 20 38.667 30 66 30c24.667 0 43.5 -7.5 56.5 -22.5s19.5 -34.5 19.5 -58.5c0 -22 -7.66699 -41 -23 -57s-34.333 -24 -57 -24c-27.333 0 -48.833 10 -64.5 30
s-23.5 47.333 -23.5 82c0 53.333 13.333 98 40 134s64.667 58.667 114 68zM430.999 720l-0.000976562 -17c-39.333 -8.66699 -70.666 -28 -93.999 -58s-35.333 -65.667 -36 -107h2c16.667 20 38.667 30 66 30c24.667 0 43.5 -7.5 56.5 -22.5s19.5 -34.5 19.5 -58.5
c0 -22 -7.66699 -41 -23 -57s-34.333 -24 -57 -24c-27.333 0 -48.833 10 -64.5 30s-23.5 47.333 -23.5 82c0 53.333 13.333 98 40 134s64.667 58.667 114 68z" />
    <glyph glyph-name="quotedblright" unicode="&#x201d;" horiz-adv-x="500" 
d="M69 406l0.000976562 17c39.333 8.66699 70.666 28 93.999 58s35.333 65.667 36 107h-2c-16.667 -20 -38.667 -30 -66 -30c-24.667 0 -43.5 7.5 -56.5 22.5s-19.5 34.5 -19.5 58.5c0 22 7.66699 41 23 57s34.333 24 57 24c27.333 0 48.833 -10 64.5 -30
s23.5 -47.333 23.5 -82c0 -53.333 -13.333 -98 -40 -134s-64.667 -58.667 -114 -68zM291.001 406l0.000976562 17c39.333 8.66699 70.666 28 93.999 58s35.333 65.667 36 107h-2c-16.667 -20 -38.667 -30 -66 -30c-24.667 0 -43.5 7.5 -56.5 22.5s-19.5 34.5 -19.5 58.5
c0 22 7.66699 41 23 57s34.333 24 57 24c27.333 0 48.833 -10 64.5 -30s23.5 -47.333 23.5 -82c0 -53.333 -13.333 -98 -40 -134s-64.667 -58.667 -114 -68z" />
    <glyph glyph-name="quotedblbase" unicode="&#x201e;" horiz-adv-x="500" 
d="M69 -164l0.000976562 17c39.333 8.66699 70.666 28 93.999 58s35.333 65.667 36 107h-2c-16.667 -20 -38.667 -30 -66 -30c-24.667 0 -43.5 7.5 -56.5 22.5s-19.5 34.5 -19.5 58.5c0 22 7.66699 41 23 57s34.333 24 57 24c27.333 0 48.833 -10 64.5 -30
s23.5 -47.333 23.5 -82c0 -53.333 -13.333 -98 -40 -134s-64.667 -58.667 -114 -68zM291.001 -164l0.000976562 17c39.333 8.66699 70.666 28 93.999 58s35.333 65.667 36 107h-2c-16.667 -20 -38.667 -30 -66 -30c-24.667 0 -43.5 7.5 -56.5 22.5s-19.5 34.5 -19.5 58.5
c0 22 7.66699 41 23 57s34.333 24 57 24c27.333 0 48.833 -10 64.5 -30s23.5 -47.333 23.5 -82c0 -53.333 -13.333 -98 -40 -134s-64.667 -58.667 -114 -68z" />
    <glyph glyph-name="dagger" unicode="&#x2020;" 
d="M269 357c-23.333 0 -48.8369 -6.83301 -76.5039 -20.5s-51.167 -27.167 -70.5 -40.5s-30.333 -20 -33 -20c-6.66699 0 -10 3.66699 -10 11c0 5.33301 1.66699 12.666 5 21.999s5 16.333 5 21c0 10.667 -12.333 16.667 -37 18c-24.667 0 -37 6 -37 18s12.333 18 37 18
c24.667 1.33301 37 7.33301 37 18c0 4.66699 -1.66699 11.667 -5 21s-5 16.666 -5 21.999c0 7.33301 3.33301 11 10 11c2.66699 0 13.667 -6.66699 33 -20s42.833 -26.833 70.5 -40.5s53.167 -20.5 76.5 -20.5c0 39.333 -6.16699 79.166 -18.5 119.499
s-24.666 73.333 -36.999 99s-18.5 39.834 -18.5 42.501c0 10 3.66699 15 11 15c3.33301 0 9.33301 -2 18 -6s15.334 -6 20.001 -6c9.33301 0 14.666 13.667 15.999 41c0 26.667 6 40 18 40s18 -13.333 18 -40c1.33301 -27.333 6.66602 -41 15.999 -41
c4.66699 0 11.334 2 20.001 6s14.667 6 18 6c7.33301 0 11 -5 11 -15c0 -2.66699 -6.16699 -16.834 -18.5 -42.501s-24.666 -58.667 -36.999 -99s-18.5 -80.166 -18.5 -119.499c23.333 0 48.833 6.83301 76.5 20.5s51.167 27.167 70.5 40.5s30.333 20 33 20
c6.66699 0 10 -3.66699 10 -11c0 -5.33301 -1.66699 -12.666 -5 -21.999s-5 -16.333 -5 -21c0 -10.667 12.333 -16.667 37 -18c24.667 0 37 -6 37 -18s-12.333 -18 -37 -18c-24.667 -1.33301 -37 -7.33301 -37 -18c0 -4.66699 1.66699 -11.667 5 -21s5 -16.666 5 -21.999
c0 -7.33301 -3.33301 -11 -10 -11c-2.66699 0 -13.667 6.66699 -33 20s-42.833 26.833 -70.5 40.5s-53.167 20.5 -76.5 20.5c0 -169.333 13 -306 39 -410c4.66699 -18.667 10.5 -36.834 17.5 -54.501s12.667 -31.334 17 -41.001s6.5 -15.5 6.5 -17.5
c0 -7.33301 -3.66699 -11 -11 -11c-5.33301 0 -12.666 1.83301 -21.999 5.5s-16.333 5.5 -21 5.5c-6 0 -11 -13.667 -15 -41c0 -28 -6.66699 -42 -20 -42s-20 14 -20 42c-2.66699 27.333 -7.66699 41 -15 41c-4.66699 0 -11.667 -1.83301 -21 -5.5
s-16.666 -5.5 -21.999 -5.5c-7.33301 0 -11 3.66699 -11 11c0 2 2.16699 7.83301 6.5 17.5s10 23.334 17 41.001s12.833 35.834 17.5 54.501c26 99.333 39 236 39 410z" />
    <glyph glyph-name="daggerdbl" unicode="&#x2021;" 
d="M532 420c0 -12.667 -12.333 -19.667 -37 -21c-24.667 0 -37 -4 -37 -12c0 -5.33301 2 -12.333 6 -21s6 -15.334 6 -20.001c0 -6.66699 -4.33301 -10 -13 -10c-2.66699 0 -11.667 6.33301 -27 19s-36 25.167 -62 37.5s-53 18.5 -81 18.5c0 -66 22.333 -124.333 67 -175
c-44.667 -49.333 -67 -107.666 -67 -174.999c28 0 55 6.16699 81 18.5s46.667 24.833 62 37.5s24.333 19 27 19c8.66699 0 13 -3.33301 13 -10c0 -4.66699 -2 -11.334 -6 -20.001s-6 -15.667 -6 -21c0 -8 12.333 -12 37 -12c24.667 -1.33301 37 -8.33301 37 -21
s-12.333 -19.667 -37 -21c-24.667 0 -37 -4 -37 -12c0 -5.33301 2 -12.333 6 -21s6 -15.334 6 -20.001c0 -6.66699 -4.33301 -10 -13 -10c-2.66699 0 -11.667 6.16699 -27 18.5s-36 24.833 -62 37.5s-53 19 -81 19c0 -33.333 6.16699 -66.833 18.5 -100.5
s24.666 -60.667 36.999 -81s18.5 -31.5 18.5 -33.5c0 -7.33301 -3 -11 -9 -11c-2.66699 0 -8.5 1.5 -17.5 4.5s-16.5 4.5 -22.5 4.5c-7.33301 0 -11.666 -12.333 -12.999 -37c0 -24.667 -7 -37 -21 -37s-21 12.333 -21 37c-1.33301 24.667 -5.66602 37 -12.999 37
c-6 0 -13.5 -1.5 -22.5 -4.5s-14.833 -4.5 -17.5 -4.5c-6 0 -9 3.66699 -9 11c0 2 6.16699 13.167 18.5 33.5s24.666 47.333 36.999 81s18.5 67.167 18.5 100.5c-28 0 -55 -6.16699 -81 -18.5s-46.667 -24.833 -62 -37.5s-24.333 -19 -27 -19c-8.66699 0 -13 3.33301 -13 10
c0 4.66699 2 11.334 6 20.001s6 15.667 6 21c0 8 -12.333 12 -37 12c-24.667 1.33301 -37 8.33301 -37 21s12.333 19.667 37 21c24.667 0 37 4 37 12c0 5.33301 -2 12.333 -6 21s-6 15.334 -6 20.001c0 6.66699 4.33301 10 13 10c2.66699 0 11.667 -6.16699 27 -18.5
s36 -24.833 62 -37.5s53 -19 81 -19c0 66 -22.333 124.333 -67 175c44.667 49.333 67 107.666 67 174.999c-28 0 -55 -6.16699 -81 -18.5s-46.667 -24.833 -62 -37.5s-24.333 -19 -27 -19c-8.66699 0 -13 3.33301 -13 10c0 4.66699 2 11.334 6 20.001s6 15.667 6 21
c0 8 -12.333 12 -37 12c-24.667 1.33301 -37 8.33301 -37 21s12.333 19.667 37 21c24.667 0 37 4 37 12c0 5.33301 -2 12.333 -6 21s-6 15.334 -6 20.001c0 6.66699 4.33301 10 13 10c2.66699 0 11.667 -6.33301 27 -19s36 -25.167 62 -37.5s53 -18.5 81 -18.5
c0 33.333 -6.16699 66.833 -18.5 100.5s-24.666 60.667 -36.999 81s-18.5 31.5 -18.5 33.5c0 7.33301 3 11 9 11c2.66699 0 8.5 -1.5 17.5 -4.5s16.5 -4.5 22.5 -4.5c7.33301 0 11.666 12.333 12.999 37c0 24.667 7 37 21 37s21 -12.333 21 -37
c1.33301 -24.667 5.66602 -37 12.999 -37c6 0 13.5 1.5 22.5 4.5s14.833 4.5 17.5 4.5c6 0 9 -3.66699 9 -11c0 -2 -6.16699 -13.167 -18.5 -33.5s-24.666 -47.333 -36.999 -81s-18.5 -67.167 -18.5 -100.5c28 0 55 6.16699 81 18.5s46.667 24.833 62 37.5s24.333 19 27 19
c8.66699 0 13 -3.33301 13 -10c0 -4.66699 -2 -11.334 -6 -20.001s-6 -15.667 -6 -21c0 -8 12.333 -12 37 -12c24.667 -1.33301 37 -8.33301 37 -21z" />
    <glyph glyph-name="bullet" unicode="&#x2022;" horiz-adv-x="500" 
d="M74 352c0 48.667 17.167 90.167 51.5 124.5s75.833 51.5 124.5 51.5s90.167 -17.167 124.5 -51.5s51.5 -75.833 51.5 -124.5s-17.167 -90.167 -51.5 -124.5s-75.833 -51.5 -124.5 -51.5s-90.167 17.167 -124.5 51.5s-51.5 75.833 -51.5 124.5z" />
    <glyph glyph-name="ellipsis" unicode="&#x2026;" horiz-adv-x="1000" 
d="M86 69c0 22.667 7.83301 41.834 23.5 57.501s34.834 23.5 57.501 23.5s41.834 -7.83301 57.501 -23.5s23.5 -34.834 23.5 -57.501s-7.83301 -41.834 -23.5 -57.501s-34.834 -23.5 -57.501 -23.5s-41.834 7.83301 -57.501 23.5s-23.5 34.834 -23.5 57.501zM419 69
c0 22.667 7.83301 41.834 23.5 57.501s34.834 23.5 57.501 23.5s41.834 -7.83301 57.501 -23.5s23.5 -34.834 23.5 -57.501s-7.83301 -41.834 -23.5 -57.501s-34.834 -23.5 -57.501 -23.5s-41.834 7.83301 -57.501 23.5s-23.5 34.834 -23.5 57.501zM752 69
c0 22.667 7.83301 41.834 23.5 57.501s34.834 23.5 57.501 23.5s41.834 -7.83301 57.501 -23.5s23.5 -34.834 23.5 -57.501s-7.83301 -41.834 -23.5 -57.501s-34.834 -23.5 -57.501 -23.5s-41.834 7.83301 -57.501 23.5s-23.5 34.834 -23.5 57.501z" />
    <glyph glyph-name="perthousand" unicode="&#x2030;" horiz-adv-x="1000" 
d="M216 482v93c0 83.333 -18.333 125 -55 125s-55 -41.667 -55 -125v-93c0 -83.333 18.333 -125 55 -125s55 41.667 55 125zM587 720l-463 -736h-45l463 736h45zM563 129v93c0 83.333 -18.333 125 -55 125s-55 -41.667 -55 -125v-93c0 -83.333 18.333 -125 55 -125
s55 41.667 55 125zM16 528c0 54.667 11.833 99 35.5 133s60.167 51 109.5 51s85.833 -17 109.5 -51s35.5 -78.333 35.5 -133s-11.833 -98.834 -35.5 -132.501s-60.167 -50.5 -109.5 -50.5s-85.833 16.833 -109.5 50.5s-35.5 77.834 -35.5 132.501zM363 175
c0 54.667 11.833 99 35.5 133s60.167 51 109.5 51s85.833 -17 109.5 -51s35.5 -78.333 35.5 -133s-11.833 -98.834 -35.5 -132.501s-60.167 -50.5 -109.5 -50.5s-85.833 16.833 -109.5 50.5s-35.5 77.834 -35.5 132.501zM694 175c0 54.667 11.833 99 35.5 133
s60.167 51 109.5 51s85.833 -17 109.5 -51s35.5 -78.333 35.5 -133s-11.833 -98.834 -35.5 -132.501s-60.167 -50.5 -109.5 -50.5s-85.833 16.833 -109.5 50.5s-35.5 77.834 -35.5 132.501zM894 129v93c0 83.333 -18.333 125 -55 125s-55 -41.667 -55 -125v-93
c0 -83.333 18.333 -125 55 -125s55 41.667 55 125z" />
    <glyph glyph-name="guilsinglleft" unicode="&#x2039;" horiz-adv-x="278" 
d="M229 394l-116 -141l116 -140l-36 -31l-144 171l144 171z" />
    <glyph glyph-name="guilsinglright" unicode="&#x203a;" horiz-adv-x="278" 
d="M49 112l116 141l-116 140l36 31l144 -171l-144 -171z" />
    <glyph glyph-name="fraction" unicode="&#x2044;" horiz-adv-x="167" 
d="M342 720l-463 -736h-45l463 736h45z" />
    <glyph glyph-name="Euro" unicode="&#x20ac;" 
d="M512 566h-23.998c-10 64 -48.333 96 -115 96c-46.667 0 -81.334 -20 -104.001 -60s-37 -99 -43 -177h234l-18 -45h-218v-31v-32h192l-18 -46h-173c4.66699 -74 19.667 -130.833 45 -170.5s60 -59.5 104 -59.5c29.333 0 54.333 7.83301 75 23.5s33.667 39.5 39 71.5h24
l-7 -90c-30.667 -35.333 -85 -53 -163 -53c-153.333 0 -238.333 92.667 -255 278h-69l18 46h45c-0.666992 6 -1 17 -1 33c0 14 0.333008 24 1 30h-63l18 45h48c10 95.333 35.167 167 75.5 215s101.166 72 182.499 72c76.667 0 131 -17.333 163 -52z" />
    <glyph glyph-name="afii61289" unicode="&#x2113;" horiz-adv-x="443" 
d="M402 145l24.999 -21.999c-45.333 -86 -107.333 -129 -186 -129c-52.667 0 -90.667 13.333 -114 40c-13.333 16.667 -22.833 35 -28.5 55s-8.5 51.333 -8.5 94v69l-56 -38l-14 32l70 51v139c0 71.333 3.83301 124.166 11.5 158.499s21.834 64.833 42.501 91.5
c31.333 42 68.333 63 111 63c34 0 60 -13.167 78 -39.5s27 -59.833 27 -100.5c0 -54.667 -12.167 -103.667 -36.5 -147s-61.5 -89.333 -111.5 -138v-82c0 -64 6.16699 -108.667 18.5 -134s33.5 -38 63.5 -38c37.333 0 73.333 25 108 75zM211.999 490.001v-109
c52.667 60.667 79 136 79 226c0 70.667 -13.333 106 -40 106c-16 0 -26.5 -14.833 -31.5 -44.5s-7.5 -89.167 -7.5 -178.5z" />
    <glyph glyph-name="trademark" unicode="&#x2122;" horiz-adv-x="1000" 
d="M95 300l-0.00195312 24h21c20.667 0 31 15.667 31 47v309h-48c-33.333 -0.666992 -54.666 -22 -63.999 -64h-24v88h362v-88h-24c-9.33301 42 -30.666 63.333 -63.999 64h-48v-309c0 -31.333 10.333 -47 31 -47h21v-24h-194zM765.998 300l0.000976562 24.001h14
c14 0 23.5 3.33301 28.5 10s7.5 19 7.5 37v219h-2l-147 -291h-13l-140 291h-2v-198c0 -45.333 12.667 -68 38 -68h14v-24h-133v24h15c24 0 36 22.667 36 68v237c-14 34 -37 51 -69 51v24h139l142 -289l151 289h115v-24h-16c-11.333 0.666992 -20.5 -3.33301 -27.5 -12
s-10.5 -20.334 -10.5 -35.001v-262c0 -18.667 2.66699 -31.167 8 -37.5s15.666 -9.5 30.999 -9.5h12v-24h-191z" />
    <glyph glyph-name="Omega" unicode="&#x2126;" horiz-adv-x="727" 
d="M694 167l-27.0029 -167h-250l-9 22c2 4 10.5 23.667 25.5 59s25.5 60.833 31.5 76.5s14.167 38.834 24.5 69.501s17.5 58.834 21.5 84.501s6 50.834 6 75.501c0 97.333 -14.167 168.166 -42.5 212.499s-65.833 66.5 -112.5 66.5c-48.667 0 -86.334 -21.5 -113.001 -64.5
s-40 -115.833 -40 -218.5c0 -38.667 6.5 -82.334 19.5 -131.001s25 -86.334 36 -113.001s28.167 -65.667 51.5 -117l-9 -22h-250l-24 167l32 1c10 -29.333 20.333 -48.5 31 -57.5s26.667 -13.5 48 -13.5h94c-23.333 18.667 -42.666 35.167 -57.999 49.5
s-33.166 34 -53.499 59s-35.666 53.167 -45.999 84.5s-15.5 65.333 -15.5 102c0 94 28.333 169.5 85 226.5s128.334 85.5 215.001 85.5c87.333 0 158.5 -27.667 213.5 -83s82.5 -129.666 82.5 -222.999c0 -33.333 -5 -64.833 -15 -94.5s-25.5 -57.834 -46.5 -84.501
s-39 -47.667 -54 -63s-36.167 -35 -63.5 -59h105c20 0 34.833 4.33301 44.5 13s19.5 28 29.5 58z" />
    <glyph glyph-name="estimated" unicode="&#x212e;" horiz-adv-x="867" 
d="M832 341l-646 -0.000976562c-4 0 -6 -1.33301 -6 -4v-196c0 -7.33301 3 -14.666 9 -21.999c68.667 -70.667 150 -106 244 -106c102.667 0 188.667 39.667 258 119h57c-36 -42.667 -81.833 -76.5 -137.5 -101.5s-115.167 -37.5 -178.5 -37.5
c-110 0 -203.833 35 -281.5 105s-116.5 154.333 -116.5 253c0 99.333 38.833 184 116.5 254s171.5 105 281.5 105c110.667 0 205 -35 283 -105s117 -154.667 117 -254v-10zM685 366.999v197c0 9.33301 -3 17 -9 23c-69.333 68 -150.333 102 -243 102
c-93.333 0 -174.333 -35 -243 -105c-6.66699 -6.66699 -10 -15 -10 -25v-192c0 -4 2 -6 6 -6h495c2.66699 0 4 2 4 6z" />
    <glyph glyph-name="partialdiff" unicode="&#x2202;" horiz-adv-x="551" 
d="M269 440l2.00098 -0.000976562c50.667 0 90.667 -19.667 120 -59c6.66699 54.667 10.334 91.667 11.001 111c3.33301 60 -4.33398 111 -23.001 153c-23.333 46 -61.333 69 -114 69c-46.667 0 -95 -21.667 -145 -65c-9.33301 0 -19.5 11.167 -30.5 33.5
s-13.833 39.833 -8.5 52.5c45.333 27.333 94 41 146 41c96 0 170 -48.667 222 -146c35.333 -65.333 53 -144.666 53 -237.999c0 -97.333 -16.667 -179.333 -50 -246c-48.667 -101.333 -122.334 -152 -221.001 -152c-57.333 0 -103.333 17.667 -138 53s-52 84 -52 146
c0 66.667 20.667 123.667 62 171c44 50.667 99.333 76 166 76zM299.001 391.999h-1c-37.333 0 -67.666 -19 -90.999 -57c-29.333 -52.667 -44 -122 -44 -208c0 -30.667 6.16699 -54.5 18.5 -71.5s29.833 -25.5 52.5 -25.5c34.667 0 67.334 35.333 98.001 106
c20.667 49.333 37 115 49 197c-6.66699 14.667 -17.334 28.167 -32.001 40.5s-31.334 18.5 -50.001 18.5z" />
    <glyph glyph-name="Delta" unicode="&#x2206;" horiz-adv-x="653" 
d="M618 0h-584v36l259 654l55 14l270 -668v-36zM462 61l-182 465l-178 -465h360z" />
    <glyph glyph-name="product" unicode="&#x220f;" horiz-adv-x="718" 
d="M690 700l0.00195312 -34c-42.667 -3.33301 -68.834 -10 -78.501 -20s-14.5 -34.333 -14.5 -73v-525c0 -41.333 4.83301 -67.333 14.5 -78s35.5 -18 77.5 -22v-33h-295v33c35.333 3.33301 56.833 10 64.5 20s11.5 36.667 11.5 80v573c0 16 -2.33301 26.167 -7 30.5
s-15 6.5 -31 6.5h-150c-15.333 0 -25 -1.83301 -29 -5.5s-6 -12.834 -6 -27.501v-577c0 -42.667 3.16699 -69.167 9.5 -79.5s26.166 -17.166 59.499 -20.499v-33h-289v33c41.333 3.33301 67 10.5 77 21.5s15 37.167 15 78.5v525c0 39.333 -5 64 -15 74
s-36.667 16.333 -80 19v34h666z" />
    <glyph glyph-name="summation" unicode="&#x2211;" horiz-adv-x="567" 
d="M545 124l-48 -216.999h-470v33l218 319l-214 408v33h466c2 -44 6.33301 -103 13 -177l-35 -7c-10 43.333 -22 78 -36 104c-8 15.333 -18.833 25.666 -32.5 30.999s-38.5 8 -74.5 8h-148l168 -311l-222 -333h234c46 0 76.5 5.83301 91.5 17.5s33.167 45.167 54.5 100.5z
" />
    <glyph glyph-name="minus" unicode="&#x2212;" horiz-adv-x="600" 
d="M47 211v84h506v-84h-506z" />
    <glyph glyph-name="uni2215" unicode="&#x2215;" horiz-adv-x="167" 
d="M342 720l-463 -736h-45l463 736h45z" />
    <glyph glyph-name="uni2219" unicode="&#x2219;" horiz-adv-x="278" 
d="M67 299c0 20 7 37 21 51s31 21 51 21s37 -7 51 -21s21 -31 21 -51s-7 -37 -21 -51s-31 -21 -51 -21s-37 7 -51 21s-21 31 -21 51z" />
    <glyph glyph-name="radical" unicode="&#x221a;" horiz-adv-x="565" 
d="M554 875l-177 -1041l-29 -13l-212 545l-88 -40l-13 41l184 81l146 -395h2l137 831z" />
    <glyph glyph-name="infinity" unicode="&#x221e;" horiz-adv-x="759" 
d="M713 287v-1.00391c0 -52 -15.833 -93.833 -47.5 -125.5s-68.834 -47.5 -111.501 -47.5c-61.333 0 -119 36.667 -173 110c-29.333 -36 -57.666 -63.333 -84.999 -82s-59 -28 -95 -28c-42 0 -78.5 15.833 -109.5 47.5s-46.5 71.834 -46.5 120.501
c0 50 15.667 90.833 47 122.5s70.666 47.5 117.999 47.5c34 0 64.833 -9 92.5 -27s54.834 -44.333 81.501 -79c1.33301 1.33301 5.33301 5.83301 12 13.5l13 15c2 2.33301 6.33301 7 13 14s11.667 11.833 15 14.5l16 12.5c7.33301 5.66699 13.333 9.83398 18 12.501
s10.834 5.83398 18.501 9.50098s15 6.33398 22 8.00098s14.667 3.16699 23 4.5s16.833 2 25.5 2c43.333 0 79.666 -15.167 108.999 -45.5s44 -69.833 44 -118.5zM210 185.996h1.99805c16.667 0 33.334 5.16699 50.001 15.5s29.834 20.5 39.501 30.5s22.834 25 39.501 45
c-14 19.333 -24 32.833 -30 40.5s-15 17.667 -27 30s-24.167 20.833 -36.5 25.5s-25.833 7 -40.5 7c-26.667 0 -47.834 -9.33301 -63.501 -28s-23.5 -42.667 -23.5 -72c-0.666992 -26 7.83301 -48.167 25.5 -66.5s39.167 -27.5 64.5 -27.5zM551.998 379.996l-1 -0.00292969
c-8 0 -15.833 -1 -23.5 -3s-15.334 -5.5 -23.001 -10.5l-19.5 -12.5c-5.33301 -3.33301 -11.666 -9.16602 -18.999 -17.499l-15.5 -17.5c-3 -3.33301 -8.33301 -9.66602 -16 -18.999s-12.167 -14.666 -13.5 -15.999c29.333 -38 53.333 -63.833 72 -77.5
s39.667 -20.5 63 -20.5c24.667 0 44.667 10 60 30s23 41.333 23 64c0 29.333 -8 53.333 -24 72s-37 28 -63 28z" />
    <glyph glyph-name="integral" unicode="&#x222b;" horiz-adv-x="406" 
d="M162 -9l-21.002 398.996c-3.33301 71.333 -2 134.333 4 189s14.833 97.834 26.5 129.501s26.334 57.5 44.001 77.5s34.667 33.333 51 40s33.833 10 52.5 10c18 0 35 -5.16699 51 -15.5s24 -24.166 24 -41.499c0 -19.333 -5.83301 -34.166 -17.5 -44.499
s-25.5 -15.5 -41.5 -15.5c-11.333 0 -20.166 5.16699 -26.499 15.5s-11.5 20.833 -15.5 31.5s-9 16 -15 16c-23.333 0 -32.666 -50.333 -27.999 -151l20 -368c8.66699 -162 -5 -281.5 -41 -358.5s-83.667 -115.5 -143 -115.5c-20.667 0 -38.167 5.83301 -52.5 17.5
s-21.5 25.834 -21.5 42.501c-0.666992 18 6.16602 33 20.499 45s30.166 18 47.499 18c12 0 22.333 -11.5 31 -34.5s16.334 -34.5 23.001 -34.5c24 0 33.333 49.333 28 148z" />
    <glyph glyph-name="approxequal" unicode="&#x2248;" horiz-adv-x="532" 
d="M446 451l50 -44.999c-16.667 -30.667 -36.667 -55.334 -60 -74.001s-48.333 -28 -75 -28c-31.333 0 -67 12.667 -107 38c-33.333 21.333 -60.333 32 -81 32c-19.333 0 -35.5 -5.83301 -48.5 -17.5s-26.833 -28.834 -41.5 -51.501l-50 44c14.667 29.333 35 53.5 61 72.5
s54 28.5 84 28.5c28.667 0 62.334 -11.333 101.001 -34l32 -20c5.33301 -3.33301 12.666 -6.66602 21.999 -9.99902s18.333 -5 27 -5c16.667 0 31.5 5.83301 44.5 17.5s26.833 29.167 41.5 52.5zM446 266.001l50.001 -43.9971c-37.333 -68.667 -82.666 -103 -135.999 -103
c-31.333 0 -66.666 12.667 -105.999 38c-33.333 22 -60.333 33 -81 33c-13.333 0 -26.166 -4 -38.499 -12s-21.333 -15.667 -27 -23s-13.834 -19 -24.501 -35l-50 44c14.667 29.333 35 53.5 61 72.5s54 28.5 84 28.5c6 0 11.833 -0.333008 17.5 -1
s10.667 -1.33398 15 -2.00098s9.16602 -2 14.499 -4l12 -4.5c2.66699 -1 6.66699 -2.83301 12 -5.5s8.83301 -4.5 10.5 -5.5l10.5 -6c5.33301 -3 8.33301 -4.83301 9 -5.5c2.66699 -1.33301 9.16699 -5.33301 19.5 -12s17.5 -10.834 21.5 -12.501
s9.83301 -3.83398 17.5 -6.50098s15.167 -4 22.5 -4c17.333 0 32.166 5.66699 44.499 17s26.166 29 41.499 53z" />
    <glyph glyph-name="notequal" unicode="&#x2260;" horiz-adv-x="532" 
d="M394 507l-36 -84h127v-77h-156l-55 -130h211v-77h-241l-47 -109l-61 24l37 85h-127v77h157l55 130h-212v77h241l46 108z" />
    <glyph glyph-name="lessequal" unicode="&#x2264;" horiz-adv-x="532" 
d="M483 102l-432 218v84l432 217v-90l-356 -168v-2l356 -169v-90zM487 -12h-440v79h440v-79z" />
    <glyph glyph-name="greaterequal" unicode="&#x2265;" horiz-adv-x="532" 
d="M53 621l432 -218v-83l-432 -218v90l355 169v2l-355 168v90zM485 -12h-437v79h437v-79z" />
    <glyph glyph-name="lozenge" unicode="&#x25ca;" horiz-adv-x="571" 
d="M524 335l-191 -406h-95l-191 406l193 409h93zM437 335l-149 328h-3l-151 -327l151 -330h3z" />
    <glyph glyph-name="zero.taboldstyle" unicode="&#xf643;" 
d="M54 235c0 70.667 20.668 128.834 62.001 174.501s96.666 68.5 165.999 68.5c67.333 0 120.833 -22.333 160.5 -67s59.5 -105.334 59.5 -182.001c0 -30.667 -3.83301 -59.5 -11.5 -86.5s-19.667 -52.5 -36 -76.5s-39.5 -43 -69.5 -57s-65.333 -21 -106 -21
c-72 0 -127.5 24.833 -166.5 74.5s-58.5 107.167 -58.5 172.5zM198.001 231c0 -142 42.667 -213.001 128 -213.001c44.667 0 82.167 19.333 112.5 58s45.5 89.667 45.5 153c0 72.667 -15.667 127.334 -47 164.001s-70 55 -116 55c-82 0 -123 -72.333 -123 -217z" />
    <glyph glyph-name="one.taboldstyle" unicode="&#xf644;" 
d="M115 0v18h94v430h-94v18h326v-18h-94v-430h94v-18h-326z" />
    <glyph glyph-name="two.taboldstyle" unicode="&#xf645;" 
d="M73 0v87c70.667 32 123 60.333 157 85s56.667 49.5 68 74.5s17 57.833 17 98.5c0 34 -8 60.667 -24 80s-40 29 -72 29c-21.333 0 -41.833 -5.83301 -61.5 -17.5s-29.5 -24.167 -29.5 -37.5c0 -7.33301 2.33301 -12.5 7 -15.5s13.667 -4.5 27 -4.5
c16 0 29.5 -5.16699 40.5 -15.5s16.5 -23.833 16.5 -40.5c0 -19.333 -6.66699 -34.833 -20 -46.5s-29 -17.5 -47 -17.5c-22 0 -39.833 7.66699 -53.5 23s-20.5 34 -20.5 56c0 42 16.833 75.833 50.5 101.5s75.167 38.5 124.5 38.5c60 0 108.333 -12.667 145 -38
s55 -62 55 -110c0 -44 -18.167 -79.5 -54.5 -106.5s-108.5 -60.833 -216.5 -101.5v-2h272l14 84h15l-15 -111l-4 -42l-3 -51h-388z" />
    <glyph glyph-name="three.taboldstyle" unicode="&#xf646;" 
d="M157 152l0.000976562 18.001h15c60 0 101.167 10.167 123.5 30.5s33.5 55.166 33.5 104.499c0 60 -7.66699 100.833 -23 122.5s-37.333 32.5 -66 32.5c-24 0 -45.167 -5.5 -63.5 -16.5s-27.5 -23.833 -27.5 -38.5c0 -10.667 9 -16 27 -16
c17.333 0 31.666 -6.16699 42.999 -18.5s17 -27.833 17 -46.5c0 -20.667 -6.33301 -38 -19 -52s-30.667 -21 -54 -21c-21.333 0 -38.5 7.33301 -51.5 22s-19.5 36.334 -19.5 65.001c0 36 14.167 68.333 42.5 97s71.5 43 129.5 43c60.667 0 108.667 -14.667 144 -44
s53 -67.666 53 -114.999c0 -42.667 -16.5 -76.5 -49.5 -101.5s-78.833 -41.5 -137.5 -49.5v-2c68 -3.33301 122 -21.333 162 -54s60 -78 60 -136c0 -61.333 -24.667 -111.333 -74 -150s-107.333 -58 -174 -58c-56 0 -101.333 12.667 -136 38s-52 60.333 -52 105
c0 27.333 6.83301 49 20.5 65s33.167 24 58.5 24c22 0 39.333 -6.83301 52 -20.5s19 -30.834 19 -51.501c0 -24.667 -7.5 -42.834 -22.5 -54.501s-30.167 -17.5 -45.5 -17.5c-14 0 -21 -5.66699 -21 -17c0 -13.333 10.833 -25.5 32.5 -36.5s48.167 -16.5 79.5 -16.5
c42 0 72.333 13.5 91 40.5s28 73.5 28 139.5c0 72 -11.833 121 -35.5 147s-70.167 39 -139.5 39h-20z" />
    <glyph glyph-name="four.taboldstyle" unicode="&#xf647;" 
d="M37 0v30l333 456h58v-386h73v-100h-73v-214h-126v214h-265zM113 102h189v256h-2z" />
    <glyph glyph-name="five.taboldstyle" unicode="&#xf648;" 
d="M118 115l-11.0029 2.99707c22 78.667 34.333 139.167 37 181.5s-1.33301 97.833 -12 166.5c36 8 71 12 105 12c26.667 0 59.334 -5 98.001 -15s62 -15 70 -15c9.33301 0 16.333 1.5 21 4.5s11.334 10.5 20.001 22.5l14 -3c-9.33301 -47.333 -23 -80.166 -41 -98.499
s-47 -27.5 -87 -27.5c-21.333 0 -49.833 3 -85.5 9s-54.834 9 -57.501 9c-11.333 0 -18.5 -0.666992 -21.5 -2s-4.5 -4 -4.5 -8c0 -53.333 -6.66699 -109.666 -20 -168.999l2 -2c34.667 28.667 75 43 121 43c66 0 122.333 -20.333 169 -61s70 -93 70 -157
c0 -26 -4.83301 -52.167 -14.5 -78.5s-24 -52 -43 -77s-46 -45.333 -81 -61s-74.833 -23.5 -119.5 -23.5c-54.667 0 -100.167 15 -136.5 45s-54.5 66 -54.5 108c0 26 7 47.167 21 63.5s32.333 24.5 55 24.5c45.333 0 68 -23 68 -69c0 -22 -7.83301 -39 -23.5 -51
s-30.5 -18 -44.5 -18c-12.667 0 -19 -4.66699 -19 -14c0 -12 10.167 -25.833 30.5 -41.5s45.833 -23.5 76.5 -23.5c44.667 0 79.334 18.333 104.001 55s37 87.334 37 152.001c0 72.667 -12.333 124.667 -37 156s-54 47 -88 47c-51.333 0 -90.666 -29 -117.999 -87z" />
    <glyph glyph-name="six.taboldstyle" unicode="&#xf649;" 
d="M187 207c0 -73.333 8.33301 -125.167 25 -155.5s42.667 -45.5 78 -45.5c33.333 0 55.833 14 67.5 42s17.5 81 17.5 159c0 78.667 -5.83301 132.167 -17.5 160.5s-34.167 42.5 -67.5 42.5c-35.333 0 -61.333 -15.333 -78 -46s-25 -83 -25 -157zM471 707.999
l-0.00195312 -18.001c-99.333 -8 -168.333 -35.833 -207 -83.5s-62 -127.167 -70 -238.5l2 -2c25.333 49.333 66.333 74 123 74c20.667 0 41.834 -4 63.501 -12s42.5 -20 62.5 -36s36.333 -38.167 49 -66.5s19 -60.833 19 -97.5c0 -71.333 -22 -129.166 -66 -173.499
s-96.667 -66.5 -158 -66.5c-75.333 0 -135.166 26 -179.499 78s-66.5 121.667 -66.5 209c0 112 43 212 129 300s185.667 132.333 299 133z" />
    <glyph glyph-name="seven.taboldstyle" unicode="&#xf64a;" 
d="M83 260l-17.999 -0.00195312c18 77.333 28.333 146 31 206h423v-31c-82.667 -132.667 -146.5 -245 -191.5 -337s-67.5 -151.667 -67.5 -179c0 -9.33301 2.16699 -16.166 6.5 -20.499s13.166 -7.16602 26.499 -8.49902c36.667 -3.33301 55 -23.333 55 -60
c0 -48 -22 -72 -66 -72c-22 0 -39.5 7.16699 -52.5 21.5s-19.5 34.833 -19.5 61.5c0 30 8.66699 64.833 26 104.5l71 163.5c30 69.333 55.333 144.333 76 225h-285c-4 -25.333 -9 -50 -15 -74z" />
    <glyph glyph-name="eight.taboldstyle" unicode="&#xf64b;" 
d="M196 543c0 -44.667 2.1709 -75.5 6.50391 -92.5s13.166 -32.5 26.499 -46.5c5.33301 -6 13.166 -11.167 23.499 -15.5s18.833 -6.5 25.5 -6.5s15.167 2.33301 25.5 7s18.166 9.66699 23.499 15c13.333 13.333 22.166 28.5 26.499 45.5s6.5 48.167 6.5 93.5
c0 55.333 -5.83301 93.666 -17.5 114.999s-33.167 32 -64.5 32s-52.833 -10.667 -64.5 -32s-17.5 -59.666 -17.5 -114.999zM43.0039 175c0 98 68.998 163.333 206.998 196v2c-53.333 12 -97.666 32.167 -132.999 60.5s-53 64.833 -53 109.5c0 46 20 85 60 117
s91.333 48 154 48s114 -16 154 -48s60 -71 60 -117c0 -44.667 -17.667 -81.167 -53 -109.5s-79.666 -48.5 -132.999 -60.5v-2c138 -32.667 207 -98 207 -196c0 -56.667 -22.667 -102 -68 -136s-101 -51 -167 -51s-121.667 17 -167 51s-68 79.333 -68 136zM278.002 6
c64.667 0 97 44.333 97 133c0 64.667 -2.33301 108.167 -7 130.5s-15 42.5 -31 60.5c-4.66699 5.33301 -14.167 12.333 -28.5 21s-24.5 13 -30.5 13s-16 -4.33301 -30 -13s-23.333 -15.667 -28 -21c-16 -18 -26.5 -38.333 -31.5 -61s-7.5 -66 -7.5 -130
c0 -88.667 32.333 -133 97 -133z" />
    <glyph glyph-name="nine.taboldstyle" unicode="&#xf64c;" 
d="M369 259c0 73.333 -8.33301 125.167 -25 155.5s-42.667 45.5 -78 45.5c-33.333 0 -55.833 -14 -67.5 -42s-17.5 -81 -17.5 -159c0 -78.667 5.83301 -132.167 17.5 -160.5s34.167 -42.5 67.5 -42.5c35.333 0 61.333 15.333 78 46s25 83 25 157zM85 -241.999
l0.00195312 18.001c99.333 8 168.333 35.833 207 83.5s62 127.167 70 238.5l-2 2c-25.333 -49.333 -66.333 -74 -123 -74c-20.667 0 -41.834 4 -63.501 12s-42.5 20 -62.5 36s-36.333 38.167 -49 66.5s-19 60.833 -19 97.5c0 71.333 22 129.166 66 173.499
s96.667 66.5 158 66.5c75.333 0 135.166 -26 179.499 -78s66.5 -121.667 66.5 -209c0 -112 -43 -212 -129 -300s-185.667 -132.333 -299 -133z" />
    <glyph glyph-name="dollar.taboldstyle" unicode="&#xf653;" 
d="M259 461v233.002h-5c-38.667 0 -70.667 -11.333 -96 -34s-38 -51.334 -38 -86.001s11.667 -59.834 35 -75.501s58 -28.167 104 -37.5zM289 278.002l-0.000976562 -268c42.667 1.33301 76.834 14 102.501 38s38.5 55.667 38.5 95s-12 68.5 -36 87.5s-59 34.833 -105 47.5z
M32.999 7.00195l-0.000976562 265.999h18c8 -38.667 20.333 -75.667 37 -111s40.167 -67.833 70.5 -97.5s63.833 -47.167 100.5 -52.5v274c-30 7.33301 -53.333 13.333 -70 18s-36.667 12.667 -60 24s-41.166 24 -53.499 38s-23 32.833 -32 56.5s-13.5 51.167 -13.5 82.5
c0 62 20.167 112 60.5 150s93.833 57 160.5 57h8v69h30v-72c25.333 -4 52 -13.5 80 -28.5s48 -22.5 60 -22.5c21.333 0 32 13 32 39h18v-225h-18c-30 128.667 -87.333 201.334 -172 218.001v-237c94 -20.667 157 -46.334 189 -77.001s48 -81.667 48 -153
c0 -65.333 -21 -120.166 -63 -164.499s-97.333 -66.5 -166 -66.5h-8v-106h-30v108c-24.667 4 -56.667 13.333 -96 28s-64.333 22 -75 22c-24.667 0 -37 -12.333 -37 -37h-18z" />
    <glyph glyph-name="cent.taboldstyle" unicode="&#xf654;" 
d="M293 -83v75.999c-62 4.66699 -113.833 28 -155.5 70s-62.5 93.667 -62.5 155c0 54.667 21.5 105 64.5 151s94.167 72.667 153.5 80v66h30v-63c40.667 0 79.334 -10.167 116.001 -30.5s55 -49.166 55 -86.499c0 -46 -24.333 -69 -73 -69c-20 0 -35.833 6.5 -47.5 19.5
s-17.5 29.167 -17.5 48.5c0 13.333 3.16699 24.333 9.5 33s12.666 15.667 18.999 21s9.5 10 9.5 14c0 8.66699 -6.5 16.167 -19.5 22.5s-30.167 9.5 -51.5 9.5v-425c43.333 0.666992 80.333 14.5 111 41.5s48 59.167 52 96.5h18c-5.33301 -46 -24.333 -83.167 -57 -111.5
s-74 -42.833 -124 -43.5v-75h-30zM293 12.999v418c-23.333 -5.33301 -40.5 -18.333 -51.5 -39s-16.5 -52 -16.5 -94v-137c0 -86.667 22.667 -136 68 -148z" />
    <glyph glyph-name="dollar.oldstyle" unicode="&#xf724;" 
d="M259 461v233.002h-5c-38.667 0 -70.667 -11.333 -96 -34s-38 -51.334 -38 -86.001s11.667 -59.834 35 -75.501s58 -28.167 104 -37.5zM289 278.002l-0.000976562 -268c42.667 1.33301 76.834 14 102.501 38s38.5 55.667 38.5 95s-12 68.5 -36 87.5s-59 34.833 -105 47.5z
M32.999 7.00195l-0.000976562 265.999h18c8 -38.667 20.333 -75.667 37 -111s40.167 -67.833 70.5 -97.5s63.833 -47.167 100.5 -52.5v274c-30 7.33301 -53.333 13.333 -70 18s-36.667 12.667 -60 24s-41.166 24 -53.499 38s-23 32.833 -32 56.5s-13.5 51.167 -13.5 82.5
c0 62 20.167 112 60.5 150s93.833 57 160.5 57h8v69h30v-72c25.333 -4 52 -13.5 80 -28.5s48 -22.5 60 -22.5c21.333 0 32 13 32 39h18v-225h-18c-30 128.667 -87.333 201.334 -172 218.001v-237c94 -20.667 157 -46.334 189 -77.001s48 -81.667 48 -153
c0 -65.333 -21 -120.166 -63 -164.499s-97.333 -66.5 -166 -66.5h-8v-106h-30v108c-24.667 4 -56.667 13.333 -96 28s-64.333 22 -75 22c-24.667 0 -37 -12.333 -37 -37h-18z" />
    <glyph glyph-name="zero.oldstyle" unicode="&#xf730;" horiz-adv-x="520" 
d="M36 235c0 70.667 20.668 128.834 62.001 174.501s96.666 68.5 165.999 68.5c67.333 0 120.833 -22.333 160.5 -67s59.5 -105.334 59.5 -182.001c0 -30.667 -3.83301 -59.5 -11.5 -86.5s-19.667 -52.5 -36 -76.5s-39.5 -43 -69.5 -57s-65.333 -21 -106 -21
c-72 0 -127.5 24.833 -166.5 74.5s-58.5 107.167 -58.5 172.5zM180.001 231c0 -142 42.667 -213.001 128 -213.001c44.667 0 82.167 19.333 112.5 58s45.5 89.667 45.5 153c0 72.667 -15.667 127.334 -47 164.001s-70 55 -116 55c-82 0 -123 -72.333 -123 -217z" />
    <glyph glyph-name="one.oldstyle" unicode="&#xf731;" horiz-adv-x="390" 
d="M32 0v18h94v430h-94v18h326v-18h-94v-430h94v-18h-326z" />
    <glyph glyph-name="two.oldstyle" unicode="&#xf732;" horiz-adv-x="482" 
d="M36 0v87c70.667 32 123 60.333 157 85s56.667 49.5 68 74.5s17 57.833 17 98.5c0 34 -8 60.667 -24 80s-40 29 -72 29c-21.333 0 -41.833 -5.83301 -61.5 -17.5s-29.5 -24.167 -29.5 -37.5c0 -7.33301 2.33301 -12.5 7 -15.5s13.667 -4.5 27 -4.5
c16 0 29.5 -5.16699 40.5 -15.5s16.5 -23.833 16.5 -40.5c0 -19.333 -6.66699 -34.833 -20 -46.5s-29 -17.5 -47 -17.5c-22 0 -39.833 7.66699 -53.5 23s-20.5 34 -20.5 56c0 42 16.833 75.833 50.5 101.5s75.167 38.5 124.5 38.5c60 0 108.333 -12.667 145 -38
s55 -62 55 -110c0 -44 -18.167 -79.5 -54.5 -106.5s-108.5 -60.833 -216.5 -101.5v-2h272l14 84h15l-15 -111l-4 -42l-3 -51h-388z" />
    <glyph glyph-name="three.oldstyle" unicode="&#xf733;" horiz-adv-x="482" 
d="M120 152l0.000976562 18.001h15c60 0 101.167 10.167 123.5 30.5s33.5 55.166 33.5 104.499c0 60 -7.66699 100.833 -23 122.5s-37.333 32.5 -66 32.5c-24 0 -45.167 -5.5 -63.5 -16.5s-27.5 -23.833 -27.5 -38.5c0 -10.667 9 -16 27 -16
c17.333 0 31.666 -6.16699 42.999 -18.5s17 -27.833 17 -46.5c0 -20.667 -6.33301 -38 -19 -52s-30.667 -21 -54 -21c-21.333 0 -38.5 7.33301 -51.5 22s-19.5 36.334 -19.5 65.001c0 36 14.167 68.333 42.5 97s71.5 43 129.5 43c60.667 0 108.667 -14.667 144 -44
s53 -67.666 53 -114.999c0 -42.667 -16.5 -76.5 -49.5 -101.5s-78.833 -41.5 -137.5 -49.5v-2c68 -3.33301 122 -21.333 162 -54s60 -78 60 -136c0 -61.333 -24.667 -111.333 -74 -150s-107.333 -58 -174 -58c-56 0 -101.333 12.667 -136 38s-52 60.333 -52 105
c0 27.333 6.83301 49 20.5 65s33.167 24 58.5 24c22 0 39.333 -6.83301 52 -20.5s19 -30.834 19 -51.501c0 -24.667 -7.5 -42.834 -22.5 -54.501s-30.167 -17.5 -45.5 -17.5c-14 0 -21 -5.66699 -21 -17c0 -13.333 10.833 -25.5 32.5 -36.5s48.167 -16.5 79.5 -16.5
c42 0 72.333 13.5 91 40.5s28 73.5 28 139.5c0 72 -11.833 121 -35.5 147s-70.167 39 -139.5 39h-20z" />
    <glyph glyph-name="four.oldstyle" unicode="&#xf734;" horiz-adv-x="482" 
d="M0 0v30l333 456h58v-386h73v-100h-73v-214h-126v214h-265zM76 102h189v256h-2z" />
    <glyph glyph-name="five.oldstyle" unicode="&#xf735;" horiz-adv-x="500" 
d="M90 115l-11.0029 2.99707c22 78.667 34.333 139.167 37 181.5s-1.33301 97.833 -12 166.5c36 8 71 12 105 12c26.667 0 59.334 -5 98.001 -15s62 -15 70 -15c9.33301 0 16.333 1.5 21 4.5s11.334 10.5 20.001 22.5l14 -3c-9.33301 -47.333 -23 -80.166 -41 -98.499
s-47 -27.5 -87 -27.5c-21.333 0 -49.833 3 -85.5 9s-54.834 9 -57.501 9c-11.333 0 -18.5 -0.666992 -21.5 -2s-4.5 -4 -4.5 -8c0 -53.333 -6.66699 -109.666 -20 -168.999l2 -2c34.667 28.667 75 43 121 43c66 0 122.333 -20.333 169 -61s70 -93 70 -157
c0 -26 -4.83301 -52.167 -14.5 -78.5s-24 -52 -43 -77s-46 -45.333 -81 -61s-74.833 -23.5 -119.5 -23.5c-54.667 0 -100.167 15 -136.5 45s-54.5 66 -54.5 108c0 26 7 47.167 21 63.5s32.333 24.5 55 24.5c45.333 0 68 -23 68 -69c0 -22 -7.83301 -39 -23.5 -51
s-30.5 -18 -44.5 -18c-12.667 0 -19 -4.66699 -19 -14c0 -12 10.167 -25.833 30.5 -41.5s45.833 -23.5 76.5 -23.5c44.667 0 79.334 18.333 104.001 55s37 87.334 37 152.001c0 72.667 -12.333 124.667 -37 156s-54 47 -88 47c-51.333 0 -90.666 -29 -117.999 -87z" />
    <glyph glyph-name="six.oldstyle" unicode="&#xf736;" 
d="M187 207c0 -73.333 8.33301 -125.167 25 -155.5s42.667 -45.5 78 -45.5c33.333 0 55.833 14 67.5 42s17.5 81 17.5 159c0 78.667 -5.83301 132.167 -17.5 160.5s-34.167 42.5 -67.5 42.5c-35.333 0 -61.333 -15.333 -78 -46s-25 -83 -25 -157zM471 707.999
l-0.00195312 -18.001c-99.333 -8 -168.333 -35.833 -207 -83.5s-62 -127.167 -70 -238.5l2 -2c25.333 49.333 66.333 74 123 74c20.667 0 41.834 -4 63.501 -12s42.5 -20 62.5 -36s36.333 -38.167 49 -66.5s19 -60.833 19 -97.5c0 -71.333 -22 -129.166 -66 -173.499
s-96.667 -66.5 -158 -66.5c-75.333 0 -135.166 26 -179.499 78s-66.5 121.667 -66.5 209c0 112 43 212 129 300s185.667 132.333 299 133z" />
    <glyph glyph-name="seven.oldstyle" unicode="&#xf737;" horiz-adv-x="482" 
d="M46 260l-17.999 -0.00195312c18 77.333 28.333 146 31 206h423v-31c-82.667 -132.667 -146.5 -245 -191.5 -337s-67.5 -151.667 -67.5 -179c0 -9.33301 2.16699 -16.166 6.5 -20.499s13.166 -7.16602 26.499 -8.49902c36.667 -3.33301 55 -23.333 55 -60
c0 -48 -22 -72 -66 -72c-22 0 -39.5 7.16699 -52.5 21.5s-19.5 34.833 -19.5 61.5c0 30 8.66699 64.833 26 104.5l71 163.5c30 69.333 55.333 144.333 76 225h-285c-4 -25.333 -9 -50 -15 -74z" />
    <glyph glyph-name="eight.oldstyle" unicode="&#xf738;" 
d="M196 543c0 -44.667 2.1709 -75.5 6.50391 -92.5s13.166 -32.5 26.499 -46.5c5.33301 -6 13.166 -11.167 23.499 -15.5s18.833 -6.5 25.5 -6.5s15.167 2.33301 25.5 7s18.166 9.66699 23.499 15c13.333 13.333 22.166 28.5 26.499 45.5s6.5 48.167 6.5 93.5
c0 55.333 -5.83301 93.666 -17.5 114.999s-33.167 32 -64.5 32s-52.833 -10.667 -64.5 -32s-17.5 -59.666 -17.5 -114.999zM43.0039 175c0 98 68.998 163.333 206.998 196v2c-53.333 12 -97.666 32.167 -132.999 60.5s-53 64.833 -53 109.5c0 46 20 85 60 117
s91.333 48 154 48s114 -16 154 -48s60 -71 60 -117c0 -44.667 -17.667 -81.167 -53 -109.5s-79.666 -48.5 -132.999 -60.5v-2c138 -32.667 207 -98 207 -196c0 -56.667 -22.667 -102 -68 -136s-101 -51 -167 -51s-121.667 17 -167 51s-68 79.333 -68 136zM278.002 6
c64.667 0 97 44.333 97 133c0 64.667 -2.33301 108.167 -7 130.5s-15 42.5 -31 60.5c-4.66699 5.33301 -14.167 12.333 -28.5 21s-24.5 13 -30.5 13s-16 -4.33301 -30 -13s-23.333 -15.667 -28 -21c-16 -18 -26.5 -38.333 -31.5 -61s-7.5 -66 -7.5 -130
c0 -88.667 32.333 -133 97 -133z" />
    <glyph glyph-name="nine.oldstyle" unicode="&#xf739;" 
d="M369 259c0 73.333 -8.33301 125.167 -25 155.5s-42.667 45.5 -78 45.5c-33.333 0 -55.833 -14 -67.5 -42s-17.5 -81 -17.5 -159c0 -78.667 5.83301 -132.167 17.5 -160.5s34.167 -42.5 67.5 -42.5c35.333 0 61.333 15.333 78 46s25 83 25 157zM85 -241.999
l0.00195312 18.001c99.333 8 168.333 35.833 207 83.5s62 127.167 70 238.5l-2 2c-25.333 -49.333 -66.333 -74 -123 -74c-20.667 0 -41.834 4 -63.501 12s-42.5 20 -62.5 36s-36.333 38.167 -49 66.5s-19 60.833 -19 97.5c0 71.333 22 129.166 66 173.499
s96.667 66.5 158 66.5c75.333 0 135.166 -26 179.499 -78s66.5 -121.667 66.5 -209c0 -112 -43 -212 -129 -300s-185.667 -132.333 -299 -133z" />
    <glyph glyph-name="cent.oldstyle" unicode="&#xf7a2;" 
d="M293 -83v75.999c-62 4.66699 -113.833 28 -155.5 70s-62.5 93.667 -62.5 155c0 54.667 21.5 105 64.5 151s94.167 72.667 153.5 80v66h30v-63c40.667 0 79.334 -10.167 116.001 -30.5s55 -49.166 55 -86.499c0 -46 -24.333 -69 -73 -69c-20 0 -35.833 6.5 -47.5 19.5
s-17.5 29.167 -17.5 48.5c0 13.333 3.16699 24.333 9.5 33s12.666 15.667 18.999 21s9.5 10 9.5 14c0 8.66699 -6.5 16.167 -19.5 22.5s-30.167 9.5 -51.5 9.5v-425c43.333 0.666992 80.333 14.5 111 41.5s48 59.167 52 96.5h18c-5.33301 -46 -24.333 -83.167 -57 -111.5
s-74 -42.833 -124 -43.5v-75h-30zM293 12.999v418c-23.333 -5.33301 -40.5 -18.333 -51.5 -39s-16.5 -52 -16.5 -94v-137c0 -86.667 22.667 -136 68 -148z" />
    <glyph glyph-name=".null" horiz-adv-x="0" 
 />
    <glyph glyph-name="nonmarkingreturn" horiz-adv-x="333" 
 />
    </font>
</defs>
</svg>
